<svg width="249" height="313" viewBox="0 0 249 313" fill="none" xmlns="http://www.w3.org/2000/svg">
<path d="M91.8306 0C116.52 2.94414e-07 140.858 5.84123 162.858 17.0464C184.858 28.2516 203.895 44.5028 218.413 64.4722C232.931 84.4416 242.519 107.562 246.392 131.946C250.266 156.329 248.316 181.283 240.701 204.768C233.086 228.254 220.023 249.605 202.579 267.076C185.135 284.547 163.804 297.644 140.331 305.295C116.857 312.946 91.9064 314.935 67.5171 311.1C43.1278 307.264 19.992 297.713 0 283.226L9.02973 270.765C27.0559 283.827 47.9167 292.439 69.9079 295.898C91.899 299.356 114.396 297.563 135.562 290.664C156.727 283.765 175.96 271.956 191.689 256.203C207.418 240.45 219.197 221.198 226.063 200.022C232.929 178.846 234.687 156.346 231.194 134.36C227.702 112.375 219.057 91.5271 205.966 73.5213C192.876 55.5155 175.711 40.8623 155.874 30.7589C136.038 20.6556 114.092 15.3887 91.8306 15.3887V0Z" fill="#EAB52E"/>
<path d="M46.5866 146H43.0639C42.8556 144.987 42.491 144.097 41.9701 143.33C41.4588 142.562 40.8338 141.919 40.0951 141.398C39.366 140.867 38.5563 140.47 37.6662 140.205C36.776 139.939 35.848 139.807 34.8821 139.807C33.1207 139.807 31.5251 140.252 30.0951 141.142C28.6747 142.032 27.5431 143.344 26.7003 145.077C25.8669 146.81 25.4503 148.936 25.4503 151.455C25.4503 153.973 25.8669 156.099 26.7003 157.832C27.5431 159.565 28.6747 160.877 30.0951 161.767C31.5251 162.657 33.1207 163.102 34.8821 163.102C35.848 163.102 36.776 162.97 37.6662 162.705C38.5563 162.439 39.366 162.046 40.0951 161.526C40.8338 160.995 41.4588 160.347 41.9701 159.58C42.491 158.803 42.8556 157.913 43.0639 156.909H46.5866C46.3215 158.396 45.8385 159.726 45.1378 160.901C44.437 162.075 43.5658 163.074 42.5241 163.898C41.4825 164.712 40.3129 165.332 39.0156 165.759C37.7277 166.185 36.3499 166.398 34.8821 166.398C32.401 166.398 30.1946 165.792 28.2628 164.58C26.3309 163.367 24.8111 161.644 23.7031 159.409C22.5951 157.174 22.0412 154.523 22.0412 151.455C22.0412 148.386 22.5951 145.735 23.7031 143.5C24.8111 141.265 26.3309 139.542 28.2628 138.33C30.1946 137.117 32.401 136.511 34.8821 136.511C36.3499 136.511 37.7277 136.724 39.0156 137.151C40.3129 137.577 41.4825 138.202 42.5241 139.026C43.5658 139.84 44.437 140.834 45.1378 142.009C45.8385 143.173 46.3215 144.504 46.5866 146Z" fill="black"/>
<path d="M60.6882 166.455C58.7185 166.455 56.9903 165.986 55.5035 165.048C54.0262 164.111 52.8709 162.799 52.0376 161.114C51.2137 159.428 50.8018 157.458 50.8018 155.205C50.8018 152.932 51.2137 150.948 52.0376 149.253C52.8709 147.558 54.0262 146.241 55.5035 145.304C56.9903 144.366 58.7185 143.898 60.6882 143.898C62.6579 143.898 64.3814 144.366 65.8586 145.304C67.3454 146.241 68.5007 147.558 69.3245 149.253C70.1579 150.948 70.5745 152.932 70.5745 155.205C70.5745 157.458 70.1579 159.428 69.3245 161.114C68.5007 162.799 67.3454 164.111 65.8586 165.048C64.3814 165.986 62.6579 166.455 60.6882 166.455ZM60.6882 163.443C62.1844 163.443 63.4155 163.06 64.3814 162.293C65.3473 161.526 66.0622 160.517 66.5263 159.267C66.9903 158.017 67.2223 156.663 67.2223 155.205C67.2223 153.746 66.9903 152.387 66.5263 151.128C66.0622 149.868 65.3473 148.85 64.3814 148.074C63.4155 147.297 62.1844 146.909 60.6882 146.909C59.192 146.909 57.9609 147.297 56.995 148.074C56.0291 148.85 55.3141 149.868 54.8501 151.128C54.3861 152.387 54.1541 153.746 54.1541 155.205C54.1541 156.663 54.3861 158.017 54.8501 159.267C55.3141 160.517 56.0291 161.526 56.995 162.293C57.9609 163.06 59.192 163.443 60.6882 163.443Z" fill="black"/>
<path d="M79.044 136.909V166H75.6917V136.909H79.044Z" fill="black"/>
<path d="M94.0476 166.455C92.0779 166.455 90.3496 165.986 88.8629 165.048C87.3856 164.111 86.2303 162.799 85.397 161.114C84.5731 159.428 84.1612 157.458 84.1612 155.205C84.1612 152.932 84.5731 150.948 85.397 149.253C86.2303 147.558 87.3856 146.241 88.8629 145.304C90.3496 144.366 92.0779 143.898 94.0476 143.898C96.0173 143.898 97.7407 144.366 99.218 145.304C100.705 146.241 101.86 147.558 102.684 149.253C103.517 150.948 103.934 152.932 103.934 155.205C103.934 157.458 103.517 159.428 102.684 161.114C101.86 162.799 100.705 164.111 99.218 165.048C97.7407 165.986 96.0173 166.455 94.0476 166.455ZM94.0476 163.443C95.5438 163.443 96.7748 163.06 97.7407 162.293C98.7066 161.526 99.4216 160.517 99.8856 159.267C100.35 158.017 100.582 156.663 100.582 155.205C100.582 153.746 100.35 152.387 99.8856 151.128C99.4216 149.868 98.7066 148.85 97.7407 148.074C96.7748 147.297 95.5438 146.909 94.0476 146.909C92.5513 146.909 91.3203 147.297 90.3544 148.074C89.3885 148.85 88.6735 149.868 88.2095 151.128C87.7455 152.387 87.5135 153.746 87.5135 155.205C87.5135 156.663 87.7455 158.017 88.2095 159.267C88.6735 160.517 89.3885 161.526 90.3544 162.293C91.3203 163.06 92.5513 163.443 94.0476 163.443Z" fill="black"/>
<path d="M122.801 157.08V144.182H126.153V166H122.801V162.307H122.574C122.062 163.415 121.267 164.357 120.187 165.134C119.108 165.901 117.744 166.284 116.097 166.284C114.733 166.284 113.521 165.986 112.46 165.389C111.4 164.783 110.566 163.874 109.96 162.662C109.354 161.44 109.051 159.902 109.051 158.045V144.182H112.403V157.818C112.403 159.409 112.848 160.678 113.739 161.625C114.638 162.572 115.784 163.045 117.176 163.045C118.009 163.045 118.857 162.832 119.719 162.406C120.59 161.98 121.319 161.327 121.906 160.446C122.503 159.565 122.801 158.443 122.801 157.08Z" fill="black"/>
<path d="M132.293 166V144.182H135.532V147.477H135.759C136.157 146.398 136.877 145.522 137.918 144.849C138.96 144.177 140.134 143.841 141.441 143.841C141.687 143.841 141.995 143.846 142.364 143.855C142.734 143.865 143.013 143.879 143.202 143.898V147.307C143.089 147.278 142.828 147.236 142.421 147.179C142.023 147.113 141.602 147.08 141.157 147.08C140.096 147.08 139.149 147.302 138.316 147.747C137.492 148.183 136.839 148.789 136.356 149.565C135.882 150.332 135.646 151.208 135.646 152.193V166H132.293Z" fill="black"/>
<path d="M162.631 149.068L159.619 149.92C159.43 149.419 159.151 148.931 158.781 148.457C158.421 147.974 157.929 147.577 157.304 147.264C156.679 146.952 155.879 146.795 154.903 146.795C153.568 146.795 152.455 147.103 151.565 147.719C150.685 148.325 150.244 149.097 150.244 150.034C150.244 150.867 150.547 151.526 151.153 152.009C151.759 152.491 152.706 152.894 153.994 153.216L157.233 154.011C159.184 154.485 160.637 155.209 161.594 156.185C162.55 157.151 163.028 158.396 163.028 159.92C163.028 161.17 162.669 162.288 161.949 163.273C161.239 164.258 160.244 165.034 158.966 165.602C157.687 166.17 156.201 166.455 154.506 166.455C152.28 166.455 150.438 165.972 148.98 165.006C147.522 164.04 146.598 162.629 146.21 160.773L149.392 159.977C149.695 161.152 150.268 162.032 151.111 162.619C151.963 163.206 153.076 163.5 154.449 163.5C156.011 163.5 157.252 163.169 158.17 162.506C159.098 161.833 159.562 161.028 159.562 160.091C159.562 159.333 159.297 158.699 158.767 158.188C158.237 157.667 157.422 157.278 156.324 157.023L152.687 156.17C150.689 155.697 149.222 154.963 148.284 153.969C147.356 152.965 146.892 151.71 146.892 150.205C146.892 148.973 147.238 147.884 147.929 146.938C148.63 145.991 149.581 145.247 150.784 144.707C151.996 144.168 153.369 143.898 154.903 143.898C157.062 143.898 158.758 144.371 159.989 145.318C161.229 146.265 162.11 147.515 162.631 149.068Z" fill="black"/>
<path d="M63.7706 214.398C62.5774 214.379 61.3842 214.152 60.191 213.716C58.9978 213.28 57.9088 212.546 56.924 211.514C55.9391 210.473 55.1484 209.066 54.5518 207.295C53.9552 205.515 53.6569 203.28 53.6569 200.591C53.6569 198.015 53.8984 195.733 54.3814 193.744C54.8643 191.746 55.5651 190.065 56.4836 188.702C57.4022 187.329 58.5102 186.287 59.8075 185.577C61.1143 184.866 62.5869 184.511 64.2251 184.511C65.8539 184.511 67.3028 184.838 68.5717 185.491C69.8501 186.135 70.8918 187.035 71.6967 188.19C72.5016 189.346 73.0225 190.676 73.2592 192.182H69.7933C69.4713 190.875 68.8463 189.791 67.9183 188.929C66.9903 188.067 65.7592 187.636 64.2251 187.636C61.9713 187.636 60.1958 188.616 58.8984 190.577C57.6105 192.537 56.9619 195.288 56.9524 198.83H57.1797C57.71 198.025 58.3397 197.338 59.0689 196.77C59.8075 196.192 60.6219 195.747 61.512 195.435C62.4022 195.122 63.3444 194.966 64.3388 194.966C66.0054 194.966 67.53 195.383 68.9126 196.216C70.2952 197.04 71.4031 198.181 72.2365 199.639C73.0698 201.088 73.4865 202.75 73.4865 204.625C73.4865 206.424 73.084 208.072 72.2791 209.568C71.4742 211.055 70.3425 212.239 68.8842 213.119C67.4353 213.991 65.7308 214.417 63.7706 214.398ZM63.7706 211.273C64.9638 211.273 66.0338 210.974 66.9808 210.378C67.9372 209.781 68.6901 208.981 69.2393 207.977C69.798 206.973 70.0774 205.856 70.0774 204.625C70.0774 203.422 69.8075 202.329 69.2677 201.344C68.7374 200.349 68.0035 199.559 67.066 198.972C66.138 198.384 65.0774 198.091 63.8842 198.091C62.9846 198.091 62.1465 198.271 61.37 198.631C60.5935 198.981 59.9117 199.464 59.3245 200.08C58.7469 200.695 58.2923 201.401 57.9609 202.196C57.6295 202.982 57.4637 203.811 57.4637 204.682C57.4637 205.837 57.7336 206.917 58.2734 207.92C58.8226 208.924 59.5708 209.734 60.5177 210.349C61.4742 210.965 62.5584 211.273 63.7706 211.273Z" fill="black"/>
<path d="M88.5611 214.398C86.4209 214.398 84.598 213.815 83.0923 212.651C81.5866 211.476 80.436 209.777 79.6406 207.551C78.8451 205.316 78.4474 202.617 78.4474 199.455C78.4474 196.311 78.8451 193.626 79.6406 191.401C80.4455 189.166 81.6008 187.461 83.1065 186.287C84.6217 185.103 86.4398 184.511 88.5611 184.511C90.6823 184.511 92.4957 185.103 94.0014 186.287C95.5165 187.461 96.6718 189.166 97.4673 191.401C98.2722 193.626 98.6747 196.311 98.6747 199.455C98.6747 202.617 98.277 205.316 97.4815 207.551C96.6861 209.777 95.5355 211.476 94.0298 212.651C92.5241 213.815 90.7012 214.398 88.5611 214.398ZM88.5611 211.273C90.6823 211.273 92.33 210.25 93.5042 208.205C94.6785 206.159 95.2656 203.242 95.2656 199.455C95.2656 196.936 94.9957 194.791 94.4559 193.02C93.9256 191.249 93.1586 189.9 92.1548 188.972C91.1605 188.044 89.9626 187.58 88.5611 187.58C86.4588 187.58 84.8158 188.616 83.6321 190.69C82.4484 192.755 81.8565 195.676 81.8565 199.455C81.8565 201.973 82.1217 204.114 82.652 205.875C83.1823 207.636 83.9446 208.976 84.9389 209.895C85.9427 210.813 87.1501 211.273 88.5611 211.273Z" fill="black"/>
<path d="M118.902 208.545V207.011C118.902 205.951 119.12 204.98 119.555 204.099C120 203.209 120.644 202.499 121.487 201.969C122.339 201.429 123.372 201.159 124.584 201.159C125.815 201.159 126.847 201.429 127.68 201.969C128.514 202.499 129.143 203.209 129.57 204.099C129.996 204.98 130.209 205.951 130.209 207.011V208.545C130.209 209.606 129.991 210.581 129.555 211.472C129.129 212.352 128.495 213.063 127.652 213.602C126.819 214.133 125.796 214.398 124.584 214.398C123.353 214.398 122.316 214.133 121.473 213.602C120.63 213.063 119.991 212.352 119.555 211.472C119.12 210.581 118.902 209.606 118.902 208.545ZM121.8 207.011V208.545C121.8 209.426 122.008 210.217 122.425 210.918C122.841 211.609 123.561 211.955 124.584 211.955C125.578 211.955 126.279 211.609 126.686 210.918C127.103 210.217 127.311 209.426 127.311 208.545V207.011C127.311 206.131 127.112 205.345 126.714 204.653C126.317 203.953 125.607 203.602 124.584 203.602C123.589 203.602 122.875 203.953 122.439 204.653C122.013 205.345 121.8 206.131 121.8 207.011ZM104.413 191.898V190.364C104.413 189.303 104.631 188.332 105.067 187.452C105.512 186.562 106.156 185.851 106.999 185.321C107.851 184.781 108.883 184.511 110.095 184.511C111.326 184.511 112.358 184.781 113.192 185.321C114.025 185.851 114.655 186.562 115.081 187.452C115.507 188.332 115.72 189.303 115.72 190.364V191.898C115.72 192.958 115.502 193.934 115.067 194.824C114.641 195.705 114.006 196.415 113.163 196.955C112.33 197.485 111.307 197.75 110.095 197.75C108.864 197.75 107.827 197.485 106.984 196.955C106.142 196.415 105.502 195.705 105.067 194.824C104.631 193.934 104.413 192.958 104.413 191.898ZM107.311 190.364V191.898C107.311 192.778 107.519 193.569 107.936 194.27C108.353 194.961 109.072 195.307 110.095 195.307C111.089 195.307 111.79 194.961 112.197 194.27C112.614 193.569 112.822 192.778 112.822 191.898V190.364C112.822 189.483 112.624 188.697 112.226 188.006C111.828 187.305 111.118 186.955 110.095 186.955C109.101 186.955 108.386 187.305 107.95 188.006C107.524 188.697 107.311 189.483 107.311 190.364ZM105.493 214L125.493 184.909H128.732L108.732 214H105.493Z" fill="black"/>
</svg>
