<svg width="313" height="313" viewBox="0 0 313 313" fill="none" xmlns="http://www.w3.org/2000/svg">
<path d="M156.5 0C193.76 4.44314e-07 229.797 13.2933 258.131 37.4894C286.465 61.6855 305.236 95.1966 311.07 131.997C316.904 168.796 309.417 206.47 289.955 238.243C270.494 270.016 240.335 293.803 204.903 305.327C169.47 316.851 131.089 315.355 96.6606 301.108C62.2324 286.861 34.0166 260.799 17.0874 227.608C0.158092 194.416 -4.37384 156.274 4.30655 120.04C12.9869 83.8058 34.3101 51.8573 64.4414 29.9401L73.4936 42.3847C46.3251 62.1469 27.0986 90.9538 19.2718 123.625C11.445 156.296 15.5313 190.688 30.7959 220.616C46.0605 250.543 71.5018 274.043 102.545 286.889C133.587 299.734 168.195 301.083 200.143 290.693C232.092 280.302 259.285 258.854 276.833 230.205C294.38 201.557 301.131 167.587 295.871 134.406C290.611 101.225 273.685 71.0086 248.137 49.1918C222.589 27.3749 190.096 15.3887 156.5 15.3887V0Z" fill="#2EEA3B"/>
<path d="M105.66 148V118.909H123.103V122.034H109.182V131.864H121.796V134.989H109.182V148H105.66Z" fill="black"/>
<path d="M135.944 148.455C133.974 148.455 132.246 147.986 130.759 147.048C129.282 146.111 128.127 144.799 127.293 143.114C126.469 141.428 126.057 139.458 126.057 137.205C126.057 134.932 126.469 132.948 127.293 131.253C128.127 129.558 129.282 128.241 130.759 127.304C132.246 126.366 133.974 125.898 135.944 125.898C137.913 125.898 139.637 126.366 141.114 127.304C142.601 128.241 143.756 129.558 144.58 131.253C145.413 132.948 145.83 134.932 145.83 137.205C145.83 139.458 145.413 141.428 144.58 143.114C143.756 144.799 142.601 146.111 141.114 147.048C139.637 147.986 137.913 148.455 135.944 148.455ZM135.944 145.443C137.44 145.443 138.671 145.06 139.637 144.293C140.603 143.526 141.318 142.517 141.782 141.267C142.246 140.017 142.478 138.663 142.478 137.205C142.478 135.746 142.246 134.387 141.782 133.128C141.318 131.868 140.603 130.85 139.637 130.074C138.671 129.297 137.44 128.909 135.944 128.909C134.448 128.909 133.216 129.297 132.251 130.074C131.285 130.85 130.57 131.868 130.106 133.128C129.642 134.387 129.41 135.746 129.41 137.205C129.41 138.663 129.642 140.017 130.106 141.267C130.57 142.517 131.285 143.526 132.251 144.293C133.216 145.06 134.448 145.443 135.944 145.443Z" fill="black"/>
<path d="M152.549 126.182L157.776 135.102L163.003 126.182H166.867L159.822 137.091L166.867 148H163.003L157.776 139.534L152.549 148H148.685L155.617 137.091L148.685 126.182H152.549Z" fill="black"/>
<path d="M179.9 148.455C177.797 148.455 175.984 147.991 174.459 147.062C172.944 146.125 171.775 144.818 170.951 143.142C170.136 141.456 169.729 139.496 169.729 137.261C169.729 135.027 170.136 133.057 170.951 131.352C171.775 129.638 172.921 128.303 174.388 127.347C175.866 126.381 177.589 125.898 179.559 125.898C180.695 125.898 181.817 126.087 182.925 126.466C184.033 126.845 185.042 127.46 185.951 128.312C186.86 129.155 187.584 130.273 188.124 131.665C188.664 133.057 188.934 134.771 188.934 136.807V138.227H172.116V135.33H185.525C185.525 134.098 185.278 133 184.786 132.034C184.303 131.068 183.612 130.306 182.712 129.747C181.822 129.188 180.771 128.909 179.559 128.909C178.224 128.909 177.068 129.241 176.093 129.903C175.127 130.557 174.384 131.409 173.863 132.46C173.342 133.511 173.082 134.638 173.082 135.841V137.773C173.082 139.42 173.366 140.817 173.934 141.963C174.511 143.099 175.312 143.966 176.334 144.562C177.357 145.15 178.546 145.443 179.9 145.443C180.78 145.443 181.576 145.32 182.286 145.074C183.006 144.818 183.626 144.439 184.147 143.938C184.668 143.426 185.07 142.792 185.354 142.034L188.593 142.943C188.252 144.042 187.679 145.008 186.874 145.841C186.069 146.665 185.075 147.309 183.891 147.773C182.707 148.227 181.377 148.455 179.9 148.455Z" fill="black"/>
<path d="M209.488 131.068L206.476 131.92C206.287 131.419 206.008 130.931 205.638 130.457C205.279 129.974 204.786 129.577 204.161 129.264C203.536 128.952 202.736 128.795 201.761 128.795C200.425 128.795 199.313 129.103 198.422 129.719C197.542 130.325 197.101 131.097 197.101 132.034C197.101 132.867 197.404 133.526 198.011 134.009C198.617 134.491 199.564 134.894 200.851 135.216L204.09 136.011C206.041 136.485 207.494 137.209 208.451 138.185C209.407 139.151 209.886 140.396 209.886 141.92C209.886 143.17 209.526 144.288 208.806 145.273C208.096 146.258 207.101 147.034 205.823 147.602C204.545 148.17 203.058 148.455 201.363 148.455C199.137 148.455 197.296 147.972 195.837 147.006C194.379 146.04 193.456 144.629 193.067 142.773L196.249 141.977C196.552 143.152 197.125 144.032 197.968 144.619C198.82 145.206 199.933 145.5 201.306 145.5C202.868 145.5 204.109 145.169 205.028 144.506C205.956 143.833 206.42 143.028 206.42 142.091C206.42 141.333 206.154 140.699 205.624 140.188C205.094 139.667 204.279 139.278 203.181 139.023L199.545 138.17C197.546 137.697 196.079 136.963 195.141 135.969C194.213 134.965 193.749 133.71 193.749 132.205C193.749 130.973 194.095 129.884 194.786 128.938C195.487 127.991 196.439 127.247 197.641 126.707C198.853 126.168 200.226 125.898 201.761 125.898C203.92 125.898 205.615 126.371 206.846 127.318C208.086 128.265 208.967 129.515 209.488 131.068Z" fill="black"/>
<path d="M128.042 166.511C129.236 166.521 130.429 166.748 131.622 167.193C132.815 167.638 133.904 168.377 134.889 169.409C135.874 170.432 136.665 171.829 137.261 173.599C137.858 175.37 138.156 177.591 138.156 180.261C138.156 182.847 137.91 185.143 137.417 187.151C136.935 189.149 136.234 190.834 135.315 192.207C134.406 193.58 133.298 194.622 131.991 195.332C130.694 196.043 129.226 196.398 127.588 196.398C125.959 196.398 124.506 196.076 123.227 195.432C121.958 194.778 120.917 193.874 120.102 192.719C119.297 191.554 118.781 190.205 118.554 188.67H122.02C122.332 190.006 122.953 191.109 123.881 191.98C124.818 192.842 126.054 193.273 127.588 193.273C129.832 193.273 131.603 192.293 132.9 190.332C134.207 188.372 134.861 185.602 134.861 182.023H134.633C134.103 182.818 133.473 183.505 132.744 184.082C132.015 184.66 131.205 185.105 130.315 185.418C129.425 185.73 128.478 185.886 127.474 185.886C125.808 185.886 124.278 185.474 122.886 184.651C121.504 183.817 120.396 182.676 119.562 181.227C118.738 179.769 118.327 178.102 118.327 176.227C118.327 174.447 118.724 172.818 119.52 171.341C120.325 169.854 121.452 168.67 122.9 167.79C124.359 166.909 126.073 166.483 128.042 166.511ZM128.042 169.636C126.849 169.636 125.774 169.935 124.818 170.531C123.871 171.118 123.118 171.914 122.56 172.918C122.01 173.912 121.736 175.015 121.736 176.227C121.736 177.439 122.001 178.543 122.531 179.537C123.071 180.522 123.805 181.308 124.733 181.895C125.67 182.473 126.736 182.761 127.929 182.761C128.828 182.761 129.667 182.586 130.443 182.236C131.22 181.876 131.897 181.388 132.474 180.773C133.061 180.148 133.521 179.442 133.852 178.656C134.184 177.861 134.349 177.032 134.349 176.17C134.349 175.034 134.075 173.969 133.525 172.974C132.986 171.98 132.238 171.175 131.281 170.56C130.334 169.944 129.255 169.636 128.042 169.636Z" fill="black"/>
<path d="M153.231 196.398C151.091 196.398 149.268 195.815 147.762 194.651C146.256 193.476 145.106 191.777 144.31 189.551C143.515 187.316 143.117 184.617 143.117 181.455C143.117 178.311 143.515 175.626 144.31 173.401C145.115 171.166 146.27 169.461 147.776 168.287C149.291 167.103 151.109 166.511 153.231 166.511C155.352 166.511 157.165 167.103 158.671 168.287C160.186 169.461 161.341 171.166 162.137 173.401C162.942 175.626 163.344 178.311 163.344 181.455C163.344 184.617 162.947 187.316 162.151 189.551C161.356 191.777 160.205 193.476 158.699 194.651C157.194 195.815 155.371 196.398 153.231 196.398ZM153.231 193.273C155.352 193.273 157 192.25 158.174 190.205C159.348 188.159 159.935 185.242 159.935 181.455C159.935 178.936 159.665 176.791 159.126 175.02C158.595 173.249 157.828 171.9 156.824 170.972C155.83 170.044 154.632 169.58 153.231 169.58C151.128 169.58 149.485 170.616 148.302 172.69C147.118 174.755 146.526 177.676 146.526 181.455C146.526 183.973 146.791 186.114 147.322 187.875C147.852 189.636 148.614 190.976 149.609 191.895C150.612 192.813 151.82 193.273 153.231 193.273Z" fill="black"/>
<path d="M183.572 190.545V189.011C183.572 187.951 183.789 186.98 184.225 186.099C184.67 185.209 185.314 184.499 186.157 183.969C187.009 183.429 188.041 183.159 189.253 183.159C190.484 183.159 191.517 183.429 192.35 183.969C193.183 184.499 193.813 185.209 194.239 186.099C194.665 186.98 194.878 187.951 194.878 189.011V190.545C194.878 191.606 194.661 192.581 194.225 193.472C193.799 194.352 193.164 195.063 192.322 195.602C191.488 196.133 190.466 196.398 189.253 196.398C188.022 196.398 186.985 196.133 186.143 195.602C185.3 195.063 184.661 194.352 184.225 193.472C183.789 192.581 183.572 191.606 183.572 190.545ZM186.469 189.011V190.545C186.469 191.426 186.678 192.217 187.094 192.918C187.511 193.609 188.231 193.955 189.253 193.955C190.248 193.955 190.948 193.609 191.356 192.918C191.772 192.217 191.981 191.426 191.981 190.545V189.011C191.981 188.131 191.782 187.345 191.384 186.653C190.986 185.953 190.276 185.602 189.253 185.602C188.259 185.602 187.544 185.953 187.109 186.653C186.682 187.345 186.469 188.131 186.469 189.011ZM169.083 173.898V172.364C169.083 171.303 169.301 170.332 169.736 169.452C170.181 168.562 170.825 167.851 171.668 167.321C172.52 166.781 173.553 166.511 174.765 166.511C175.996 166.511 177.028 166.781 177.861 167.321C178.695 167.851 179.324 168.562 179.751 169.452C180.177 170.332 180.39 171.303 180.39 172.364V173.898C180.39 174.958 180.172 175.934 179.736 176.824C179.31 177.705 178.676 178.415 177.833 178.955C177 179.485 175.977 179.75 174.765 179.75C173.534 179.75 172.497 179.485 171.654 178.955C170.811 178.415 170.172 177.705 169.736 176.824C169.301 175.934 169.083 174.958 169.083 173.898ZM171.981 172.364V173.898C171.981 174.778 172.189 175.569 172.606 176.27C173.022 176.961 173.742 177.307 174.765 177.307C175.759 177.307 176.46 176.961 176.867 176.27C177.284 175.569 177.492 174.778 177.492 173.898V172.364C177.492 171.483 177.293 170.697 176.895 170.006C176.498 169.305 175.787 168.955 174.765 168.955C173.77 168.955 173.055 169.305 172.62 170.006C172.194 170.697 171.981 171.483 171.981 172.364ZM170.163 196L190.163 166.909H193.401L173.401 196H170.163Z" fill="black"/>
</svg>
