<svg width="259" height="206" viewBox="0 0 259 206" fill="none" xmlns="http://www.w3.org/2000/svg">
<path d="M102.281 0C122.832 2.45079e-07 143.183 4.04799 162.171 11.9129C181.158 19.7777 198.41 31.3054 212.943 45.8378C227.475 60.3702 239.003 77.6226 246.868 96.6101C254.733 115.598 258.781 135.948 258.781 156.5H243.392C243.392 137.969 239.742 119.619 232.65 102.499C225.559 85.3786 215.165 69.8227 202.061 56.7193C188.958 43.6159 173.402 33.2217 156.281 26.1302C139.161 19.0387 120.812 15.3887 102.281 15.3887V0Z" fill="#EA2E44"/>
<path d="M7.95455 157L0 127.909H3.57955L9.65909 151.602H9.94318L16.1364 127.909H20.1136L26.3068 151.602H26.5909L32.6705 127.909H36.25L28.2955 157H24.6591L18.2386 133.818H18.0114L11.5909 157H7.95455Z" fill="black"/>
<path d="M40.1847 157V135.182H43.5369V157H40.1847ZM41.8892 131.545C41.2358 131.545 40.6723 131.323 40.1989 130.878C39.7348 130.433 39.5028 129.898 39.5028 129.273C39.5028 128.648 39.7348 128.113 40.1989 127.668C40.6723 127.223 41.2358 127 41.8892 127C42.5426 127 43.1013 127.223 43.5653 127.668C44.0388 128.113 44.2756 128.648 44.2756 129.273C44.2756 129.898 44.0388 130.433 43.5653 130.878C43.1013 131.323 42.5426 131.545 41.8892 131.545Z" fill="black"/>
<path d="M53.0291 127.909V157H49.6768V127.909H53.0291Z" fill="black"/>
<path d="M67.4077 157.455C65.5895 157.455 63.9844 156.995 62.5923 156.077C61.2003 155.149 60.1113 153.842 59.3253 152.156C58.5393 150.461 58.1463 148.458 58.1463 146.148C58.1463 143.856 58.5393 141.867 59.3253 140.182C60.1113 138.496 61.205 137.194 62.6065 136.276C64.008 135.357 65.6274 134.898 67.4645 134.898C68.8849 134.898 70.0071 135.134 70.831 135.608C71.6643 136.072 72.2988 136.602 72.7344 137.199C73.1795 137.786 73.5251 138.269 73.7713 138.648H74.0554V127.909H77.4077V157H74.169V153.648H73.7713C73.5251 154.045 73.1747 154.547 72.7202 155.153C72.2656 155.75 71.6169 156.285 70.7741 156.759C69.9313 157.223 68.8092 157.455 67.4077 157.455ZM67.8622 154.443C69.2069 154.443 70.3433 154.093 71.2713 153.392C72.1993 152.682 72.9048 151.702 73.3878 150.452C73.8707 149.192 74.1122 147.739 74.1122 146.091C74.1122 144.462 73.8755 143.037 73.402 141.815C72.9285 140.584 72.2277 139.628 71.2997 138.946C70.3717 138.255 69.2258 137.909 67.8622 137.909C66.4418 137.909 65.2581 138.274 64.3111 139.003C63.3736 139.723 62.6681 140.703 62.1946 141.943C61.7306 143.174 61.4986 144.557 61.4986 146.091C61.4986 147.644 61.7353 149.055 62.2088 150.324C62.6918 151.583 63.402 152.587 64.3395 153.335C65.2865 154.074 66.4607 154.443 67.8622 154.443Z" fill="black"/>
<path d="M95.7173 157V127.909H99.2401V142.341H99.581L112.649 127.909H117.251L105.036 141.034L117.251 157H112.99L102.876 143.477L99.2401 147.568V157H95.7173Z" fill="black"/>
<path d="M121.357 157V135.182H124.595V138.477H124.822C125.22 137.398 125.94 136.522 126.982 135.849C128.023 135.177 129.197 134.841 130.504 134.841C130.75 134.841 131.058 134.846 131.428 134.855C131.797 134.865 132.076 134.879 132.266 134.898V138.307C132.152 138.278 131.892 138.236 131.484 138.179C131.087 138.113 130.665 138.08 130.22 138.08C129.16 138.08 128.213 138.302 127.379 138.747C126.555 139.183 125.902 139.789 125.419 140.565C124.946 141.332 124.709 142.208 124.709 143.193V157H121.357Z" fill="black"/>
<path d="M142.66 157.511C141.277 157.511 140.022 157.251 138.896 156.73C137.769 156.2 136.874 155.437 136.211 154.443C135.548 153.439 135.217 152.227 135.217 150.807C135.217 149.557 135.463 148.544 135.955 147.767C136.448 146.981 137.106 146.366 137.93 145.92C138.754 145.475 139.663 145.144 140.657 144.926C141.661 144.699 142.669 144.519 143.683 144.386C145.008 144.216 146.083 144.088 146.907 144.003C147.74 143.908 148.346 143.752 148.725 143.534C149.113 143.316 149.308 142.937 149.308 142.398V142.284C149.308 140.883 148.924 139.794 148.157 139.017C147.399 138.241 146.249 137.852 144.705 137.852C143.105 137.852 141.85 138.203 140.941 138.903C140.032 139.604 139.393 140.352 139.023 141.148L135.842 140.011C136.41 138.686 137.167 137.653 138.114 136.915C139.071 136.167 140.112 135.646 141.239 135.352C142.376 135.049 143.493 134.898 144.592 134.898C145.292 134.898 146.097 134.983 147.006 135.153C147.925 135.314 148.81 135.651 149.663 136.162C150.524 136.673 151.239 137.445 151.808 138.477C152.376 139.509 152.66 140.892 152.66 142.625V157H149.308V154.045H149.137C148.91 154.519 148.531 155.026 148.001 155.565C147.47 156.105 146.765 156.564 145.884 156.943C145.004 157.322 143.929 157.511 142.66 157.511ZM143.171 154.5C144.497 154.5 145.614 154.24 146.523 153.719C147.442 153.198 148.133 152.526 148.597 151.702C149.071 150.878 149.308 150.011 149.308 149.102V146.034C149.165 146.205 148.853 146.361 148.37 146.503C147.897 146.635 147.347 146.754 146.722 146.858C146.107 146.953 145.505 147.038 144.918 147.114C144.341 147.18 143.872 147.237 143.512 147.284C142.641 147.398 141.826 147.582 141.069 147.838C140.321 148.084 139.715 148.458 139.251 148.96C138.796 149.453 138.569 150.125 138.569 150.977C138.569 152.142 139 153.023 139.862 153.619C140.733 154.206 141.836 154.5 143.171 154.5Z" fill="black"/>
<path d="M168.267 135.182V138.023H156.96V135.182H168.267ZM160.256 129.955H163.608V150.75C163.608 151.697 163.745 152.407 164.02 152.881C164.304 153.345 164.664 153.657 165.099 153.818C165.545 153.97 166.013 154.045 166.506 154.045C166.875 154.045 167.178 154.027 167.415 153.989C167.652 153.941 167.841 153.903 167.983 153.875L168.665 156.886C168.438 156.972 168.12 157.057 167.713 157.142C167.306 157.237 166.79 157.284 166.165 157.284C165.218 157.284 164.29 157.08 163.381 156.673C162.481 156.266 161.733 155.646 161.136 154.812C160.549 153.979 160.256 152.928 160.256 151.659V129.955Z" fill="black"/>
<path d="M182.798 135.182V138.023H171.491V135.182H182.798ZM174.787 129.955H178.139V150.75C178.139 151.697 178.277 152.407 178.551 152.881C178.835 153.345 179.195 153.657 179.631 153.818C180.076 153.97 180.545 154.045 181.037 154.045C181.406 154.045 181.709 154.027 181.946 153.989C182.183 153.941 182.372 153.903 182.514 153.875L183.196 156.886C182.969 156.972 182.652 157.057 182.244 157.142C181.837 157.237 181.321 157.284 180.696 157.284C179.749 157.284 178.821 157.08 177.912 156.673C177.012 156.266 176.264 155.646 175.668 154.812C175.08 153.979 174.787 152.928 174.787 151.659V129.955Z" fill="black"/>
<path d="M187.216 157V154.443L199.602 138.534V138.307H187.614V135.182H203.92V137.852L191.875 153.648V153.875H204.318V157H187.216Z" fill="black"/>
<path d="M65.2646 205V202.443L74.8668 191.932C75.9937 190.701 76.9218 189.631 77.6509 188.722C78.3801 187.803 78.9199 186.941 79.2702 186.136C79.6301 185.322 79.81 184.47 79.81 183.58C79.81 182.557 79.5638 181.671 79.0714 180.923C78.5884 180.175 77.9255 179.598 77.0827 179.19C76.2399 178.783 75.293 178.58 74.2418 178.58C73.1244 178.58 72.149 178.812 71.3157 179.276C70.4918 179.73 69.8526 180.369 69.3981 181.193C68.953 182.017 68.7305 182.983 68.7305 184.091H65.3782C65.3782 182.386 65.7712 180.89 66.5572 179.602C67.3432 178.314 68.4132 177.311 69.7674 176.591C71.131 175.871 72.6604 175.511 74.3555 175.511C76.06 175.511 77.5704 175.871 78.8867 176.591C80.203 177.311 81.2352 178.281 81.9833 179.503C82.7314 180.724 83.1055 182.083 83.1055 183.58C83.1055 184.65 82.9113 185.696 82.5231 186.719C82.1443 187.732 81.4814 188.864 80.5344 190.114C79.5969 191.354 78.2949 192.869 76.6282 194.659L70.0941 201.648V201.875H83.6168V205H65.2646Z" fill="black"/>
<path d="M98.5742 205.398C96.9076 205.398 95.4066 205.066 94.0714 204.403C92.7362 203.741 91.6661 202.831 90.8612 201.676C90.0562 200.521 89.6159 199.205 89.5401 197.727H92.9492C93.0818 199.044 93.6784 200.133 94.739 200.994C95.8091 201.847 97.0875 202.273 98.5742 202.273C99.7674 202.273 100.828 201.993 101.756 201.435C102.694 200.876 103.427 200.109 103.958 199.134C104.498 198.149 104.767 197.036 104.767 195.795C104.767 194.527 104.488 193.395 103.929 192.401C103.38 191.397 102.623 190.606 101.657 190.028C100.691 189.451 99.5875 189.157 98.3469 189.148C97.4568 189.138 96.543 189.276 95.6055 189.56C94.668 189.834 93.8962 190.189 93.2901 190.625L89.9947 190.227L91.756 175.909H106.87V179.034H94.7106L93.6879 187.614H93.8583C94.4549 187.14 95.203 186.747 96.1026 186.435C97.0023 186.122 97.9398 185.966 98.9151 185.966C100.695 185.966 102.282 186.392 103.674 187.244C105.075 188.087 106.174 189.242 106.969 190.71C107.774 192.178 108.176 193.854 108.176 195.739C108.176 197.595 107.76 199.252 106.926 200.71C106.103 202.159 104.966 203.305 103.517 204.148C102.069 204.981 100.421 205.398 98.5742 205.398Z" fill="black"/>
<path d="M128.649 199.545V198.011C128.649 196.951 128.867 195.98 129.302 195.099C129.747 194.209 130.391 193.499 131.234 192.969C132.086 192.429 133.118 192.159 134.331 192.159C135.562 192.159 136.594 192.429 137.427 192.969C138.261 193.499 138.89 194.209 139.316 195.099C139.743 195.98 139.956 196.951 139.956 198.011V199.545C139.956 200.606 139.738 201.581 139.302 202.472C138.876 203.352 138.242 204.063 137.399 204.602C136.565 205.133 135.543 205.398 134.331 205.398C133.1 205.398 132.063 205.133 131.22 204.602C130.377 204.063 129.738 203.352 129.302 202.472C128.867 201.581 128.649 200.606 128.649 199.545ZM131.547 198.011V199.545C131.547 200.426 131.755 201.217 132.172 201.918C132.588 202.609 133.308 202.955 134.331 202.955C135.325 202.955 136.026 202.609 136.433 201.918C136.85 201.217 137.058 200.426 137.058 199.545V198.011C137.058 197.131 136.859 196.345 136.461 195.653C136.064 194.953 135.353 194.602 134.331 194.602C133.336 194.602 132.621 194.953 132.186 195.653C131.76 196.345 131.547 197.131 131.547 198.011ZM114.16 182.898V181.364C114.16 180.303 114.378 179.332 114.814 178.452C115.259 177.562 115.903 176.851 116.745 176.321C117.598 175.781 118.63 175.511 119.842 175.511C121.073 175.511 122.105 175.781 122.939 176.321C123.772 176.851 124.402 177.562 124.828 178.452C125.254 179.332 125.467 180.303 125.467 181.364V182.898C125.467 183.958 125.249 184.934 124.814 185.824C124.387 186.705 123.753 187.415 122.91 187.955C122.077 188.485 121.054 188.75 119.842 188.75C118.611 188.75 117.574 188.485 116.731 187.955C115.888 187.415 115.249 186.705 114.814 185.824C114.378 184.934 114.16 183.958 114.16 182.898ZM117.058 181.364V182.898C117.058 183.778 117.266 184.569 117.683 185.27C118.1 185.961 118.819 186.307 119.842 186.307C120.836 186.307 121.537 185.961 121.944 185.27C122.361 184.569 122.569 183.778 122.569 182.898V181.364C122.569 180.483 122.37 179.697 121.973 179.006C121.575 178.305 120.865 177.955 119.842 177.955C118.848 177.955 118.133 178.305 117.697 179.006C117.271 179.697 117.058 180.483 117.058 181.364ZM115.24 205L135.24 175.909H138.478L118.478 205H115.24Z" fill="black"/>
</svg>
