<svg width="313" height="313" viewBox="0 0 313 313" fill="none" xmlns="http://www.w3.org/2000/svg">
<path d="M156.5 0C193.76 4.44314e-07 229.797 13.2933 258.131 37.4894C286.465 61.6855 305.236 95.1966 311.07 131.997C316.904 168.796 309.417 206.47 289.955 238.243C270.494 270.016 240.335 293.803 204.903 305.327C169.47 316.851 131.089 315.355 96.6606 301.108C62.2324 286.861 34.0166 260.799 17.0874 227.608C0.158092 194.416 -4.37384 156.274 4.30655 120.04C12.9869 83.8058 34.3101 51.8574 64.4414 29.9401L73.4936 42.3847C46.3251 62.1469 27.0986 90.9538 19.2718 123.625C11.445 156.296 15.5313 190.688 30.7959 220.616C46.0605 250.543 71.5018 274.043 102.545 286.889C133.587 299.734 168.195 301.083 200.143 290.693C232.092 280.302 259.285 258.854 276.833 230.205C294.38 201.557 301.131 167.587 295.871 134.406C290.611 101.225 273.685 71.0086 248.137 49.1918C222.589 27.3749 190.096 15.3887 156.5 15.3887V0Z" fill="#2EEA3B"/>
<path d="M21.8823 148V118.909H31.7119C33.9846 118.909 35.8501 119.297 37.3084 120.074C38.7668 120.841 39.8463 121.897 40.5471 123.241C41.2478 124.586 41.5982 126.116 41.5982 127.83C41.5982 129.544 41.2478 131.063 40.5471 132.389C39.8463 133.715 38.7715 134.757 37.3227 135.514C35.8738 136.262 34.0225 136.636 31.7687 136.636H23.8141V133.455H31.655C33.2081 133.455 34.4581 133.227 35.405 132.773C36.3615 132.318 37.0528 131.674 37.4789 130.841C37.9145 129.998 38.1323 128.994 38.1323 127.83C38.1323 126.665 37.9145 125.647 37.4789 124.776C37.0433 123.904 36.3473 123.232 35.3908 122.759C34.4344 122.276 33.1702 122.034 31.5982 122.034H25.405V148H21.8823ZM35.5755 134.932L42.7346 148H38.6437L31.5982 134.932H35.5755Z" fill="black"/>
<path d="M55.643 148.455C53.6733 148.455 51.9451 147.986 50.4583 147.048C48.981 146.111 47.8257 144.799 46.9924 143.114C46.1685 141.428 45.7566 139.458 45.7566 137.205C45.7566 134.932 46.1685 132.948 46.9924 131.253C47.8257 129.558 48.981 128.241 50.4583 127.304C51.9451 126.366 53.6733 125.898 55.643 125.898C57.6127 125.898 59.3361 126.366 60.8134 127.304C62.3002 128.241 63.4555 129.558 64.2793 131.253C65.1127 132.948 65.5293 134.932 65.5293 137.205C65.5293 139.458 65.1127 141.428 64.2793 143.114C63.4555 144.799 62.3002 146.111 60.8134 147.048C59.3361 147.986 57.6127 148.455 55.643 148.455ZM55.643 145.443C57.1392 145.443 58.3702 145.06 59.3362 144.293C60.3021 143.526 61.017 142.517 61.481 141.267C61.9451 140.017 62.1771 138.663 62.1771 137.205C62.1771 135.746 61.9451 134.387 61.481 133.128C61.017 131.868 60.3021 130.85 59.3362 130.074C58.3702 129.297 57.1392 128.909 55.643 128.909C54.1468 128.909 52.9157 129.297 51.9498 130.074C50.9839 130.85 50.2689 131.868 49.8049 133.128C49.3409 134.387 49.1089 135.746 49.1089 137.205C49.1089 138.663 49.3409 140.017 49.8049 141.267C50.2689 142.517 50.9839 143.526 51.9498 144.293C52.9157 145.06 54.1468 145.443 55.643 145.443Z" fill="black"/>
<path d="M70.6465 148V126.182H73.8852V129.591H74.1692C74.6238 128.426 75.3577 127.522 76.3709 126.878C77.3842 126.224 78.6011 125.898 80.0215 125.898C81.4609 125.898 82.6588 126.224 83.6153 126.878C84.5812 127.522 85.334 128.426 85.8738 129.591H86.1011C86.6598 128.464 87.4978 127.569 88.6153 126.906C89.7327 126.234 91.0727 125.898 92.6352 125.898C94.5859 125.898 96.1816 126.509 97.4221 127.73C98.6626 128.942 99.2829 130.831 99.2829 133.398V148H95.9306V133.398C95.9306 131.788 95.4903 130.637 94.6096 129.946C93.7289 129.255 92.692 128.909 91.4988 128.909C89.9647 128.909 88.7763 129.373 87.9334 130.301C87.0906 131.22 86.6693 132.384 86.6693 133.795V148H83.2602V133.057C83.2602 131.816 82.8577 130.817 82.0528 130.06C81.2478 129.293 80.2109 128.909 78.942 128.909C78.0708 128.909 77.2564 129.141 76.4988 129.605C75.7507 130.069 75.1446 130.713 74.6806 131.537C74.2261 132.351 73.9988 133.294 73.9988 134.364V148H70.6465Z" fill="black"/>
<path d="M111.833 148.511C110.45 148.511 109.195 148.251 108.068 147.73C106.941 147.2 106.047 146.437 105.384 145.443C104.721 144.439 104.389 143.227 104.389 141.807C104.389 140.557 104.636 139.544 105.128 138.767C105.62 137.981 106.279 137.366 107.102 136.92C107.926 136.475 108.835 136.144 109.83 135.926C110.834 135.699 111.842 135.519 112.855 135.386C114.181 135.216 115.256 135.088 116.08 135.003C116.913 134.908 117.519 134.752 117.898 134.534C118.286 134.316 118.48 133.937 118.48 133.398V133.284C118.48 131.883 118.097 130.794 117.33 130.017C116.572 129.241 115.422 128.852 113.878 128.852C112.278 128.852 111.023 129.203 110.114 129.903C109.205 130.604 108.566 131.352 108.196 132.148L105.014 131.011C105.583 129.686 106.34 128.653 107.287 127.915C108.244 127.167 109.285 126.646 110.412 126.352C111.549 126.049 112.666 125.898 113.764 125.898C114.465 125.898 115.27 125.983 116.179 126.153C117.098 126.314 117.983 126.651 118.835 127.162C119.697 127.673 120.412 128.445 120.98 129.477C121.549 130.509 121.833 131.892 121.833 133.625V148H118.48V145.045H118.31C118.083 145.519 117.704 146.026 117.174 146.565C116.643 147.105 115.938 147.564 115.057 147.943C114.176 148.322 113.102 148.511 111.833 148.511ZM112.344 145.5C113.67 145.5 114.787 145.24 115.696 144.719C116.615 144.198 117.306 143.526 117.77 142.702C118.244 141.878 118.48 141.011 118.48 140.102V137.034C118.338 137.205 118.026 137.361 117.543 137.503C117.069 137.635 116.52 137.754 115.895 137.858C115.28 137.953 114.678 138.038 114.091 138.114C113.513 138.18 113.045 138.237 112.685 138.284C111.814 138.398 110.999 138.582 110.242 138.838C109.494 139.084 108.888 139.458 108.424 139.96C107.969 140.453 107.742 141.125 107.742 141.977C107.742 143.142 108.173 144.023 109.034 144.619C109.906 145.206 111.009 145.5 112.344 145.5Z" fill="black"/>
<path d="M131.303 134.875V148H127.951V126.182H131.19V129.591H131.474C131.985 128.483 132.762 127.593 133.803 126.92C134.845 126.239 136.19 125.898 137.838 125.898C139.315 125.898 140.607 126.201 141.715 126.807C142.823 127.403 143.685 128.312 144.301 129.534C144.916 130.746 145.224 132.28 145.224 134.136V148H141.872V134.364C141.872 132.65 141.427 131.314 140.536 130.358C139.646 129.392 138.425 128.909 136.872 128.909C135.802 128.909 134.845 129.141 134.002 129.605C133.169 130.069 132.511 130.746 132.028 131.636C131.545 132.527 131.303 133.606 131.303 134.875Z" fill="black"/>
<path d="M186.463 128H182.941C182.732 126.987 182.368 126.097 181.847 125.33C181.335 124.562 180.71 123.919 179.972 123.398C179.243 122.867 178.433 122.47 177.543 122.205C176.653 121.939 175.725 121.807 174.759 121.807C172.997 121.807 171.402 122.252 169.972 123.142C168.551 124.032 167.42 125.344 166.577 127.077C165.744 128.81 165.327 130.936 165.327 133.455C165.327 135.973 165.744 138.099 166.577 139.832C167.42 141.565 168.551 142.877 169.972 143.767C171.402 144.657 172.997 145.102 174.759 145.102C175.725 145.102 176.653 144.97 177.543 144.705C178.433 144.439 179.243 144.046 179.972 143.526C180.71 142.995 181.335 142.347 181.847 141.58C182.368 140.803 182.732 139.913 182.941 138.909H186.463C186.198 140.396 185.715 141.726 185.014 142.901C184.314 144.075 183.442 145.074 182.401 145.898C181.359 146.712 180.19 147.332 178.892 147.759C177.604 148.185 176.227 148.398 174.759 148.398C172.278 148.398 170.071 147.792 168.139 146.58C166.208 145.367 164.688 143.644 163.58 141.409C162.472 139.174 161.918 136.523 161.918 133.455C161.918 130.386 162.472 127.735 163.58 125.5C164.688 123.265 166.208 121.542 168.139 120.33C170.071 119.117 172.278 118.511 174.759 118.511C176.227 118.511 177.604 118.724 178.892 119.151C180.19 119.577 181.359 120.202 182.401 121.026C183.442 121.84 184.314 122.834 185.014 124.009C185.715 125.173 186.198 126.504 186.463 128Z" fill="black"/>
<path d="M205.451 139.08V126.182H208.803V148H205.451V144.307H205.224C204.713 145.415 203.917 146.357 202.838 147.134C201.758 147.901 200.394 148.284 198.747 148.284C197.383 148.284 196.171 147.986 195.11 147.389C194.05 146.783 193.216 145.874 192.61 144.662C192.004 143.44 191.701 141.902 191.701 140.045V126.182H195.053V139.818C195.053 141.409 195.499 142.678 196.389 143.625C197.288 144.572 198.434 145.045 199.826 145.045C200.66 145.045 201.507 144.832 202.369 144.406C203.24 143.98 203.969 143.327 204.556 142.446C205.153 141.565 205.451 140.443 205.451 139.08Z" fill="black"/>
<path d="M218.296 118.909V148H214.943V118.909H218.296Z" fill="black"/>
<path d="M233.924 126.182V129.023H222.617V126.182H233.924ZM225.913 120.955H229.265V141.75C229.265 142.697 229.402 143.407 229.677 143.881C229.961 144.345 230.321 144.657 230.757 144.818C231.202 144.97 231.67 145.045 232.163 145.045C232.532 145.045 232.835 145.027 233.072 144.989C233.309 144.941 233.498 144.903 233.64 144.875L234.322 147.886C234.095 147.972 233.777 148.057 233.37 148.142C232.963 148.237 232.447 148.284 231.822 148.284C230.875 148.284 229.947 148.08 229.038 147.673C228.138 147.266 227.39 146.646 226.794 145.812C226.206 144.979 225.913 143.928 225.913 142.659V120.955Z" fill="black"/>
<path d="M252.717 139.08V126.182H256.069V148H252.717V144.307H252.49C251.978 145.415 251.183 146.357 250.103 147.134C249.024 147.901 247.66 148.284 246.012 148.284C244.649 148.284 243.437 147.986 242.376 147.389C241.315 146.783 240.482 145.874 239.876 144.662C239.27 143.44 238.967 141.902 238.967 140.045V126.182H242.319V139.818C242.319 141.409 242.764 142.678 243.654 143.625C244.554 144.572 245.7 145.045 247.092 145.045C247.925 145.045 248.773 144.832 249.634 144.406C250.506 143.98 251.235 143.327 251.822 142.446C252.419 141.565 252.717 140.443 252.717 139.08Z" fill="black"/>
<path d="M262.209 148V126.182H265.448V129.477H265.675C266.073 128.398 266.792 127.522 267.834 126.849C268.876 126.177 270.05 125.841 271.357 125.841C271.603 125.841 271.911 125.846 272.28 125.855C272.649 125.865 272.929 125.879 273.118 125.898V129.307C273.004 129.278 272.744 129.236 272.337 129.179C271.939 129.113 271.518 129.08 271.073 129.08C270.012 129.08 269.065 129.302 268.232 129.747C267.408 130.183 266.754 130.789 266.272 131.565C265.798 132.332 265.561 133.208 265.561 134.193V148H262.209Z" fill="black"/>
<path d="M285.576 148.455C283.473 148.455 281.66 147.991 280.135 147.062C278.62 146.125 277.45 144.818 276.627 143.142C275.812 141.456 275.405 139.496 275.405 137.261C275.405 135.027 275.812 133.057 276.627 131.352C277.45 129.638 278.596 128.303 280.064 127.347C281.541 126.381 283.265 125.898 285.235 125.898C286.371 125.898 287.493 126.087 288.601 126.466C289.709 126.845 290.718 127.46 291.627 128.312C292.536 129.155 293.26 130.273 293.8 131.665C294.34 133.057 294.61 134.771 294.61 136.807V138.227H277.791V135.33H291.201C291.201 134.098 290.954 133 290.462 132.034C289.979 131.068 289.288 130.306 288.388 129.747C287.498 129.188 286.447 128.909 285.235 128.909C283.899 128.909 282.744 129.241 281.769 129.903C280.803 130.557 280.059 131.409 279.539 132.46C279.018 133.511 278.757 134.638 278.757 135.841V137.773C278.757 139.42 279.041 140.817 279.61 141.963C280.187 143.099 280.987 143.966 282.01 144.562C283.033 145.15 284.221 145.443 285.576 145.443C286.456 145.443 287.252 145.32 287.962 145.074C288.682 144.818 289.302 144.439 289.823 143.938C290.343 143.426 290.746 142.792 291.03 142.034L294.269 142.943C293.928 144.042 293.355 145.008 292.55 145.841C291.745 146.665 290.751 147.309 289.567 147.773C288.383 148.227 287.053 148.455 285.576 148.455Z" fill="black"/>
<path d="M128.542 166.511C129.736 166.521 130.929 166.748 132.122 167.193C133.315 167.638 134.404 168.377 135.389 169.409C136.374 170.432 137.165 171.829 137.761 173.599C138.358 175.37 138.656 177.591 138.656 180.261C138.656 182.847 138.41 185.143 137.917 187.151C137.435 189.149 136.734 190.834 135.815 192.207C134.906 193.58 133.798 194.622 132.491 195.332C131.194 196.043 129.726 196.398 128.088 196.398C126.459 196.398 125.006 196.076 123.727 195.432C122.458 194.778 121.417 193.874 120.602 192.719C119.797 191.554 119.281 190.205 119.054 188.67H122.52C122.832 190.006 123.453 191.109 124.381 191.98C125.318 192.842 126.554 193.273 128.088 193.273C130.332 193.273 132.103 192.293 133.4 190.332C134.707 188.372 135.361 185.602 135.361 182.023H135.133C134.603 182.818 133.973 183.505 133.244 184.082C132.515 184.66 131.705 185.105 130.815 185.418C129.925 185.73 128.978 185.886 127.974 185.886C126.308 185.886 124.778 185.474 123.386 184.651C122.004 183.817 120.896 182.676 120.062 181.227C119.238 179.769 118.827 178.102 118.827 176.227C118.827 174.447 119.224 172.818 120.02 171.341C120.825 169.854 121.952 168.67 123.4 167.79C124.859 166.909 126.573 166.483 128.542 166.511ZM128.542 169.636C127.349 169.636 126.274 169.935 125.318 170.531C124.371 171.118 123.618 171.914 123.06 172.918C122.51 173.912 122.236 175.015 122.236 176.227C122.236 177.439 122.501 178.543 123.031 179.537C123.571 180.522 124.305 181.308 125.233 181.895C126.17 182.473 127.236 182.761 128.429 182.761C129.328 182.761 130.167 182.586 130.943 182.236C131.72 181.876 132.397 181.388 132.974 180.773C133.561 180.148 134.021 179.442 134.352 178.656C134.684 177.861 134.849 177.032 134.849 176.17C134.849 175.034 134.575 173.969 134.025 172.974C133.486 171.98 132.738 171.175 131.781 170.56C130.834 169.944 129.755 169.636 128.542 169.636Z" fill="black"/>
<path d="M153.731 196.398C151.591 196.398 149.768 195.815 148.262 194.651C146.756 193.476 145.606 191.777 144.81 189.551C144.015 187.316 143.617 184.617 143.617 181.455C143.617 178.311 144.015 175.626 144.81 173.401C145.615 171.166 146.77 169.461 148.276 168.287C149.791 167.103 151.609 166.511 153.731 166.511C155.852 166.511 157.665 167.103 159.171 168.287C160.686 169.461 161.841 171.166 162.637 173.401C163.442 175.626 163.844 178.311 163.844 181.455C163.844 184.617 163.447 187.316 162.651 189.551C161.856 191.777 160.705 193.476 159.199 194.651C157.694 195.815 155.871 196.398 153.731 196.398ZM153.731 193.273C155.852 193.273 157.5 192.25 158.674 190.205C159.848 188.159 160.435 185.242 160.435 181.455C160.435 178.936 160.165 176.791 159.626 175.02C159.095 173.249 158.328 171.9 157.324 170.972C156.33 170.044 155.132 169.58 153.731 169.58C151.628 169.58 149.985 170.616 148.802 172.69C147.618 174.755 147.026 177.676 147.026 181.455C147.026 183.973 147.291 186.114 147.822 187.875C148.352 189.636 149.114 190.976 150.109 191.895C151.112 192.813 152.32 193.273 153.731 193.273Z" fill="black"/>
<path d="M184.072 190.545V189.011C184.072 187.951 184.289 186.98 184.725 186.099C185.17 185.209 185.814 184.499 186.657 183.969C187.509 183.429 188.541 183.159 189.753 183.159C190.984 183.159 192.017 183.429 192.85 183.969C193.683 184.499 194.313 185.209 194.739 186.099C195.165 186.98 195.378 187.951 195.378 189.011V190.545C195.378 191.606 195.161 192.581 194.725 193.472C194.299 194.352 193.664 195.063 192.822 195.602C191.988 196.133 190.966 196.398 189.753 196.398C188.522 196.398 187.485 196.133 186.643 195.602C185.8 195.063 185.161 194.352 184.725 193.472C184.289 192.581 184.072 191.606 184.072 190.545ZM186.969 189.011V190.545C186.969 191.426 187.178 192.217 187.594 192.918C188.011 193.609 188.731 193.955 189.753 193.955C190.748 193.955 191.448 193.609 191.856 192.918C192.272 192.217 192.481 191.426 192.481 190.545V189.011C192.481 188.131 192.282 187.345 191.884 186.653C191.486 185.953 190.776 185.602 189.753 185.602C188.759 185.602 188.044 185.953 187.609 186.653C187.182 187.345 186.969 188.131 186.969 189.011ZM169.583 173.898V172.364C169.583 171.303 169.801 170.332 170.236 169.452C170.681 168.562 171.325 167.851 172.168 167.321C173.02 166.781 174.053 166.511 175.265 166.511C176.496 166.511 177.528 166.781 178.361 167.321C179.195 167.851 179.824 168.562 180.251 169.452C180.677 170.332 180.89 171.303 180.89 172.364V173.898C180.89 174.958 180.672 175.934 180.236 176.824C179.81 177.705 179.176 178.415 178.333 178.955C177.5 179.485 176.477 179.75 175.265 179.75C174.034 179.75 172.997 179.485 172.154 178.955C171.311 178.415 170.672 177.705 170.236 176.824C169.801 175.934 169.583 174.958 169.583 173.898ZM172.481 172.364V173.898C172.481 174.778 172.689 175.569 173.106 176.27C173.522 176.961 174.242 177.307 175.265 177.307C176.259 177.307 176.96 176.961 177.367 176.27C177.784 175.569 177.992 174.778 177.992 173.898V172.364C177.992 171.483 177.793 170.697 177.395 170.006C176.998 169.305 176.287 168.955 175.265 168.955C174.27 168.955 173.555 169.305 173.12 170.006C172.694 170.697 172.481 171.483 172.481 172.364ZM170.663 196L190.663 166.909H193.901L173.901 196H170.663Z" fill="black"/>
</svg>
