<svg width="292" height="313" viewBox="0 0 292 313" fill="none" xmlns="http://www.w3.org/2000/svg">
<path d="M134.618 0C159.307 2.94414e-07 183.646 5.84123 205.646 17.0464C227.646 28.2516 246.682 44.5028 261.2 64.4722C275.719 84.4415 285.306 107.562 289.18 131.946C293.053 156.329 291.103 181.283 283.488 204.768C275.874 228.254 262.81 249.605 245.366 267.076C227.922 284.547 206.592 297.644 183.118 305.295C159.645 312.946 134.694 314.935 110.304 311.1C85.9151 307.264 62.7793 297.713 42.7873 283.226L51.8171 270.765C69.8432 283.827 90.7041 292.44 112.695 295.898C134.686 299.356 157.184 297.563 178.349 290.664C199.514 283.765 218.747 271.956 234.476 256.203C250.205 240.45 261.984 221.198 268.85 200.022C275.716 178.846 277.474 156.346 273.982 134.36C270.489 112.375 261.844 91.5271 248.753 73.5213C235.663 55.5155 218.498 40.8623 198.661 30.7589C178.825 20.6556 156.879 15.3887 134.618 15.3887V0Z" fill="#EAB52E"/>
<path d="M0 166V136.909H9.82955C12.1023 136.909 13.9678 137.297 15.4261 138.074C16.8845 138.841 17.964 139.897 18.6648 141.241C19.3655 142.586 19.7159 144.116 19.7159 145.83C19.7159 147.544 19.3655 149.063 18.6648 150.389C17.964 151.715 16.8892 152.757 15.4403 153.514C13.9915 154.262 12.1402 154.636 9.88636 154.636H1.93182V151.455H9.77273C11.3258 151.455 12.5758 151.227 13.5227 150.773C14.4792 150.318 15.1705 149.674 15.5966 148.841C16.0322 147.998 16.25 146.994 16.25 145.83C16.25 144.665 16.0322 143.647 15.5966 142.776C15.161 141.904 14.465 141.232 13.5085 140.759C12.5521 140.276 11.2879 140.034 9.71591 140.034H3.52273V166H0ZM13.6932 152.932L20.8523 166H16.7614L9.71591 152.932H13.6932Z" fill="black"/>
<path d="M33.7607 166.455C31.791 166.455 30.0627 165.986 28.576 165.048C27.0987 164.111 25.9434 162.799 25.1101 161.114C24.2862 159.428 23.8743 157.458 23.8743 155.205C23.8743 152.932 24.2862 150.948 25.1101 149.253C25.9434 147.558 27.0987 146.241 28.576 145.304C30.0627 144.366 31.791 143.898 33.7607 143.898C35.7304 143.898 37.4538 144.366 38.9311 145.304C40.4179 146.241 41.5732 147.558 42.397 149.253C43.2304 150.948 43.647 152.932 43.647 155.205C43.647 157.458 43.2304 159.428 42.397 161.114C41.5732 162.799 40.4179 164.111 38.9311 165.048C37.4538 165.986 35.7304 166.455 33.7607 166.455ZM33.7607 163.443C35.2569 163.443 36.4879 163.06 37.4538 162.293C38.4197 161.526 39.1347 160.517 39.5987 159.267C40.0627 158.017 40.2947 156.663 40.2947 155.205C40.2947 153.746 40.0627 152.387 39.5987 151.128C39.1347 149.868 38.4197 148.85 37.4538 148.074C36.4879 147.297 35.2569 146.909 33.7607 146.909C32.2644 146.909 31.0334 147.297 30.0675 148.074C29.1016 148.85 28.3866 149.868 27.9226 151.128C27.4586 152.387 27.2266 153.746 27.2266 155.205C27.2266 156.663 27.4586 158.017 27.9226 159.267C28.3866 160.517 29.1016 161.526 30.0675 162.293C31.0334 163.06 32.2644 163.443 33.7607 163.443Z" fill="black"/>
<path d="M48.7642 166V144.182H52.0028V147.591H52.2869C52.7415 146.426 53.4754 145.522 54.4886 144.878C55.5019 144.224 56.7188 143.898 58.1392 143.898C59.5786 143.898 60.7765 144.224 61.733 144.878C62.6989 145.522 63.4517 146.426 63.9915 147.591H64.2188C64.7775 146.464 65.6155 145.569 66.733 144.906C67.8504 144.234 69.1903 143.898 70.7528 143.898C72.7036 143.898 74.2992 144.509 75.5398 145.73C76.7803 146.942 77.4006 148.831 77.4006 151.398V166H74.0483V151.398C74.0483 149.788 73.608 148.637 72.7273 147.946C71.8466 147.255 70.8097 146.909 69.6165 146.909C68.0824 146.909 66.8939 147.373 66.0511 148.301C65.2083 149.22 64.7869 150.384 64.7869 151.795V166H61.3778V151.057C61.3778 149.816 60.9754 148.817 60.1705 148.06C59.3655 147.293 58.3286 146.909 57.0597 146.909C56.1884 146.909 55.3741 147.141 54.6165 147.605C53.8684 148.069 53.2623 148.713 52.7983 149.537C52.3437 150.351 52.1165 151.294 52.1165 152.364V166H48.7642Z" fill="black"/>
<path d="M89.9503 166.511C88.5677 166.511 87.313 166.251 86.1861 165.73C85.0592 165.2 84.1643 164.437 83.5014 163.443C82.8385 162.439 82.5071 161.227 82.5071 159.807C82.5071 158.557 82.7533 157.544 83.2457 156.767C83.7382 155.981 84.3963 155.366 85.2202 154.92C86.044 154.475 86.9531 154.144 87.9474 153.926C88.9512 153.699 89.9598 153.519 90.973 153.386C92.2988 153.216 93.3736 153.088 94.1974 153.003C95.0308 152.908 95.6368 152.752 96.0156 152.534C96.4039 152.316 96.598 151.937 96.598 151.398V151.284C96.598 149.883 96.2145 148.794 95.4474 148.017C94.6899 147.241 93.5393 146.852 91.9957 146.852C90.3954 146.852 89.1406 147.203 88.2315 147.903C87.3224 148.604 86.6832 149.352 86.3139 150.148L83.1321 149.011C83.7003 147.686 84.4579 146.653 85.4048 145.915C86.3613 145.167 87.4029 144.646 88.5298 144.352C89.6662 144.049 90.7836 143.898 91.8821 143.898C92.5829 143.898 93.3878 143.983 94.2969 144.153C95.2154 144.314 96.1009 144.651 96.9531 145.162C97.8149 145.673 98.5298 146.445 99.098 147.477C99.6662 148.509 99.9503 149.892 99.9503 151.625V166H96.598V163.045H96.4276C96.2003 163.519 95.8215 164.026 95.2912 164.565C94.7609 165.105 94.0554 165.564 93.1747 165.943C92.294 166.322 91.2192 166.511 89.9503 166.511ZM90.4616 163.5C91.7874 163.5 92.9048 163.24 93.8139 162.719C94.7325 162.198 95.4238 161.526 95.8878 160.702C96.3613 159.878 96.598 159.011 96.598 158.102V155.034C96.456 155.205 96.1435 155.361 95.6605 155.503C95.187 155.635 94.6378 155.754 94.0128 155.858C93.3973 155.953 92.7959 156.038 92.2088 156.114C91.6312 156.18 91.1624 156.237 90.8026 156.284C89.9313 156.398 89.117 156.582 88.3594 156.838C87.6113 157.084 87.0052 157.458 86.5412 157.96C86.0866 158.453 85.8594 159.125 85.8594 159.977C85.8594 161.142 86.2902 162.023 87.152 162.619C88.0232 163.206 89.1264 163.5 90.4616 163.5Z" fill="black"/>
<path d="M109.421 152.875V166H106.069V144.182H109.308V147.591H109.592C110.103 146.483 110.879 145.593 111.921 144.92C112.963 144.239 114.308 143.898 115.955 143.898C117.433 143.898 118.725 144.201 119.833 144.807C120.941 145.403 121.803 146.312 122.418 147.534C123.034 148.746 123.342 150.28 123.342 152.136V166H119.989V152.364C119.989 150.65 119.544 149.314 118.654 148.358C117.764 147.392 116.542 146.909 114.989 146.909C113.919 146.909 112.963 147.141 112.12 147.605C111.287 148.069 110.629 148.746 110.146 149.636C109.663 150.527 109.421 151.606 109.421 152.875Z" fill="black"/>
<path d="M164.581 146H161.058C160.85 144.987 160.485 144.097 159.964 143.33C159.453 142.562 158.828 141.919 158.089 141.398C157.36 140.867 156.551 140.47 155.661 140.205C154.77 139.939 153.842 139.807 152.876 139.807C151.115 139.807 149.519 140.252 148.089 141.142C146.669 142.032 145.537 143.344 144.695 145.077C143.861 146.81 143.445 148.936 143.445 151.455C143.445 153.973 143.861 156.099 144.695 157.832C145.537 159.565 146.669 160.877 148.089 161.767C149.519 162.657 151.115 163.102 152.876 163.102C153.842 163.102 154.77 162.97 155.661 162.705C156.551 162.439 157.36 162.046 158.089 161.526C158.828 160.995 159.453 160.347 159.964 159.58C160.485 158.803 160.85 157.913 161.058 156.909H164.581C164.316 158.396 163.833 159.726 163.132 160.901C162.431 162.075 161.56 163.074 160.518 163.898C159.477 164.712 158.307 165.332 157.01 165.759C155.722 166.185 154.344 166.398 152.876 166.398C150.395 166.398 148.189 165.792 146.257 164.58C144.325 163.367 142.805 161.644 141.697 159.409C140.589 157.174 140.036 154.523 140.036 151.455C140.036 148.386 140.589 145.735 141.697 143.5C142.805 141.265 144.325 139.542 146.257 138.33C148.189 137.117 150.395 136.511 152.876 136.511C154.344 136.511 155.722 136.724 157.01 137.151C158.307 137.577 159.477 138.202 160.518 139.026C161.56 139.84 162.431 140.834 163.132 142.009C163.833 143.173 164.316 144.504 164.581 146Z" fill="black"/>
<path d="M183.569 157.08V144.182H186.921V166H183.569V162.307H183.342C182.83 163.415 182.035 164.357 180.955 165.134C179.876 165.901 178.512 166.284 176.864 166.284C175.501 166.284 174.289 165.986 173.228 165.389C172.167 164.783 171.334 163.874 170.728 162.662C170.122 161.44 169.819 159.902 169.819 158.045V144.182H173.171V157.818C173.171 159.409 173.616 160.678 174.506 161.625C175.406 162.572 176.552 163.045 177.944 163.045C178.777 163.045 179.625 162.832 180.487 162.406C181.358 161.98 182.087 161.327 182.674 160.446C183.271 159.565 183.569 158.443 183.569 157.08Z" fill="black"/>
<path d="M196.413 136.909V166H193.061V136.909H196.413Z" fill="black"/>
<path d="M212.042 144.182V147.023H200.735V144.182H212.042ZM204.031 138.955H207.383V159.75C207.383 160.697 207.52 161.407 207.795 161.881C208.079 162.345 208.439 162.657 208.874 162.818C209.319 162.97 209.788 163.045 210.281 163.045C210.65 163.045 210.953 163.027 211.19 162.989C211.426 162.941 211.616 162.903 211.758 162.875L212.44 165.886C212.212 165.972 211.895 166.057 211.488 166.142C211.081 166.237 210.565 166.284 209.94 166.284C208.993 166.284 208.065 166.08 207.156 165.673C206.256 165.266 205.508 164.646 204.911 163.812C204.324 162.979 204.031 161.928 204.031 160.659V138.955Z" fill="black"/>
<path d="M230.835 157.08V144.182H234.187V166H230.835V162.307H230.607C230.096 163.415 229.3 164.357 228.221 165.134C227.141 165.901 225.778 166.284 224.13 166.284C222.766 166.284 221.554 165.986 220.494 165.389C219.433 164.783 218.6 163.874 217.994 162.662C217.388 161.44 217.085 159.902 217.085 158.045V144.182H220.437V157.818C220.437 159.409 220.882 160.678 221.772 161.625C222.672 162.572 223.817 163.045 225.21 163.045C226.043 163.045 226.89 162.832 227.752 162.406C228.623 161.98 229.353 161.327 229.94 160.446C230.536 159.565 230.835 158.443 230.835 157.08Z" fill="black"/>
<path d="M240.327 166V144.182H243.565V147.477H243.793C244.19 146.398 244.91 145.522 245.952 144.849C246.993 144.177 248.168 143.841 249.474 143.841C249.721 143.841 250.028 143.846 250.398 143.855C250.767 143.865 251.046 143.879 251.236 143.898V147.307C251.122 147.278 250.862 147.236 250.455 147.179C250.057 147.113 249.635 147.08 249.19 147.08C248.13 147.08 247.183 147.302 246.349 147.747C245.526 148.183 244.872 148.789 244.389 149.565C243.916 150.332 243.679 151.208 243.679 152.193V166H240.327Z" fill="black"/>
<path d="M263.693 166.455C261.591 166.455 259.777 165.991 258.253 165.062C256.738 164.125 255.568 162.818 254.744 161.142C253.93 159.456 253.523 157.496 253.523 155.261C253.523 153.027 253.93 151.057 254.744 149.352C255.568 147.638 256.714 146.303 258.182 145.347C259.659 144.381 261.383 143.898 263.352 143.898C264.489 143.898 265.611 144.087 266.719 144.466C267.827 144.845 268.835 145.46 269.744 146.312C270.653 147.155 271.378 148.273 271.918 149.665C272.457 151.057 272.727 152.771 272.727 154.807V156.227H255.909V153.33H269.318C269.318 152.098 269.072 151 268.58 150.034C268.097 149.068 267.405 148.306 266.506 147.747C265.616 147.188 264.564 146.909 263.352 146.909C262.017 146.909 260.862 147.241 259.886 147.903C258.92 148.557 258.177 149.409 257.656 150.46C257.135 151.511 256.875 152.638 256.875 153.841V155.773C256.875 157.42 257.159 158.817 257.727 159.963C258.305 161.099 259.105 161.966 260.128 162.562C261.151 163.15 262.339 163.443 263.693 163.443C264.574 163.443 265.369 163.32 266.08 163.074C266.799 162.818 267.42 162.439 267.94 161.938C268.461 161.426 268.864 160.792 269.148 160.034L272.386 160.943C272.045 162.042 271.473 163.008 270.668 163.841C269.863 164.665 268.868 165.309 267.685 165.773C266.501 166.227 265.17 166.455 263.693 166.455Z" fill="black"/>
<path d="M107.058 214.398C105.865 214.379 104.672 214.152 103.478 213.716C102.285 213.28 101.196 212.546 100.211 211.514C99.2264 210.473 98.4357 209.066 97.8391 207.295C97.2425 205.515 96.9442 203.28 96.9442 200.591C96.9442 198.015 97.1857 195.733 97.6687 193.744C98.1516 191.746 98.8524 190.065 99.771 188.702C100.69 187.329 101.797 186.287 103.095 185.577C104.402 184.866 105.874 184.511 107.512 184.511C109.141 184.511 110.59 184.838 111.859 185.491C113.137 186.135 114.179 187.035 114.984 188.19C115.789 189.346 116.31 190.676 116.547 192.182H113.081C112.759 190.875 112.134 189.791 111.206 188.929C110.278 188.067 109.047 187.636 107.512 187.636C105.259 187.636 103.483 188.616 102.186 190.577C100.898 192.537 100.249 195.288 100.24 198.83H100.467C100.997 198.025 101.627 197.338 102.356 196.77C103.095 196.192 103.909 195.747 104.799 195.435C105.69 195.122 106.632 194.966 107.626 194.966C109.293 194.966 110.817 195.383 112.2 196.216C113.583 197.04 114.69 198.181 115.524 199.639C116.357 201.088 116.774 202.75 116.774 204.625C116.774 206.424 116.371 208.072 115.566 209.568C114.761 211.055 113.63 212.239 112.172 213.119C110.723 213.991 109.018 214.417 107.058 214.398ZM107.058 211.273C108.251 211.273 109.321 210.974 110.268 210.378C111.225 209.781 111.977 208.981 112.527 207.977C113.085 206.973 113.365 205.856 113.365 204.625C113.365 203.422 113.095 202.329 112.555 201.344C112.025 200.349 111.291 199.559 110.353 198.972C109.425 198.384 108.365 198.091 107.172 198.091C106.272 198.091 105.434 198.271 104.657 198.631C103.881 198.981 103.199 199.464 102.612 200.08C102.034 200.695 101.58 201.401 101.248 202.196C100.917 202.982 100.751 203.811 100.751 204.682C100.751 205.837 101.021 206.917 101.561 207.92C102.11 208.924 102.858 209.734 103.805 210.349C104.761 210.965 105.846 211.273 107.058 211.273Z" fill="black"/>
<path d="M131.848 214.398C129.708 214.398 127.885 213.815 126.38 212.651C124.874 211.476 123.723 209.777 122.928 207.551C122.132 205.316 121.735 202.617 121.735 199.455C121.735 196.311 122.132 193.626 122.928 191.401C123.733 189.166 124.888 187.461 126.394 186.287C127.909 185.103 129.727 184.511 131.848 184.511C133.97 184.511 135.783 185.103 137.289 186.287C138.804 187.461 139.959 189.166 140.755 191.401C141.56 193.626 141.962 196.311 141.962 199.455C141.962 202.617 141.564 205.316 140.769 207.551C139.973 209.777 138.823 211.476 137.317 212.651C135.811 213.815 133.989 214.398 131.848 214.398ZM131.848 211.273C133.97 211.273 135.617 210.25 136.792 208.205C137.966 206.159 138.553 203.242 138.553 199.455C138.553 196.936 138.283 194.791 137.743 193.02C137.213 191.249 136.446 189.9 135.442 188.972C134.448 188.044 133.25 187.58 131.848 187.58C129.746 187.58 128.103 188.616 126.919 190.69C125.736 192.755 125.144 195.676 125.144 199.455C125.144 201.973 125.409 204.114 125.939 205.875C126.47 207.636 127.232 208.976 128.226 209.895C129.23 210.813 130.437 211.273 131.848 211.273Z" fill="black"/>
<path d="M162.189 208.545V207.011C162.189 205.951 162.407 204.98 162.843 204.099C163.288 203.209 163.932 202.499 164.775 201.969C165.627 201.429 166.659 201.159 167.871 201.159C169.102 201.159 170.134 201.429 170.968 201.969C171.801 202.499 172.431 203.209 172.857 204.099C173.283 204.98 173.496 205.951 173.496 207.011V208.545C173.496 209.606 173.278 210.581 172.843 211.472C172.417 212.352 171.782 213.063 170.939 213.602C170.106 214.133 169.083 214.398 167.871 214.398C166.64 214.398 165.603 214.133 164.76 213.602C163.917 213.063 163.278 212.352 162.843 211.472C162.407 210.581 162.189 209.606 162.189 208.545ZM165.087 207.011V208.545C165.087 209.426 165.295 210.217 165.712 210.918C166.129 211.609 166.848 211.955 167.871 211.955C168.865 211.955 169.566 211.609 169.973 210.918C170.39 210.217 170.598 209.426 170.598 208.545V207.011C170.598 206.131 170.399 205.345 170.002 204.653C169.604 203.953 168.894 203.602 167.871 203.602C166.877 203.602 166.162 203.953 165.726 204.653C165.3 205.345 165.087 206.131 165.087 207.011ZM147.701 191.898V190.364C147.701 189.303 147.918 188.332 148.354 187.452C148.799 186.562 149.443 185.851 150.286 185.321C151.138 184.781 152.17 184.511 153.382 184.511C154.614 184.511 155.646 184.781 156.479 185.321C157.312 185.851 157.942 186.562 158.368 187.452C158.794 188.332 159.007 189.303 159.007 190.364V191.898C159.007 192.958 158.79 193.934 158.354 194.824C157.928 195.705 157.293 196.415 156.451 196.955C155.617 197.485 154.595 197.75 153.382 197.75C152.151 197.75 151.114 197.485 150.272 196.955C149.429 196.415 148.79 195.705 148.354 194.824C147.918 193.934 147.701 192.958 147.701 191.898ZM150.598 190.364V191.898C150.598 192.778 150.807 193.569 151.223 194.27C151.64 194.961 152.36 195.307 153.382 195.307C154.377 195.307 155.078 194.961 155.485 194.27C155.901 193.569 156.11 192.778 156.11 191.898V190.364C156.11 189.483 155.911 188.697 155.513 188.006C155.115 187.305 154.405 186.955 153.382 186.955C152.388 186.955 151.673 187.305 151.238 188.006C150.811 188.697 150.598 189.483 150.598 190.364ZM148.78 214L168.78 184.909H172.019L152.019 214H148.78Z" fill="black"/>
</svg>
