<svg width="292" height="206" viewBox="0 0 292 206" fill="none" xmlns="http://www.w3.org/2000/svg">
<path d="M134.618 0C155.17 2.45079e-07 175.52 4.04799 194.508 11.9129C213.495 19.7777 230.748 31.3054 245.28 45.8378C259.812 60.3702 271.34 77.6226 279.205 96.6101C287.07 115.598 291.118 135.948 291.118 156.5H275.729C275.729 137.969 272.079 119.619 264.988 102.499C257.896 85.3786 247.502 69.8227 234.399 56.7193C221.295 43.6159 205.739 33.2217 188.619 26.1302C171.498 19.0387 153.149 15.3887 134.618 15.3887V0Z" fill="#EA2E44"/>
<path d="M0 157V127.909H9.82955C12.1023 127.909 13.9678 128.297 15.4261 129.074C16.8845 129.841 17.964 130.897 18.6648 132.241C19.3655 133.586 19.7159 135.116 19.7159 136.83C19.7159 138.544 19.3655 140.063 18.6648 141.389C17.964 142.715 16.8892 143.757 15.4403 144.514C13.9915 145.262 12.1402 145.636 9.88636 145.636H1.93182V142.455H9.77273C11.3258 142.455 12.5758 142.227 13.5227 141.773C14.4792 141.318 15.1705 140.674 15.5966 139.841C16.0322 138.998 16.25 137.994 16.25 136.83C16.25 135.665 16.0322 134.647 15.5966 133.776C15.161 132.904 14.465 132.232 13.5085 131.759C12.5521 131.276 11.2879 131.034 9.71591 131.034H3.52273V157H0ZM13.6932 143.932L20.8523 157H16.7614L9.71591 143.932H13.6932Z" fill="black"/>
<path d="M33.7607 157.455C31.791 157.455 30.0627 156.986 28.576 156.048C27.0987 155.111 25.9434 153.799 25.1101 152.114C24.2862 150.428 23.8743 148.458 23.8743 146.205C23.8743 143.932 24.2862 141.948 25.1101 140.253C25.9434 138.558 27.0987 137.241 28.576 136.304C30.0627 135.366 31.791 134.898 33.7607 134.898C35.7304 134.898 37.4538 135.366 38.9311 136.304C40.4179 137.241 41.5732 138.558 42.397 140.253C43.2304 141.948 43.647 143.932 43.647 146.205C43.647 148.458 43.2304 150.428 42.397 152.114C41.5732 153.799 40.4179 155.111 38.9311 156.048C37.4538 156.986 35.7304 157.455 33.7607 157.455ZM33.7607 154.443C35.2569 154.443 36.4879 154.06 37.4538 153.293C38.4197 152.526 39.1347 151.517 39.5987 150.267C40.0627 149.017 40.2947 147.663 40.2947 146.205C40.2947 144.746 40.0627 143.387 39.5987 142.128C39.1347 140.868 38.4197 139.85 37.4538 139.074C36.4879 138.297 35.2569 137.909 33.7607 137.909C32.2644 137.909 31.0334 138.297 30.0675 139.074C29.1016 139.85 28.3866 140.868 27.9226 142.128C27.4586 143.387 27.2266 144.746 27.2266 146.205C27.2266 147.663 27.4586 149.017 27.9226 150.267C28.3866 151.517 29.1016 152.526 30.0675 153.293C31.0334 154.06 32.2644 154.443 33.7607 154.443Z" fill="black"/>
<path d="M48.7642 157V135.182H52.0028V138.591H52.2869C52.7415 137.426 53.4754 136.522 54.4886 135.878C55.5019 135.224 56.7188 134.898 58.1392 134.898C59.5786 134.898 60.7765 135.224 61.733 135.878C62.6989 136.522 63.4517 137.426 63.9915 138.591H64.2188C64.7775 137.464 65.6155 136.569 66.733 135.906C67.8504 135.234 69.1903 134.898 70.7528 134.898C72.7036 134.898 74.2992 135.509 75.5398 136.73C76.7803 137.942 77.4006 139.831 77.4006 142.398V157H74.0483V142.398C74.0483 140.788 73.608 139.637 72.7273 138.946C71.8466 138.255 70.8097 137.909 69.6165 137.909C68.0824 137.909 66.8939 138.373 66.0511 139.301C65.2083 140.22 64.7869 141.384 64.7869 142.795V157H61.3778V142.057C61.3778 140.816 60.9754 139.817 60.1705 139.06C59.3655 138.293 58.3286 137.909 57.0597 137.909C56.1884 137.909 55.3741 138.141 54.6165 138.605C53.8684 139.069 53.2623 139.713 52.7983 140.537C52.3437 141.351 52.1165 142.294 52.1165 143.364V157H48.7642Z" fill="black"/>
<path d="M89.9503 157.511C88.5677 157.511 87.313 157.251 86.1861 156.73C85.0592 156.2 84.1643 155.437 83.5014 154.443C82.8385 153.439 82.5071 152.227 82.5071 150.807C82.5071 149.557 82.7533 148.544 83.2457 147.767C83.7382 146.981 84.3963 146.366 85.2202 145.92C86.044 145.475 86.9531 145.144 87.9474 144.926C88.9512 144.699 89.9598 144.519 90.973 144.386C92.2988 144.216 93.3736 144.088 94.1974 144.003C95.0308 143.908 95.6368 143.752 96.0156 143.534C96.4039 143.316 96.598 142.937 96.598 142.398V142.284C96.598 140.883 96.2145 139.794 95.4474 139.017C94.6899 138.241 93.5393 137.852 91.9957 137.852C90.3954 137.852 89.1406 138.203 88.2315 138.903C87.3224 139.604 86.6832 140.352 86.3139 141.148L83.1321 140.011C83.7003 138.686 84.4579 137.653 85.4048 136.915C86.3613 136.167 87.4029 135.646 88.5298 135.352C89.6662 135.049 90.7836 134.898 91.8821 134.898C92.5829 134.898 93.3878 134.983 94.2969 135.153C95.2154 135.314 96.1009 135.651 96.9531 136.162C97.8149 136.673 98.5298 137.445 99.098 138.477C99.6662 139.509 99.9503 140.892 99.9503 142.625V157H96.598V154.045H96.4276C96.2003 154.519 95.8215 155.026 95.2912 155.565C94.7609 156.105 94.0554 156.564 93.1747 156.943C92.294 157.322 91.2192 157.511 89.9503 157.511ZM90.4616 154.5C91.7874 154.5 92.9048 154.24 93.8139 153.719C94.7325 153.198 95.4238 152.526 95.8878 151.702C96.3613 150.878 96.598 150.011 96.598 149.102V146.034C96.456 146.205 96.1435 146.361 95.6605 146.503C95.187 146.635 94.6378 146.754 94.0128 146.858C93.3973 146.953 92.7959 147.038 92.2088 147.114C91.6312 147.18 91.1624 147.237 90.8026 147.284C89.9313 147.398 89.117 147.582 88.3594 147.838C87.6113 148.084 87.0052 148.458 86.5412 148.96C86.0866 149.453 85.8594 150.125 85.8594 150.977C85.8594 152.142 86.2902 153.023 87.152 153.619C88.0232 154.206 89.1264 154.5 90.4616 154.5Z" fill="black"/>
<path d="M109.421 143.875V157H106.069V135.182H109.308V138.591H109.592C110.103 137.483 110.879 136.593 111.921 135.92C112.963 135.239 114.308 134.898 115.955 134.898C117.433 134.898 118.725 135.201 119.833 135.807C120.941 136.403 121.803 137.312 122.418 138.534C123.034 139.746 123.342 141.28 123.342 143.136V157H119.989V143.364C119.989 141.65 119.544 140.314 118.654 139.358C117.764 138.392 116.542 137.909 114.989 137.909C113.919 137.909 112.963 138.141 112.12 138.605C111.287 139.069 110.629 139.746 110.146 140.636C109.663 141.527 109.421 142.606 109.421 143.875Z" fill="black"/>
<path d="M164.581 137H161.058C160.85 135.987 160.485 135.097 159.964 134.33C159.453 133.562 158.828 132.919 158.089 132.398C157.36 131.867 156.551 131.47 155.661 131.205C154.77 130.939 153.842 130.807 152.876 130.807C151.115 130.807 149.519 131.252 148.089 132.142C146.669 133.032 145.537 134.344 144.695 136.077C143.861 137.81 143.445 139.936 143.445 142.455C143.445 144.973 143.861 147.099 144.695 148.832C145.537 150.565 146.669 151.877 148.089 152.767C149.519 153.657 151.115 154.102 152.876 154.102C153.842 154.102 154.77 153.97 155.661 153.705C156.551 153.439 157.36 153.046 158.089 152.526C158.828 151.995 159.453 151.347 159.964 150.58C160.485 149.803 160.85 148.913 161.058 147.909H164.581C164.316 149.396 163.833 150.726 163.132 151.901C162.431 153.075 161.56 154.074 160.518 154.898C159.477 155.712 158.307 156.332 157.01 156.759C155.722 157.185 154.344 157.398 152.876 157.398C150.395 157.398 148.189 156.792 146.257 155.58C144.325 154.367 142.805 152.644 141.697 150.409C140.589 148.174 140.036 145.523 140.036 142.455C140.036 139.386 140.589 136.735 141.697 134.5C142.805 132.265 144.325 130.542 146.257 129.33C148.189 128.117 150.395 127.511 152.876 127.511C154.344 127.511 155.722 127.724 157.01 128.151C158.307 128.577 159.477 129.202 160.518 130.026C161.56 130.84 162.431 131.834 163.132 133.009C163.833 134.173 164.316 135.504 164.581 137Z" fill="black"/>
<path d="M183.569 148.08V135.182H186.921V157H183.569V153.307H183.342C182.83 154.415 182.035 155.357 180.955 156.134C179.876 156.901 178.512 157.284 176.864 157.284C175.501 157.284 174.289 156.986 173.228 156.389C172.167 155.783 171.334 154.874 170.728 153.662C170.122 152.44 169.819 150.902 169.819 149.045V135.182H173.171V148.818C173.171 150.409 173.616 151.678 174.506 152.625C175.406 153.572 176.552 154.045 177.944 154.045C178.777 154.045 179.625 153.832 180.487 153.406C181.358 152.98 182.087 152.327 182.674 151.446C183.271 150.565 183.569 149.443 183.569 148.08Z" fill="black"/>
<path d="M196.413 127.909V157H193.061V127.909H196.413Z" fill="black"/>
<path d="M212.042 135.182V138.023H200.735V135.182H212.042ZM204.031 129.955H207.383V150.75C207.383 151.697 207.52 152.407 207.795 152.881C208.079 153.345 208.439 153.657 208.874 153.818C209.319 153.97 209.788 154.045 210.281 154.045C210.65 154.045 210.953 154.027 211.19 153.989C211.426 153.941 211.616 153.903 211.758 153.875L212.44 156.886C212.212 156.972 211.895 157.057 211.488 157.142C211.081 157.237 210.565 157.284 209.94 157.284C208.993 157.284 208.065 157.08 207.156 156.673C206.256 156.266 205.508 155.646 204.911 154.812C204.324 153.979 204.031 152.928 204.031 151.659V129.955Z" fill="black"/>
<path d="M230.835 148.08V135.182H234.187V157H230.835V153.307H230.607C230.096 154.415 229.3 155.357 228.221 156.134C227.141 156.901 225.778 157.284 224.13 157.284C222.766 157.284 221.554 156.986 220.494 156.389C219.433 155.783 218.6 154.874 217.994 153.662C217.388 152.44 217.085 150.902 217.085 149.045V135.182H220.437V148.818C220.437 150.409 220.882 151.678 221.772 152.625C222.672 153.572 223.817 154.045 225.21 154.045C226.043 154.045 226.89 153.832 227.752 153.406C228.623 152.98 229.353 152.327 229.94 151.446C230.536 150.565 230.835 149.443 230.835 148.08Z" fill="black"/>
<path d="M240.327 157V135.182H243.565V138.477H243.793C244.19 137.398 244.91 136.522 245.952 135.849C246.993 135.177 248.168 134.841 249.474 134.841C249.721 134.841 250.028 134.846 250.398 134.855C250.767 134.865 251.046 134.879 251.236 134.898V138.307C251.122 138.278 250.862 138.236 250.455 138.179C250.057 138.113 249.635 138.08 249.19 138.08C248.13 138.08 247.183 138.302 246.349 138.747C245.526 139.183 244.872 139.789 244.389 140.565C243.916 141.332 243.679 142.208 243.679 143.193V157H240.327Z" fill="black"/>
<path d="M263.693 157.455C261.591 157.455 259.777 156.991 258.253 156.062C256.738 155.125 255.568 153.818 254.744 152.142C253.93 150.456 253.523 148.496 253.523 146.261C253.523 144.027 253.93 142.057 254.744 140.352C255.568 138.638 256.714 137.303 258.182 136.347C259.659 135.381 261.383 134.898 263.352 134.898C264.489 134.898 265.611 135.087 266.719 135.466C267.827 135.845 268.835 136.46 269.744 137.312C270.653 138.155 271.378 139.273 271.918 140.665C272.457 142.057 272.727 143.771 272.727 145.807V147.227H255.909V144.33H269.318C269.318 143.098 269.072 142 268.58 141.034C268.097 140.068 267.405 139.306 266.506 138.747C265.616 138.188 264.564 137.909 263.352 137.909C262.017 137.909 260.862 138.241 259.886 138.903C258.92 139.557 258.177 140.409 257.656 141.46C257.135 142.511 256.875 143.638 256.875 144.841V146.773C256.875 148.42 257.159 149.817 257.727 150.963C258.305 152.099 259.105 152.966 260.128 153.562C261.151 154.15 262.339 154.443 263.693 154.443C264.574 154.443 265.369 154.32 266.08 154.074C266.799 153.818 267.42 153.439 267.94 152.938C268.461 152.426 268.864 151.792 269.148 151.034L272.386 151.943C272.045 153.042 271.473 154.008 270.668 154.841C269.863 155.665 268.868 156.309 267.685 156.773C266.501 157.227 265.17 157.455 263.693 157.455Z" fill="black"/>
<path d="M98.1019 205V202.443L107.704 191.932C108.831 190.701 109.759 189.631 110.488 188.722C111.217 187.803 111.757 186.941 112.108 186.136C112.467 185.322 112.647 184.47 112.647 183.58C112.647 182.557 112.401 181.671 111.909 180.923C111.426 180.175 110.763 179.598 109.92 179.19C109.077 178.783 108.13 178.58 107.079 178.58C105.962 178.58 104.986 178.812 104.153 179.276C103.329 179.73 102.69 180.369 102.235 181.193C101.79 182.017 101.568 182.983 101.568 184.091H98.2156C98.2156 182.386 98.6085 180.89 99.3945 179.602C100.181 178.314 101.251 177.311 102.605 176.591C103.968 175.871 105.498 175.511 107.193 175.511C108.897 175.511 110.408 175.871 111.724 176.591C113.04 177.311 114.073 178.281 114.821 179.503C115.569 180.724 115.943 182.083 115.943 183.58C115.943 184.65 115.749 185.696 115.36 186.719C114.982 187.732 114.319 188.864 113.372 190.114C112.434 191.354 111.132 192.869 109.466 194.659L102.931 201.648V201.875H116.454V205H98.1019Z" fill="black"/>
<path d="M131.412 205.398C129.745 205.398 128.244 205.066 126.909 204.403C125.574 203.741 124.503 202.831 123.699 201.676C122.894 200.521 122.453 199.205 122.377 197.727H125.787C125.919 199.044 126.516 200.133 127.576 200.994C128.646 201.847 129.925 202.273 131.412 202.273C132.605 202.273 133.665 201.993 134.593 201.435C135.531 200.876 136.265 200.109 136.795 199.134C137.335 198.149 137.605 197.036 137.605 195.795C137.605 194.527 137.325 193.395 136.767 192.401C136.217 191.397 135.46 190.606 134.494 190.028C133.528 189.451 132.425 189.157 131.184 189.148C130.294 189.138 129.38 189.276 128.443 189.56C127.505 189.834 126.734 190.189 126.127 190.625L122.832 190.227L124.593 175.909H139.707V179.034H127.548L126.525 187.614H126.696C127.292 187.14 128.04 186.747 128.94 186.435C129.84 186.122 130.777 185.966 131.752 185.966C133.533 185.966 135.119 186.392 136.511 187.244C137.913 188.087 139.011 189.242 139.806 190.71C140.611 192.178 141.014 193.854 141.014 195.739C141.014 197.595 140.597 199.252 139.764 200.71C138.94 202.159 137.804 203.305 136.355 204.148C134.906 204.981 133.258 205.398 131.412 205.398Z" fill="black"/>
<path d="M161.486 199.545V198.011C161.486 196.951 161.704 195.98 162.14 195.099C162.585 194.209 163.229 193.499 164.071 192.969C164.924 192.429 165.956 192.159 167.168 192.159C168.399 192.159 169.431 192.429 170.265 192.969C171.098 193.499 171.728 194.209 172.154 195.099C172.58 195.98 172.793 196.951 172.793 198.011V199.545C172.793 200.606 172.575 201.581 172.14 202.472C171.713 203.352 171.079 204.063 170.236 204.602C169.403 205.133 168.38 205.398 167.168 205.398C165.937 205.398 164.9 205.133 164.057 204.602C163.214 204.063 162.575 203.352 162.14 202.472C161.704 201.581 161.486 200.606 161.486 199.545ZM164.384 198.011V199.545C164.384 200.426 164.592 201.217 165.009 201.918C165.426 202.609 166.145 202.955 167.168 202.955C168.162 202.955 168.863 202.609 169.27 201.918C169.687 201.217 169.895 200.426 169.895 199.545V198.011C169.895 197.131 169.696 196.345 169.299 195.653C168.901 194.953 168.191 194.602 167.168 194.602C166.174 194.602 165.459 194.953 165.023 195.653C164.597 196.345 164.384 197.131 164.384 198.011ZM146.998 182.898V181.364C146.998 180.303 147.215 179.332 147.651 178.452C148.096 177.562 148.74 176.851 149.583 176.321C150.435 175.781 151.467 175.511 152.679 175.511C153.91 175.511 154.943 175.781 155.776 176.321C156.609 176.851 157.239 177.562 157.665 178.452C158.091 179.332 158.304 180.303 158.304 181.364V182.898C158.304 183.958 158.087 184.934 157.651 185.824C157.225 186.705 156.59 187.415 155.748 187.955C154.914 188.485 153.891 188.75 152.679 188.75C151.448 188.75 150.411 188.485 149.569 187.955C148.726 187.415 148.087 186.705 147.651 185.824C147.215 184.934 146.998 183.958 146.998 182.898ZM149.895 181.364V182.898C149.895 183.778 150.104 184.569 150.52 185.27C150.937 185.961 151.657 186.307 152.679 186.307C153.674 186.307 154.374 185.961 154.782 185.27C155.198 184.569 155.407 183.778 155.407 182.898V181.364C155.407 180.483 155.208 179.697 154.81 179.006C154.412 178.305 153.702 177.955 152.679 177.955C151.685 177.955 150.97 178.305 150.534 179.006C150.108 179.697 149.895 180.483 149.895 181.364ZM148.077 205L168.077 175.909H171.316L151.316 205H148.077Z" fill="black"/>
</svg>
