<svg width="298" height="313" viewBox="0 0 298 313" fill="none" xmlns="http://www.w3.org/2000/svg">
<path d="M140.832 0C165.521 2.94414e-07 189.86 5.84123 211.86 17.0464C233.86 28.2516 252.897 44.5028 267.415 64.4722C281.933 84.4415 291.521 107.562 295.394 131.946C299.268 156.329 297.318 181.283 289.703 204.768C282.088 228.254 269.025 249.605 251.581 267.076C234.137 284.547 212.806 297.644 189.333 305.295C165.859 312.946 140.908 314.935 116.519 311.1C92.1296 307.264 68.9938 297.713 49.0018 283.226L58.0315 270.765C76.0577 283.827 96.9185 292.44 118.91 295.898C140.901 299.356 163.398 297.563 184.564 290.664C205.729 283.765 224.962 271.956 240.691 256.203C256.42 240.45 268.198 221.198 275.064 200.022C281.93 178.846 283.689 156.346 280.196 134.36C276.703 112.375 268.059 91.5271 254.968 73.5213C241.877 55.5155 224.713 40.8623 204.876 30.7589C185.039 20.6556 163.094 15.3887 140.832 15.3887V0Z" fill="#EAB52E"/>
<path d="M21.0227 146C20.7102 145.044 20.2983 144.187 19.7869 143.429C19.285 142.662 18.6837 142.009 17.983 141.469C17.2917 140.929 16.5057 140.517 15.625 140.233C14.7443 139.949 13.7784 139.807 12.7273 139.807C11.0038 139.807 9.43655 140.252 8.02557 141.142C6.61458 142.032 5.49242 143.344 4.65909 145.077C3.82576 146.81 3.40909 148.936 3.40909 151.455C3.40909 153.973 3.83049 156.099 4.6733 157.832C5.5161 159.565 6.6572 160.877 8.09659 161.767C9.53599 162.657 11.1553 163.102 12.9545 163.102C14.6212 163.102 16.089 162.747 17.358 162.037C18.6364 161.317 19.6307 160.304 20.3409 158.997C21.0606 157.681 21.4205 156.133 21.4205 154.352L22.5 154.58H13.75V151.455H24.8295V154.58C24.8295 156.975 24.3182 159.059 23.2955 160.83C22.2822 162.6 20.8807 163.973 19.0909 164.949C17.3106 165.915 15.2652 166.398 12.9545 166.398C10.3788 166.398 8.11553 165.792 6.16477 164.58C4.22349 163.367 2.70833 161.644 1.61932 159.409C0.539773 157.174 0 154.523 0 151.455C0 149.153 0.307765 147.084 0.923295 145.247C1.5483 143.401 2.42898 141.829 3.56534 140.531C4.7017 139.234 6.0464 138.24 7.59943 137.548C9.15246 136.857 10.8617 136.511 12.7273 136.511C14.2614 136.511 15.6913 136.743 17.017 137.207C18.3523 137.662 19.5407 138.311 20.5824 139.153C21.6335 139.987 22.5095 140.986 23.2102 142.151C23.911 143.306 24.3939 144.589 24.6591 146H21.0227Z" fill="black"/>
<path d="M30.4084 166V144.182H33.647V147.477H33.8743C34.272 146.398 34.9917 145.522 36.0334 144.849C37.075 144.177 38.2493 143.841 39.5561 143.841C39.8023 143.841 40.1101 143.846 40.4794 143.855C40.8487 143.865 41.1281 143.879 41.3175 143.898V147.307C41.2038 147.278 40.9434 147.236 40.5362 147.179C40.1385 147.113 39.7171 147.08 39.272 147.08C38.2114 147.08 37.2644 147.302 36.4311 147.747C35.6072 148.183 34.9538 148.789 34.4709 149.565C33.9974 150.332 33.7607 151.208 33.7607 152.193V166H30.4084Z" fill="black"/>
<path d="M51.7116 166.511C50.3291 166.511 49.0743 166.251 47.9474 165.73C46.8206 165.2 45.9257 164.437 45.2628 163.443C44.5999 162.439 44.2685 161.227 44.2685 159.807C44.2685 158.557 44.5147 157.544 45.0071 156.767C45.4995 155.981 46.1577 155.366 46.9815 154.92C47.8054 154.475 48.7145 154.144 49.7088 153.926C50.7126 153.699 51.7211 153.519 52.7344 153.386C54.0601 153.216 55.1349 153.088 55.9588 153.003C56.7921 152.908 57.3982 152.752 57.777 152.534C58.1652 152.316 58.3594 151.937 58.3594 151.398V151.284C58.3594 149.883 57.9759 148.794 57.2088 148.017C56.4512 147.241 55.3007 146.852 53.7571 146.852C52.1567 146.852 50.902 147.203 49.9929 147.903C49.0838 148.604 48.4446 149.352 48.0753 150.148L44.8935 149.011C45.4616 147.686 46.2192 146.653 47.1662 145.915C48.1226 145.167 49.1643 144.646 50.2912 144.352C51.4276 144.049 52.545 143.898 53.6435 143.898C54.3442 143.898 55.1491 143.983 56.0582 144.153C56.9768 144.314 57.8622 144.651 58.7145 145.162C59.5762 145.673 60.2912 146.445 60.8594 147.477C61.4276 148.509 61.7116 149.892 61.7116 151.625V166H58.3594V163.045H58.1889C57.9616 163.519 57.5829 164.026 57.0526 164.565C56.5223 165.105 55.8168 165.564 54.9361 165.943C54.0554 166.322 52.9806 166.511 51.7116 166.511ZM52.223 163.5C53.5488 163.5 54.6662 163.24 55.5753 162.719C56.4938 162.198 57.1851 161.526 57.6491 160.702C58.1226 159.878 58.3594 159.011 58.3594 158.102V155.034C58.2173 155.205 57.9048 155.361 57.4219 155.503C56.9484 155.635 56.3991 155.754 55.7741 155.858C55.1586 155.953 54.5573 156.038 53.9702 156.114C53.3925 156.18 52.9238 156.237 52.5639 156.284C51.6927 156.398 50.8783 156.582 50.1207 156.838C49.3726 157.084 48.7666 157.458 48.3026 157.96C47.848 158.453 47.6207 159.125 47.6207 159.977C47.6207 161.142 48.0516 162.023 48.9134 162.619C49.7846 163.206 50.8878 163.5 52.223 163.5Z" fill="black"/>
<path d="M67.8303 174.182V144.182H71.0689V147.648H71.4666C71.7128 147.269 72.0537 146.786 72.4893 146.199C72.9344 145.602 73.5689 145.072 74.3928 144.608C75.2261 144.134 76.353 143.898 77.7734 143.898C79.6106 143.898 81.2299 144.357 82.6314 145.276C84.0329 146.194 85.1267 147.496 85.9126 149.182C86.6986 150.867 87.0916 152.856 87.0916 155.148C87.0916 157.458 86.6986 159.461 85.9126 161.156C85.1267 162.842 84.0376 164.149 82.6456 165.077C81.2536 165.995 79.6484 166.455 77.8303 166.455C76.4287 166.455 75.3066 166.223 74.4638 165.759C73.621 165.285 72.9723 164.75 72.5178 164.153C72.0632 163.547 71.7128 163.045 71.4666 162.648H71.1825V174.182H67.8303ZM71.1257 155.091C71.1257 156.739 71.3672 158.192 71.8501 159.452C72.3331 160.702 73.0386 161.682 73.9666 162.392C74.8947 163.093 76.031 163.443 77.3757 163.443C78.7772 163.443 79.9467 163.074 80.8842 162.335C81.8312 161.587 82.5414 160.583 83.0149 159.324C83.4979 158.055 83.7393 156.644 83.7393 155.091C83.7393 153.557 83.5026 152.174 83.0291 150.943C82.5651 149.703 81.8596 148.723 80.9126 148.003C79.9751 147.274 78.7962 146.909 77.3757 146.909C76.0121 146.909 74.8662 147.255 73.9382 147.946C73.0102 148.628 72.3094 149.584 71.8359 150.815C71.3625 152.037 71.1257 153.462 71.1257 155.091Z" fill="black"/>
<path d="M95.5575 152.875V166H92.2053V136.909H95.5575V147.591H95.8416C96.353 146.464 97.12 145.569 98.1428 144.906C99.175 144.234 100.548 143.898 102.262 143.898C103.749 143.898 105.051 144.196 106.168 144.793C107.286 145.38 108.152 146.284 108.768 147.506C109.393 148.718 109.705 150.261 109.705 152.136V166H106.353V152.364C106.353 150.631 105.903 149.291 105.004 148.344C104.113 147.387 102.878 146.909 101.296 146.909C100.198 146.909 99.2128 147.141 98.3416 147.605C97.4799 148.069 96.7981 148.746 96.2962 149.636C95.8037 150.527 95.5575 151.606 95.5575 152.875Z" fill="black"/>
<path d="M115.838 166V144.182H119.19V166H115.838ZM117.543 140.545C116.889 140.545 116.326 140.323 115.852 139.878C115.388 139.433 115.156 138.898 115.156 138.273C115.156 137.648 115.388 137.113 115.852 136.668C116.326 136.223 116.889 136 117.543 136C118.196 136 118.755 136.223 119.219 136.668C119.692 137.113 119.929 137.648 119.929 138.273C119.929 138.898 119.692 139.433 119.219 139.878C118.755 140.323 118.196 140.545 117.543 140.545Z" fill="black"/>
<path d="M134.194 166.455C132.148 166.455 130.387 165.972 128.91 165.006C127.433 164.04 126.296 162.709 125.501 161.014C124.705 159.319 124.308 157.383 124.308 155.205C124.308 152.989 124.715 151.033 125.529 149.338C126.353 147.634 127.499 146.303 128.967 145.347C130.444 144.381 132.167 143.898 134.137 143.898C135.671 143.898 137.054 144.182 138.285 144.75C139.516 145.318 140.524 146.114 141.31 147.136C142.096 148.159 142.584 149.352 142.773 150.716H139.421C139.165 149.722 138.597 148.841 137.717 148.074C136.845 147.297 135.671 146.909 134.194 146.909C132.887 146.909 131.741 147.25 130.756 147.932C129.781 148.604 129.019 149.556 128.469 150.787C127.93 152.009 127.66 153.443 127.66 155.091C127.66 156.777 127.925 158.244 128.455 159.494C128.995 160.744 129.753 161.715 130.728 162.406C131.713 163.098 132.868 163.443 134.194 163.443C135.065 163.443 135.856 163.292 136.566 162.989C137.276 162.686 137.878 162.25 138.37 161.682C138.862 161.114 139.213 160.432 139.421 159.636H142.773C142.584 160.924 142.115 162.084 141.367 163.116C140.629 164.139 139.648 164.954 138.427 165.56C137.215 166.156 135.804 166.455 134.194 166.455Z" fill="black"/>
<path d="M168.356 166H159.379V136.909H168.754C171.576 136.909 173.99 137.491 175.998 138.656C178.005 139.812 179.544 141.473 180.614 143.642C181.684 145.801 182.219 148.386 182.219 151.398C182.219 154.428 181.68 157.037 180.6 159.224C179.521 161.402 177.949 163.079 175.884 164.253C173.82 165.418 171.31 166 168.356 166ZM162.901 162.875H168.129C170.534 162.875 172.527 162.411 174.109 161.483C175.69 160.555 176.869 159.234 177.646 157.52C178.422 155.806 178.81 153.765 178.81 151.398C178.81 149.049 178.427 147.027 177.66 145.332C176.893 143.628 175.747 142.321 174.222 141.412C172.698 140.493 170.799 140.034 168.526 140.034H162.901V162.875Z" fill="black"/>
<path d="M196.822 166.455C194.719 166.455 192.906 165.991 191.381 165.062C189.866 164.125 188.697 162.818 187.873 161.142C187.058 159.456 186.651 157.496 186.651 155.261C186.651 153.027 187.058 151.057 187.873 149.352C188.697 147.638 189.843 146.303 191.31 145.347C192.788 144.381 194.511 143.898 196.481 143.898C197.617 143.898 198.739 144.087 199.847 144.466C200.955 144.845 201.964 145.46 202.873 146.312C203.782 147.155 204.506 148.273 205.046 149.665C205.586 151.057 205.856 152.771 205.856 154.807V156.227H189.038V153.33H202.447C202.447 152.098 202.201 151 201.708 150.034C201.225 149.068 200.534 148.306 199.634 147.747C198.744 147.188 197.693 146.909 196.481 146.909C195.146 146.909 193.99 147.241 193.015 147.903C192.049 148.557 191.306 149.409 190.785 150.46C190.264 151.511 190.004 152.638 190.004 153.841V155.773C190.004 157.42 190.288 158.817 190.856 159.963C191.433 161.099 192.234 161.966 193.256 162.562C194.279 163.15 195.468 163.443 196.822 163.443C197.702 163.443 198.498 163.32 199.208 163.074C199.928 162.818 200.548 162.439 201.069 161.938C201.59 161.426 201.992 160.792 202.276 160.034L205.515 160.943C205.174 162.042 204.601 163.008 203.796 163.841C202.991 164.665 201.997 165.309 200.813 165.773C199.63 166.227 198.299 166.455 196.822 166.455Z" fill="black"/>
<path d="M226.41 149.068L223.398 149.92C223.209 149.419 222.93 148.931 222.56 148.457C222.201 147.974 221.708 147.577 221.083 147.264C220.458 146.952 219.658 146.795 218.683 146.795C217.347 146.795 216.235 147.103 215.344 147.719C214.464 148.325 214.023 149.097 214.023 150.034C214.023 150.867 214.326 151.526 214.933 152.009C215.539 152.491 216.486 152.894 217.773 153.216L221.012 154.011C222.963 154.485 224.416 155.209 225.373 156.185C226.329 157.151 226.808 158.396 226.808 159.92C226.808 161.17 226.448 162.288 225.728 163.273C225.018 164.258 224.023 165.034 222.745 165.602C221.467 166.17 219.98 166.455 218.285 166.455C216.059 166.455 214.218 165.972 212.759 165.006C211.301 164.04 210.378 162.629 209.989 160.773L213.171 159.977C213.474 161.152 214.047 162.032 214.89 162.619C215.742 163.206 216.855 163.5 218.228 163.5C219.79 163.5 221.031 163.169 221.95 162.506C222.878 161.833 223.342 161.028 223.342 160.091C223.342 159.333 223.076 158.699 222.546 158.188C222.016 157.667 221.201 157.278 220.103 157.023L216.467 156.17C214.469 155.697 213.001 154.963 212.063 153.969C211.135 152.965 210.671 151.71 210.671 150.205C210.671 148.973 211.017 147.884 211.708 146.938C212.409 145.991 213.361 145.247 214.563 144.707C215.775 144.168 217.148 143.898 218.683 143.898C220.842 143.898 222.537 144.371 223.768 145.318C225.008 146.265 225.889 147.515 226.41 149.068Z" fill="black"/>
<path d="M231.854 166V144.182H235.206V166H231.854ZM233.558 140.545C232.905 140.545 232.341 140.323 231.868 139.878C231.404 139.433 231.172 138.898 231.172 138.273C231.172 137.648 231.404 137.113 231.868 136.668C232.341 136.223 232.905 136 233.558 136C234.212 136 234.77 136.223 235.234 136.668C235.708 137.113 235.945 137.648 235.945 138.273C235.945 138.898 235.708 139.433 235.234 139.878C234.77 140.323 234.212 140.545 233.558 140.545Z" fill="black"/>
<path d="M250.153 174.636C248.533 174.636 247.141 174.428 245.977 174.011C244.812 173.604 243.841 173.064 243.065 172.392C242.298 171.729 241.687 171.019 241.232 170.261L243.903 168.386C244.206 168.784 244.589 169.239 245.053 169.75C245.517 170.271 246.152 170.721 246.957 171.099C247.771 171.488 248.836 171.682 250.153 171.682C251.914 171.682 253.368 171.256 254.513 170.403C255.659 169.551 256.232 168.216 256.232 166.398V161.966H255.948C255.702 162.364 255.352 162.856 254.897 163.443C254.452 164.021 253.808 164.537 252.965 164.991C252.132 165.437 251.005 165.659 249.585 165.659C247.823 165.659 246.242 165.242 244.84 164.409C243.448 163.576 242.345 162.364 241.531 160.773C240.726 159.182 240.323 157.25 240.323 154.977C240.323 152.742 240.716 150.796 241.502 149.139C242.288 147.473 243.382 146.185 244.783 145.276C246.185 144.357 247.804 143.898 249.641 143.898C251.062 143.898 252.189 144.134 253.022 144.608C253.865 145.072 254.509 145.602 254.954 146.199C255.408 146.786 255.759 147.269 256.005 147.648H256.346V144.182H259.585V166.625C259.585 168.5 259.158 170.025 258.306 171.199C257.463 172.383 256.327 173.249 254.897 173.798C253.477 174.357 251.895 174.636 250.153 174.636ZM250.039 162.648C251.384 162.648 252.52 162.34 253.448 161.724C254.376 161.109 255.082 160.223 255.565 159.068C256.048 157.913 256.289 156.53 256.289 154.92C256.289 153.348 256.052 151.961 255.579 150.759C255.105 149.556 254.405 148.614 253.477 147.932C252.549 147.25 251.403 146.909 250.039 146.909C248.619 146.909 247.435 147.269 246.488 147.989C245.55 148.708 244.845 149.674 244.371 150.886C243.907 152.098 243.675 153.443 243.675 154.92C243.675 156.436 243.912 157.776 244.386 158.94C244.869 160.096 245.579 161.005 246.516 161.668C247.463 162.321 248.638 162.648 250.039 162.648Z" fill="black"/>
<path d="M269.073 152.875V166H265.721V144.182H268.96V147.591H269.244C269.755 146.483 270.531 145.593 271.573 144.92C272.615 144.239 273.96 143.898 275.607 143.898C277.085 143.898 278.377 144.201 279.485 144.807C280.593 145.403 281.455 146.312 282.07 147.534C282.686 148.746 282.994 150.28 282.994 152.136V166H279.641V152.364C279.641 150.65 279.196 149.314 278.306 148.358C277.416 147.392 276.194 146.909 274.641 146.909C273.571 146.909 272.615 147.141 271.772 147.605C270.939 148.069 270.281 148.746 269.798 149.636C269.315 150.527 269.073 151.606 269.073 152.875Z" fill="black"/>
<path d="M113.272 214.398C112.079 214.379 110.886 214.152 109.693 213.716C108.5 213.28 107.411 212.546 106.426 211.514C105.441 210.473 104.65 209.066 104.054 207.295C103.457 205.515 103.159 203.28 103.159 200.591C103.159 198.015 103.4 195.733 103.883 193.744C104.366 191.746 105.067 190.065 105.985 188.702C106.904 187.329 108.012 186.287 109.309 185.577C110.616 184.866 112.089 184.511 113.727 184.511C115.356 184.511 116.805 184.838 118.074 185.491C119.352 186.135 120.394 187.035 121.199 188.19C122.003 189.346 122.524 190.676 122.761 192.182H119.295C118.973 190.875 118.348 189.791 117.42 188.929C116.492 188.067 115.261 187.636 113.727 187.636C111.473 187.636 109.698 188.616 108.4 190.577C107.112 192.537 106.464 195.288 106.454 198.83H106.681C107.212 198.025 107.842 197.338 108.571 196.77C109.309 196.192 110.124 195.747 111.014 195.435C111.904 195.122 112.846 194.966 113.841 194.966C115.507 194.966 117.032 195.383 118.414 196.216C119.797 197.04 120.905 198.181 121.738 199.639C122.572 201.088 122.988 202.75 122.988 204.625C122.988 206.424 122.586 208.072 121.781 209.568C120.976 211.055 119.844 212.239 118.386 213.119C116.937 213.991 115.233 214.417 113.272 214.398ZM113.272 211.273C114.466 211.273 115.536 210.974 116.483 210.378C117.439 209.781 118.192 208.981 118.741 207.977C119.3 206.973 119.579 205.856 119.579 204.625C119.579 203.422 119.309 202.329 118.77 201.344C118.239 200.349 117.505 199.559 116.568 198.972C115.64 198.384 114.579 198.091 113.386 198.091C112.486 198.091 111.648 198.271 110.872 198.631C110.095 198.981 109.413 199.464 108.826 200.08C108.249 200.695 107.794 201.401 107.463 202.196C107.131 202.982 106.966 203.811 106.966 204.682C106.966 205.837 107.235 206.917 107.775 207.92C108.324 208.924 109.073 209.734 110.02 210.349C110.976 210.965 112.06 211.273 113.272 211.273Z" fill="black"/>
<path d="M138.063 214.398C135.923 214.398 134.1 213.815 132.594 212.651C131.088 211.476 129.938 209.777 129.142 207.551C128.347 205.316 127.949 202.617 127.949 199.455C127.949 196.311 128.347 193.626 129.142 191.401C129.947 189.166 131.103 187.461 132.608 186.287C134.123 185.103 135.942 184.511 138.063 184.511C140.184 184.511 141.998 185.103 143.503 186.287C145.018 187.461 146.174 189.166 146.969 191.401C147.774 193.626 148.176 196.311 148.176 199.455C148.176 202.617 147.779 205.316 146.983 207.551C146.188 209.777 145.037 211.476 143.532 212.651C142.026 213.815 140.203 214.398 138.063 214.398ZM138.063 211.273C140.184 211.273 141.832 210.25 143.006 208.205C144.18 206.159 144.767 203.242 144.767 199.455C144.767 196.936 144.498 194.791 143.958 193.02C143.427 191.249 142.66 189.9 141.657 188.972C140.662 188.044 139.464 187.58 138.063 187.58C135.961 187.58 134.318 188.616 133.134 190.69C131.95 192.755 131.358 195.676 131.358 199.455C131.358 201.973 131.623 204.114 132.154 205.875C132.684 207.636 133.446 208.976 134.441 209.895C135.444 210.813 136.652 211.273 138.063 211.273Z" fill="black"/>
<path d="M168.404 208.545V207.011C168.404 205.951 168.622 204.98 169.057 204.099C169.502 203.209 170.146 202.499 170.989 201.969C171.841 201.429 172.873 201.159 174.086 201.159C175.317 201.159 176.349 201.429 177.182 201.969C178.016 202.499 178.645 203.209 179.071 204.099C179.498 204.98 179.711 205.951 179.711 207.011V208.545C179.711 209.606 179.493 210.581 179.057 211.472C178.631 212.352 177.997 213.063 177.154 213.602C176.32 214.133 175.298 214.398 174.086 214.398C172.855 214.398 171.818 214.133 170.975 213.602C170.132 213.063 169.493 212.352 169.057 211.472C168.622 210.581 168.404 209.606 168.404 208.545ZM171.301 207.011V208.545C171.301 209.426 171.51 210.217 171.926 210.918C172.343 211.609 173.063 211.955 174.086 211.955C175.08 211.955 175.781 211.609 176.188 210.918C176.605 210.217 176.813 209.426 176.813 208.545V207.011C176.813 206.131 176.614 205.345 176.216 204.653C175.819 203.953 175.108 203.602 174.086 203.602C173.091 203.602 172.376 203.953 171.941 204.653C171.515 205.345 171.301 206.131 171.301 207.011ZM153.915 191.898V190.364C153.915 189.303 154.133 188.332 154.569 187.452C155.014 186.562 155.658 185.851 156.5 185.321C157.353 184.781 158.385 184.511 159.597 184.511C160.828 184.511 161.86 184.781 162.694 185.321C163.527 185.851 164.157 186.562 164.583 187.452C165.009 188.332 165.222 189.303 165.222 190.364V191.898C165.222 192.958 165.004 193.934 164.569 194.824C164.142 195.705 163.508 196.415 162.665 196.955C161.832 197.485 160.809 197.75 159.597 197.75C158.366 197.75 157.329 197.485 156.486 196.955C155.643 196.415 155.004 195.705 154.569 194.824C154.133 193.934 153.915 192.958 153.915 191.898ZM156.813 190.364V191.898C156.813 192.778 157.021 193.569 157.438 194.27C157.855 194.961 158.574 195.307 159.597 195.307C160.591 195.307 161.292 194.961 161.699 194.27C162.116 193.569 162.324 192.778 162.324 191.898V190.364C162.324 189.483 162.125 188.697 161.728 188.006C161.33 187.305 160.62 186.955 159.597 186.955C158.603 186.955 157.888 187.305 157.452 188.006C157.026 188.697 156.813 189.483 156.813 190.364ZM154.995 214L174.995 184.909H178.233L158.233 214H154.995Z" fill="black"/>
</svg>
