<svg width="313" height="313" viewBox="0 0 313 313" fill="none" xmlns="http://www.w3.org/2000/svg">
<path d="M156.5 0C193.76 4.44314e-07 229.797 13.2933 258.131 37.4894C286.465 61.6855 305.236 95.1966 311.07 131.997C316.904 168.796 309.417 206.47 289.955 238.243C270.494 270.016 240.335 293.803 204.903 305.327C169.47 316.851 131.089 315.355 96.6606 301.108C62.2324 286.861 34.0166 260.799 17.0874 227.608C0.158092 194.416 -4.37384 156.274 4.30655 120.04C12.9869 83.8058 34.3101 51.8574 64.4414 29.9401L73.4936 42.3847C46.3251 62.1469 27.0986 90.9538 19.2718 123.625C11.445 156.296 15.5313 190.688 30.7959 220.616C46.0605 250.543 71.5018 274.043 102.545 286.889C133.587 299.734 168.195 301.083 200.143 290.693C232.092 280.302 259.285 258.854 276.833 230.205C294.38 201.557 301.131 167.587 295.871 134.406C290.611 101.225 273.685 71.0086 248.137 49.1918C222.589 27.3749 190.096 15.3887 156.5 15.3887V0Z" fill="#2EEA3B"/>
<path d="M36.6906 128C36.3781 127.044 35.9661 126.187 35.4548 125.429C34.9529 124.662 34.3515 124.009 33.6508 123.469C32.9595 122.929 32.1735 122.517 31.2928 122.233C30.4121 121.949 29.4462 121.807 28.3951 121.807C26.6716 121.807 25.1044 122.252 23.6934 123.142C22.2824 124.032 21.1603 125.344 20.3269 127.077C19.4936 128.81 19.0769 130.936 19.0769 133.455C19.0769 135.973 19.4983 138.099 20.3411 139.832C21.1839 141.565 22.325 142.877 23.7644 143.767C25.2038 144.657 26.8231 145.102 28.6224 145.102C30.289 145.102 31.7568 144.747 33.0258 144.037C34.3042 143.317 35.2985 142.304 36.0087 140.997C36.7284 139.681 37.0883 138.133 37.0883 136.352L38.1678 136.58H29.4178V133.455H40.4974V136.58C40.4974 138.975 39.986 141.059 38.9633 142.83C37.95 144.6 36.5485 145.973 34.7587 146.949C32.9784 147.915 30.933 148.398 28.6224 148.398C26.0466 148.398 23.7834 147.792 21.8326 146.58C19.8913 145.367 18.3762 143.644 17.2871 141.409C16.2076 139.174 15.6678 136.523 15.6678 133.455C15.6678 131.153 15.9756 129.084 16.5911 127.247C17.2161 125.401 18.0968 123.829 19.2332 122.531C20.3695 121.234 21.7142 120.24 23.2673 119.548C24.8203 118.857 26.5296 118.511 28.3951 118.511C29.9292 118.511 31.3591 118.743 32.6849 119.207C34.0201 119.662 35.2085 120.311 36.2502 121.153C37.3014 121.987 38.1773 122.986 38.8781 124.151C39.5788 125.306 40.0618 126.589 40.3269 128H36.6906Z" fill="black"/>
<path d="M46.0762 148V126.182H49.3148V129.477H49.5421C49.9398 128.398 50.6595 127.522 51.7012 126.849C52.7429 126.177 53.9171 125.841 55.2239 125.841C55.4701 125.841 55.7779 125.846 56.1472 125.855C56.5165 125.865 56.7959 125.879 56.9853 125.898V129.307C56.8717 129.278 56.6112 129.236 56.204 129.179C55.8063 129.113 55.3849 129.08 54.9398 129.08C53.8792 129.08 52.9323 129.302 52.0989 129.747C51.2751 130.183 50.6217 130.789 50.1387 131.565C49.6652 132.332 49.4285 133.208 49.4285 134.193V148H46.0762Z" fill="black"/>
<path d="M67.3795 148.511C65.9969 148.511 64.7422 148.251 63.6153 147.73C62.4884 147.2 61.5935 146.437 60.9306 145.443C60.2677 144.439 59.9363 143.227 59.9363 141.807C59.9363 140.557 60.1825 139.544 60.6749 138.767C61.1674 137.981 61.8255 137.366 62.6494 136.92C63.4732 136.475 64.3823 136.144 65.3766 135.926C66.3804 135.699 67.3889 135.519 68.4022 135.386C69.728 135.216 70.8028 135.088 71.6266 135.003C72.46 134.908 73.066 134.752 73.4448 134.534C73.8331 134.316 74.0272 133.937 74.0272 133.398V133.284C74.0272 131.883 73.6437 130.794 72.8766 130.017C72.1191 129.241 70.9685 128.852 69.4249 128.852C67.8245 128.852 66.5698 129.203 65.6607 129.903C64.7516 130.604 64.1124 131.352 63.7431 132.148L60.5613 131.011C61.1295 129.686 61.887 128.653 62.834 127.915C63.7905 127.167 64.8321 126.646 65.959 126.352C67.0954 126.049 68.2128 125.898 69.3113 125.898C70.0121 125.898 70.817 125.983 71.7261 126.153C72.6446 126.314 73.53 126.651 74.3823 127.162C75.2441 127.673 75.959 128.445 76.5272 129.477C77.0954 130.509 77.3795 131.892 77.3795 133.625V148H74.0272V145.045H73.8568C73.6295 145.519 73.2507 146.026 72.7204 146.565C72.1901 147.105 71.4846 147.564 70.6039 147.943C69.7232 148.322 68.6484 148.511 67.3795 148.511ZM67.8908 145.5C69.2166 145.5 70.334 145.24 71.2431 144.719C72.1617 144.198 72.853 143.526 73.317 142.702C73.7905 141.878 74.0272 141.011 74.0272 140.102V137.034C73.8852 137.205 73.5727 137.361 73.0897 137.503C72.6162 137.635 72.067 137.754 71.442 137.858C70.8264 137.953 70.2251 138.038 69.638 138.114C69.0603 138.18 68.5916 138.237 68.2318 138.284C67.3605 138.398 66.5461 138.582 65.7886 138.838C65.0405 139.084 64.4344 139.458 63.9704 139.96C63.5158 140.453 63.2886 141.125 63.2886 141.977C63.2886 143.142 63.7194 144.023 64.5812 144.619C65.4524 145.206 66.5556 145.5 67.8908 145.5Z" fill="black"/>
<path d="M83.4981 156.182V126.182H86.7367V129.648H87.1344C87.3807 129.269 87.7216 128.786 88.1572 128.199C88.6022 127.602 89.2367 127.072 90.0606 126.608C90.8939 126.134 92.0208 125.898 93.4413 125.898C95.2784 125.898 96.8977 126.357 98.2992 127.276C99.7007 128.194 100.794 129.496 101.58 131.182C102.366 132.867 102.759 134.856 102.759 137.148C102.759 139.458 102.366 141.461 101.58 143.156C100.794 144.842 99.7055 146.149 98.3134 147.077C96.9214 147.995 95.3163 148.455 93.4981 148.455C92.0966 148.455 90.9744 148.223 90.1316 147.759C89.2888 147.285 88.6401 146.75 88.1856 146.153C87.731 145.547 87.3807 145.045 87.1344 144.648H86.8504V156.182H83.4981ZM86.7935 137.091C86.7935 138.739 87.035 140.192 87.518 141.452C88.0009 142.702 88.7064 143.682 89.6344 144.392C90.5625 145.093 91.6988 145.443 93.0435 145.443C94.445 145.443 95.6146 145.074 96.5521 144.335C97.499 143.587 98.2093 142.583 98.6827 141.324C99.1657 140.055 99.4072 138.644 99.4072 137.091C99.4072 135.557 99.1704 134.174 98.6969 132.943C98.2329 131.703 97.5274 130.723 96.5805 130.003C95.643 129.274 94.464 128.909 93.0435 128.909C91.6799 128.909 90.5341 129.255 89.606 129.946C88.678 130.628 87.9772 131.584 87.5038 132.815C87.0303 134.037 86.7935 135.462 86.7935 137.091Z" fill="black"/>
<path d="M111.225 134.875V148H107.873V118.909H111.225V129.591H111.509C112.021 128.464 112.788 127.569 113.811 126.906C114.843 126.234 116.216 125.898 117.93 125.898C119.417 125.898 120.719 126.196 121.836 126.793C122.954 127.38 123.82 128.284 124.436 129.506C125.061 130.718 125.373 132.261 125.373 134.136V148H122.021V134.364C122.021 132.631 121.571 131.291 120.671 130.344C119.781 129.387 118.545 128.909 116.964 128.909C115.866 128.909 114.881 129.141 114.009 129.605C113.148 130.069 112.466 130.746 111.964 131.636C111.472 132.527 111.225 133.606 111.225 134.875Z" fill="black"/>
<path d="M131.506 148V126.182H134.858V148H131.506ZM133.21 122.545C132.557 122.545 131.994 122.323 131.52 121.878C131.056 121.433 130.824 120.898 130.824 120.273C130.824 119.648 131.056 119.113 131.52 118.668C131.994 118.223 132.557 118 133.21 118C133.864 118 134.423 118.223 134.887 118.668C135.36 119.113 135.597 119.648 135.597 120.273C135.597 120.898 135.36 121.433 134.887 121.878C134.423 122.323 133.864 122.545 133.21 122.545Z" fill="black"/>
<path d="M149.862 148.455C147.816 148.455 146.055 147.972 144.578 147.006C143.1 146.04 141.964 144.709 141.169 143.014C140.373 141.319 139.975 139.383 139.975 137.205C139.975 134.989 140.383 133.033 141.197 131.338C142.021 129.634 143.167 128.303 144.634 127.347C146.112 126.381 147.835 125.898 149.805 125.898C151.339 125.898 152.722 126.182 153.953 126.75C155.184 127.318 156.192 128.114 156.978 129.136C157.764 130.159 158.252 131.352 158.441 132.716H155.089C154.833 131.722 154.265 130.841 153.384 130.074C152.513 129.297 151.339 128.909 149.862 128.909C148.555 128.909 147.409 129.25 146.424 129.932C145.449 130.604 144.687 131.556 144.137 132.787C143.598 134.009 143.328 135.443 143.328 137.091C143.328 138.777 143.593 140.244 144.123 141.494C144.663 142.744 145.42 143.715 146.396 144.406C147.381 145.098 148.536 145.443 149.862 145.443C150.733 145.443 151.524 145.292 152.234 144.989C152.944 144.686 153.545 144.25 154.038 143.682C154.53 143.114 154.881 142.432 155.089 141.636H158.441C158.252 142.924 157.783 144.084 157.035 145.116C156.296 146.139 155.316 146.954 154.095 147.56C152.883 148.156 151.472 148.455 149.862 148.455Z" fill="black"/>
<path d="M184.024 148H175.046V118.909H184.421C187.243 118.909 189.658 119.491 191.666 120.656C193.673 121.812 195.212 123.473 196.282 125.642C197.352 127.801 197.887 130.386 197.887 133.398C197.887 136.428 197.348 139.037 196.268 141.224C195.188 143.402 193.616 145.079 191.552 146.253C189.488 147.418 186.978 148 184.024 148ZM178.569 144.875H183.796C186.202 144.875 188.195 144.411 189.776 143.483C191.358 142.555 192.537 141.234 193.313 139.52C194.09 137.806 194.478 135.765 194.478 133.398C194.478 131.049 194.095 129.027 193.328 127.332C192.561 125.628 191.415 124.321 189.89 123.412C188.366 122.493 186.467 122.034 184.194 122.034H178.569V144.875Z" fill="black"/>
<path d="M212.49 148.455C210.387 148.455 208.574 147.991 207.049 147.062C205.534 146.125 204.365 144.818 203.541 143.142C202.726 141.456 202.319 139.496 202.319 137.261C202.319 135.027 202.726 133.057 203.541 131.352C204.365 129.638 205.51 128.303 206.978 127.347C208.455 126.381 210.179 125.898 212.149 125.898C213.285 125.898 214.407 126.087 215.515 126.466C216.623 126.845 217.632 127.46 218.541 128.312C219.45 129.155 220.174 130.273 220.714 131.665C221.254 133.057 221.524 134.771 221.524 136.807V138.227H204.705V135.33H218.115C218.115 134.098 217.868 133 217.376 132.034C216.893 131.068 216.202 130.306 215.302 129.747C214.412 129.188 213.361 128.909 212.149 128.909C210.813 128.909 209.658 129.241 208.683 129.903C207.717 130.557 206.973 131.409 206.453 132.46C205.932 133.511 205.671 134.638 205.671 135.841V137.773C205.671 139.42 205.955 140.817 206.524 141.963C207.101 143.099 207.901 143.966 208.924 144.562C209.947 145.15 211.135 145.443 212.49 145.443C213.37 145.443 214.166 145.32 214.876 145.074C215.596 144.818 216.216 144.439 216.737 143.938C217.258 143.426 217.66 142.792 217.944 142.034L221.183 142.943C220.842 144.042 220.269 145.008 219.464 145.841C218.659 146.665 217.665 147.309 216.481 147.773C215.297 148.227 213.967 148.455 212.49 148.455Z" fill="black"/>
<path d="M242.078 131.068L239.066 131.92C238.877 131.419 238.598 130.931 238.228 130.457C237.868 129.974 237.376 129.577 236.751 129.264C236.126 128.952 235.326 128.795 234.35 128.795C233.015 128.795 231.902 129.103 231.012 129.719C230.132 130.325 229.691 131.097 229.691 132.034C229.691 132.867 229.994 133.526 230.6 134.009C231.206 134.491 232.153 134.894 233.441 135.216L236.68 136.011C238.631 136.485 240.084 137.209 241.041 138.185C241.997 139.151 242.475 140.396 242.475 141.92C242.475 143.17 242.116 144.288 241.396 145.273C240.686 146.258 239.691 147.034 238.413 147.602C237.134 148.17 235.648 148.455 233.953 148.455C231.727 148.455 229.885 147.972 228.427 147.006C226.969 146.04 226.045 144.629 225.657 142.773L228.839 141.977C229.142 143.152 229.715 144.032 230.558 144.619C231.41 145.206 232.523 145.5 233.896 145.5C235.458 145.5 236.699 145.169 237.617 144.506C238.545 143.833 239.009 143.028 239.009 142.091C239.009 141.333 238.744 140.699 238.214 140.188C237.684 139.667 236.869 139.278 235.771 139.023L232.134 138.17C230.136 137.697 228.669 136.963 227.731 135.969C226.803 134.965 226.339 133.71 226.339 132.205C226.339 130.973 226.685 129.884 227.376 128.938C228.077 127.991 229.028 127.247 230.231 126.707C231.443 126.168 232.816 125.898 234.35 125.898C236.509 125.898 238.205 126.371 239.436 127.318C240.676 128.265 241.557 129.515 242.078 131.068Z" fill="black"/>
<path d="M247.522 148V126.182H250.874V148H247.522ZM249.226 122.545C248.573 122.545 248.009 122.323 247.536 121.878C247.072 121.433 246.84 120.898 246.84 120.273C246.84 119.648 247.072 119.113 247.536 118.668C248.009 118.223 248.573 118 249.226 118C249.879 118 250.438 118.223 250.902 118.668C251.376 119.113 251.612 119.648 251.612 120.273C251.612 120.898 251.376 121.433 250.902 121.878C250.438 122.323 249.879 122.545 249.226 122.545Z" fill="black"/>
<path d="M265.821 156.636C264.201 156.636 262.809 156.428 261.644 156.011C260.48 155.604 259.509 155.064 258.732 154.392C257.965 153.729 257.355 153.019 256.9 152.261L259.571 150.386C259.874 150.784 260.257 151.239 260.721 151.75C261.185 152.271 261.82 152.721 262.625 153.099C263.439 153.488 264.504 153.682 265.821 153.682C267.582 153.682 269.036 153.256 270.181 152.403C271.327 151.551 271.9 150.216 271.9 148.398V143.966H271.616C271.37 144.364 271.019 144.856 270.565 145.443C270.12 146.021 269.476 146.537 268.633 146.991C267.8 147.437 266.673 147.659 265.252 147.659C263.491 147.659 261.91 147.242 260.508 146.409C259.116 145.576 258.013 144.364 257.198 142.773C256.393 141.182 255.991 139.25 255.991 136.977C255.991 134.742 256.384 132.796 257.17 131.139C257.956 129.473 259.05 128.185 260.451 127.276C261.853 126.357 263.472 125.898 265.309 125.898C266.73 125.898 267.857 126.134 268.69 126.608C269.533 127.072 270.177 127.602 270.622 128.199C271.076 128.786 271.427 129.269 271.673 129.648H272.014V126.182H275.252V148.625C275.252 150.5 274.826 152.025 273.974 153.199C273.131 154.383 271.995 155.249 270.565 155.798C269.144 156.357 267.563 156.636 265.821 156.636ZM265.707 144.648C267.052 144.648 268.188 144.34 269.116 143.724C270.044 143.109 270.749 142.223 271.232 141.068C271.715 139.913 271.957 138.53 271.957 136.92C271.957 135.348 271.72 133.961 271.247 132.759C270.773 131.556 270.072 130.614 269.144 129.932C268.216 129.25 267.071 128.909 265.707 128.909C264.286 128.909 263.103 129.269 262.156 129.989C261.218 130.708 260.513 131.674 260.039 132.886C259.575 134.098 259.343 135.443 259.343 136.92C259.343 138.436 259.58 139.776 260.053 140.94C260.536 142.096 261.247 143.005 262.184 143.668C263.131 144.321 264.305 144.648 265.707 144.648Z" fill="black"/>
<path d="M284.741 134.875V148H281.389V126.182H284.627V129.591H284.911C285.423 128.483 286.199 127.593 287.241 126.92C288.283 126.239 289.627 125.898 291.275 125.898C292.752 125.898 294.045 126.201 295.153 126.807C296.261 127.403 297.123 128.312 297.738 129.534C298.354 130.746 298.661 132.28 298.661 134.136V148H295.309V134.364C295.309 132.65 294.864 131.314 293.974 130.358C293.084 129.392 291.862 128.909 290.309 128.909C289.239 128.909 288.283 129.141 287.44 129.605C286.607 130.069 285.948 130.746 285.465 131.636C284.982 132.527 284.741 133.606 284.741 134.875Z" fill="black"/>
<path d="M128.542 166.511C129.736 166.521 130.929 166.748 132.122 167.193C133.315 167.638 134.404 168.377 135.389 169.409C136.374 170.432 137.165 171.829 137.761 173.599C138.358 175.37 138.656 177.591 138.656 180.261C138.656 182.847 138.41 185.143 137.917 187.151C137.435 189.149 136.734 190.834 135.815 192.207C134.906 193.58 133.798 194.622 132.491 195.332C131.194 196.043 129.726 196.398 128.088 196.398C126.459 196.398 125.006 196.076 123.727 195.432C122.458 194.778 121.417 193.874 120.602 192.719C119.797 191.554 119.281 190.205 119.054 188.67H122.52C122.832 190.006 123.453 191.109 124.381 191.98C125.318 192.842 126.554 193.273 128.088 193.273C130.332 193.273 132.103 192.293 133.4 190.332C134.707 188.372 135.361 185.602 135.361 182.023H135.133C134.603 182.818 133.973 183.505 133.244 184.082C132.515 184.66 131.705 185.105 130.815 185.418C129.925 185.73 128.978 185.886 127.974 185.886C126.308 185.886 124.778 185.474 123.386 184.651C122.004 183.817 120.896 182.676 120.062 181.227C119.238 179.769 118.827 178.102 118.827 176.227C118.827 174.447 119.224 172.818 120.02 171.341C120.825 169.854 121.952 168.67 123.4 167.79C124.859 166.909 126.573 166.483 128.542 166.511ZM128.542 169.636C127.349 169.636 126.274 169.935 125.318 170.531C124.371 171.118 123.618 171.914 123.06 172.918C122.51 173.912 122.236 175.015 122.236 176.227C122.236 177.439 122.501 178.543 123.031 179.537C123.571 180.522 124.305 181.308 125.233 181.895C126.17 182.473 127.236 182.761 128.429 182.761C129.328 182.761 130.167 182.586 130.943 182.236C131.72 181.876 132.397 181.388 132.974 180.773C133.561 180.148 134.021 179.442 134.352 178.656C134.684 177.861 134.849 177.032 134.849 176.17C134.849 175.034 134.575 173.969 134.025 172.974C133.486 171.98 132.738 171.175 131.781 170.56C130.834 169.944 129.755 169.636 128.542 169.636Z" fill="black"/>
<path d="M153.731 196.398C151.591 196.398 149.768 195.815 148.262 194.651C146.756 193.476 145.606 191.777 144.81 189.551C144.015 187.316 143.617 184.617 143.617 181.455C143.617 178.311 144.015 175.626 144.81 173.401C145.615 171.166 146.77 169.461 148.276 168.287C149.791 167.103 151.609 166.511 153.731 166.511C155.852 166.511 157.665 167.103 159.171 168.287C160.686 169.461 161.841 171.166 162.637 173.401C163.442 175.626 163.844 178.311 163.844 181.455C163.844 184.617 163.447 187.316 162.651 189.551C161.856 191.777 160.705 193.476 159.199 194.651C157.694 195.815 155.871 196.398 153.731 196.398ZM153.731 193.273C155.852 193.273 157.5 192.25 158.674 190.205C159.848 188.159 160.435 185.242 160.435 181.455C160.435 178.936 160.165 176.791 159.626 175.02C159.095 173.249 158.328 171.9 157.324 170.972C156.33 170.044 155.132 169.58 153.731 169.58C151.628 169.58 149.985 170.616 148.802 172.69C147.618 174.755 147.026 177.676 147.026 181.455C147.026 183.973 147.291 186.114 147.822 187.875C148.352 189.636 149.114 190.976 150.109 191.895C151.112 192.813 152.32 193.273 153.731 193.273Z" fill="black"/>
<path d="M184.072 190.545V189.011C184.072 187.951 184.289 186.98 184.725 186.099C185.17 185.209 185.814 184.499 186.657 183.969C187.509 183.429 188.541 183.159 189.753 183.159C190.984 183.159 192.017 183.429 192.85 183.969C193.683 184.499 194.313 185.209 194.739 186.099C195.165 186.98 195.378 187.951 195.378 189.011V190.545C195.378 191.606 195.161 192.581 194.725 193.472C194.299 194.352 193.664 195.063 192.822 195.602C191.988 196.133 190.966 196.398 189.753 196.398C188.522 196.398 187.485 196.133 186.643 195.602C185.8 195.063 185.161 194.352 184.725 193.472C184.289 192.581 184.072 191.606 184.072 190.545ZM186.969 189.011V190.545C186.969 191.426 187.178 192.217 187.594 192.918C188.011 193.609 188.731 193.955 189.753 193.955C190.748 193.955 191.448 193.609 191.856 192.918C192.272 192.217 192.481 191.426 192.481 190.545V189.011C192.481 188.131 192.282 187.345 191.884 186.653C191.486 185.953 190.776 185.602 189.753 185.602C188.759 185.602 188.044 185.953 187.609 186.653C187.182 187.345 186.969 188.131 186.969 189.011ZM169.583 173.898V172.364C169.583 171.303 169.801 170.332 170.236 169.452C170.681 168.562 171.325 167.851 172.168 167.321C173.02 166.781 174.053 166.511 175.265 166.511C176.496 166.511 177.528 166.781 178.361 167.321C179.195 167.851 179.824 168.562 180.251 169.452C180.677 170.332 180.89 171.303 180.89 172.364V173.898C180.89 174.958 180.672 175.934 180.236 176.824C179.81 177.705 179.176 178.415 178.333 178.955C177.5 179.485 176.477 179.75 175.265 179.75C174.034 179.75 172.997 179.485 172.154 178.955C171.311 178.415 170.672 177.705 170.236 176.824C169.801 175.934 169.583 174.958 169.583 173.898ZM172.481 172.364V173.898C172.481 174.778 172.689 175.569 173.106 176.27C173.522 176.961 174.242 177.307 175.265 177.307C176.259 177.307 176.96 176.961 177.367 176.27C177.784 175.569 177.992 174.778 177.992 173.898V172.364C177.992 171.483 177.793 170.697 177.395 170.006C176.998 169.305 176.287 168.955 175.265 168.955C174.27 168.955 173.555 169.305 173.12 170.006C172.694 170.697 172.481 171.483 172.481 172.364ZM170.663 196L190.663 166.909H193.901L173.901 196H170.663Z" fill="black"/>
</svg>
