<svg width="298" height="206" viewBox="0 0 298 206" fill="none" xmlns="http://www.w3.org/2000/svg">
<path d="M140.832 0C161.384 2.45079e-07 181.735 4.04799 200.722 11.9129C219.71 19.7777 236.962 31.3054 251.495 45.8378C266.027 60.3702 277.555 77.6226 285.42 96.6101C293.284 115.598 297.332 135.948 297.332 156.5H281.944C281.944 137.969 278.294 119.619 271.202 102.499C264.111 85.3786 253.717 69.8227 240.613 56.7193C227.51 43.6159 211.954 33.2217 194.833 26.1302C177.713 19.0387 159.363 15.3887 140.832 15.3887V0Z" fill="#EA2E44"/>
<path d="M21.0227 137C20.7102 136.044 20.2983 135.187 19.7869 134.429C19.285 133.662 18.6837 133.009 17.983 132.469C17.2917 131.929 16.5057 131.517 15.625 131.233C14.7443 130.949 13.7784 130.807 12.7273 130.807C11.0038 130.807 9.43655 131.252 8.02557 132.142C6.61458 133.032 5.49242 134.344 4.65909 136.077C3.82576 137.81 3.40909 139.936 3.40909 142.455C3.40909 144.973 3.83049 147.099 4.6733 148.832C5.5161 150.565 6.6572 151.877 8.09659 152.767C9.53599 153.657 11.1553 154.102 12.9545 154.102C14.6212 154.102 16.089 153.747 17.358 153.037C18.6364 152.317 19.6307 151.304 20.3409 149.997C21.0606 148.681 21.4205 147.133 21.4205 145.352L22.5 145.58H13.75V142.455H24.8295V145.58C24.8295 147.975 24.3182 150.059 23.2955 151.83C22.2822 153.6 20.8807 154.973 19.0909 155.949C17.3106 156.915 15.2652 157.398 12.9545 157.398C10.3788 157.398 8.11553 156.792 6.16477 155.58C4.22349 154.367 2.70833 152.644 1.61932 150.409C0.539773 148.174 0 145.523 0 142.455C0 140.153 0.307765 138.084 0.923295 136.247C1.5483 134.401 2.42898 132.829 3.56534 131.531C4.7017 130.234 6.0464 129.24 7.59943 128.548C9.15246 127.857 10.8617 127.511 12.7273 127.511C14.2614 127.511 15.6913 127.743 17.017 128.207C18.3523 128.662 19.5407 129.311 20.5824 130.153C21.6335 130.987 22.5095 131.986 23.2102 133.151C23.911 134.306 24.3939 135.589 24.6591 137H21.0227Z" fill="black"/>
<path d="M30.4084 157V135.182H33.647V138.477H33.8743C34.272 137.398 34.9917 136.522 36.0334 135.849C37.075 135.177 38.2493 134.841 39.5561 134.841C39.8023 134.841 40.1101 134.846 40.4794 134.855C40.8487 134.865 41.1281 134.879 41.3175 134.898V138.307C41.2038 138.278 40.9434 138.236 40.5362 138.179C40.1385 138.113 39.7171 138.08 39.272 138.08C38.2114 138.08 37.2644 138.302 36.4311 138.747C35.6072 139.183 34.9538 139.789 34.4709 140.565C33.9974 141.332 33.7607 142.208 33.7607 143.193V157H30.4084Z" fill="black"/>
<path d="M51.7116 157.511C50.3291 157.511 49.0743 157.251 47.9474 156.73C46.8206 156.2 45.9257 155.437 45.2628 154.443C44.5999 153.439 44.2685 152.227 44.2685 150.807C44.2685 149.557 44.5147 148.544 45.0071 147.767C45.4995 146.981 46.1577 146.366 46.9815 145.92C47.8054 145.475 48.7145 145.144 49.7088 144.926C50.7126 144.699 51.7211 144.519 52.7344 144.386C54.0601 144.216 55.1349 144.088 55.9588 144.003C56.7921 143.908 57.3982 143.752 57.777 143.534C58.1652 143.316 58.3594 142.937 58.3594 142.398V142.284C58.3594 140.883 57.9759 139.794 57.2088 139.017C56.4512 138.241 55.3007 137.852 53.7571 137.852C52.1567 137.852 50.902 138.203 49.9929 138.903C49.0838 139.604 48.4446 140.352 48.0753 141.148L44.8935 140.011C45.4616 138.686 46.2192 137.653 47.1662 136.915C48.1226 136.167 49.1643 135.646 50.2912 135.352C51.4276 135.049 52.545 134.898 53.6435 134.898C54.3442 134.898 55.1491 134.983 56.0582 135.153C56.9768 135.314 57.8622 135.651 58.7145 136.162C59.5762 136.673 60.2912 137.445 60.8594 138.477C61.4276 139.509 61.7116 140.892 61.7116 142.625V157H58.3594V154.045H58.1889C57.9616 154.519 57.5829 155.026 57.0526 155.565C56.5223 156.105 55.8168 156.564 54.9361 156.943C54.0554 157.322 52.9806 157.511 51.7116 157.511ZM52.223 154.5C53.5488 154.5 54.6662 154.24 55.5753 153.719C56.4938 153.198 57.1851 152.526 57.6491 151.702C58.1226 150.878 58.3594 150.011 58.3594 149.102V146.034C58.2173 146.205 57.9048 146.361 57.4219 146.503C56.9484 146.635 56.3991 146.754 55.7741 146.858C55.1586 146.953 54.5573 147.038 53.9702 147.114C53.3925 147.18 52.9238 147.237 52.5639 147.284C51.6927 147.398 50.8783 147.582 50.1207 147.838C49.3726 148.084 48.7666 148.458 48.3026 148.96C47.848 149.453 47.6207 150.125 47.6207 150.977C47.6207 152.142 48.0516 153.023 48.9134 153.619C49.7846 154.206 50.8878 154.5 52.223 154.5Z" fill="black"/>
<path d="M67.8303 165.182V135.182H71.0689V138.648H71.4666C71.7128 138.269 72.0537 137.786 72.4893 137.199C72.9344 136.602 73.5689 136.072 74.3928 135.608C75.2261 135.134 76.353 134.898 77.7734 134.898C79.6106 134.898 81.2299 135.357 82.6314 136.276C84.0329 137.194 85.1267 138.496 85.9126 140.182C86.6986 141.867 87.0916 143.856 87.0916 146.148C87.0916 148.458 86.6986 150.461 85.9126 152.156C85.1267 153.842 84.0376 155.149 82.6456 156.077C81.2536 156.995 79.6484 157.455 77.8303 157.455C76.4287 157.455 75.3066 157.223 74.4638 156.759C73.621 156.285 72.9723 155.75 72.5178 155.153C72.0632 154.547 71.7128 154.045 71.4666 153.648H71.1825V165.182H67.8303ZM71.1257 146.091C71.1257 147.739 71.3672 149.192 71.8501 150.452C72.3331 151.702 73.0386 152.682 73.9666 153.392C74.8947 154.093 76.031 154.443 77.3757 154.443C78.7772 154.443 79.9467 154.074 80.8842 153.335C81.8312 152.587 82.5414 151.583 83.0149 150.324C83.4979 149.055 83.7393 147.644 83.7393 146.091C83.7393 144.557 83.5026 143.174 83.0291 141.943C82.5651 140.703 81.8596 139.723 80.9126 139.003C79.9751 138.274 78.7962 137.909 77.3757 137.909C76.0121 137.909 74.8662 138.255 73.9382 138.946C73.0102 139.628 72.3094 140.584 71.8359 141.815C71.3625 143.037 71.1257 144.462 71.1257 146.091Z" fill="black"/>
<path d="M95.5575 143.875V157H92.2053V127.909H95.5575V138.591H95.8416C96.353 137.464 97.12 136.569 98.1428 135.906C99.175 135.234 100.548 134.898 102.262 134.898C103.749 134.898 105.051 135.196 106.168 135.793C107.286 136.38 108.152 137.284 108.768 138.506C109.393 139.718 109.705 141.261 109.705 143.136V157H106.353V143.364C106.353 141.631 105.903 140.291 105.004 139.344C104.113 138.387 102.878 137.909 101.296 137.909C100.198 137.909 99.2128 138.141 98.3416 138.605C97.4799 139.069 96.7981 139.746 96.2962 140.636C95.8037 141.527 95.5575 142.606 95.5575 143.875Z" fill="black"/>
<path d="M115.838 157V135.182H119.19V157H115.838ZM117.543 131.545C116.889 131.545 116.326 131.323 115.852 130.878C115.388 130.433 115.156 129.898 115.156 129.273C115.156 128.648 115.388 128.113 115.852 127.668C116.326 127.223 116.889 127 117.543 127C118.196 127 118.755 127.223 119.219 127.668C119.692 128.113 119.929 128.648 119.929 129.273C119.929 129.898 119.692 130.433 119.219 130.878C118.755 131.323 118.196 131.545 117.543 131.545Z" fill="black"/>
<path d="M134.194 157.455C132.148 157.455 130.387 156.972 128.91 156.006C127.433 155.04 126.296 153.709 125.501 152.014C124.705 150.319 124.308 148.383 124.308 146.205C124.308 143.989 124.715 142.033 125.529 140.338C126.353 138.634 127.499 137.303 128.967 136.347C130.444 135.381 132.167 134.898 134.137 134.898C135.671 134.898 137.054 135.182 138.285 135.75C139.516 136.318 140.524 137.114 141.31 138.136C142.096 139.159 142.584 140.352 142.773 141.716H139.421C139.165 140.722 138.597 139.841 137.717 139.074C136.845 138.297 135.671 137.909 134.194 137.909C132.887 137.909 131.741 138.25 130.756 138.932C129.781 139.604 129.019 140.556 128.469 141.787C127.93 143.009 127.66 144.443 127.66 146.091C127.66 147.777 127.925 149.244 128.455 150.494C128.995 151.744 129.753 152.715 130.728 153.406C131.713 154.098 132.868 154.443 134.194 154.443C135.065 154.443 135.856 154.292 136.566 153.989C137.276 153.686 137.878 153.25 138.37 152.682C138.862 152.114 139.213 151.432 139.421 150.636H142.773C142.584 151.924 142.115 153.084 141.367 154.116C140.629 155.139 139.648 155.954 138.427 156.56C137.215 157.156 135.804 157.455 134.194 157.455Z" fill="black"/>
<path d="M168.356 157H159.379V127.909H168.754C171.576 127.909 173.99 128.491 175.998 129.656C178.005 130.812 179.544 132.473 180.614 134.642C181.684 136.801 182.219 139.386 182.219 142.398C182.219 145.428 181.68 148.037 180.6 150.224C179.521 152.402 177.949 154.079 175.884 155.253C173.82 156.418 171.31 157 168.356 157ZM162.901 153.875H168.129C170.534 153.875 172.527 153.411 174.109 152.483C175.69 151.555 176.869 150.234 177.646 148.52C178.422 146.806 178.81 144.765 178.81 142.398C178.81 140.049 178.427 138.027 177.66 136.332C176.893 134.628 175.747 133.321 174.222 132.412C172.698 131.493 170.799 131.034 168.526 131.034H162.901V153.875Z" fill="black"/>
<path d="M196.822 157.455C194.719 157.455 192.906 156.991 191.381 156.062C189.866 155.125 188.697 153.818 187.873 152.142C187.058 150.456 186.651 148.496 186.651 146.261C186.651 144.027 187.058 142.057 187.873 140.352C188.697 138.638 189.843 137.303 191.31 136.347C192.788 135.381 194.511 134.898 196.481 134.898C197.617 134.898 198.739 135.087 199.847 135.466C200.955 135.845 201.964 136.46 202.873 137.312C203.782 138.155 204.506 139.273 205.046 140.665C205.586 142.057 205.856 143.771 205.856 145.807V147.227H189.038V144.33H202.447C202.447 143.098 202.201 142 201.708 141.034C201.225 140.068 200.534 139.306 199.634 138.747C198.744 138.188 197.693 137.909 196.481 137.909C195.146 137.909 193.99 138.241 193.015 138.903C192.049 139.557 191.306 140.409 190.785 141.46C190.264 142.511 190.004 143.638 190.004 144.841V146.773C190.004 148.42 190.288 149.817 190.856 150.963C191.433 152.099 192.234 152.966 193.256 153.562C194.279 154.15 195.468 154.443 196.822 154.443C197.702 154.443 198.498 154.32 199.208 154.074C199.928 153.818 200.548 153.439 201.069 152.938C201.59 152.426 201.992 151.792 202.276 151.034L205.515 151.943C205.174 153.042 204.601 154.008 203.796 154.841C202.991 155.665 201.997 156.309 200.813 156.773C199.63 157.227 198.299 157.455 196.822 157.455Z" fill="black"/>
<path d="M226.41 140.068L223.398 140.92C223.209 140.419 222.93 139.931 222.56 139.457C222.201 138.974 221.708 138.577 221.083 138.264C220.458 137.952 219.658 137.795 218.683 137.795C217.347 137.795 216.235 138.103 215.344 138.719C214.464 139.325 214.023 140.097 214.023 141.034C214.023 141.867 214.326 142.526 214.933 143.009C215.539 143.491 216.486 143.894 217.773 144.216L221.012 145.011C222.963 145.485 224.416 146.209 225.373 147.185C226.329 148.151 226.808 149.396 226.808 150.92C226.808 152.17 226.448 153.288 225.728 154.273C225.018 155.258 224.023 156.034 222.745 156.602C221.467 157.17 219.98 157.455 218.285 157.455C216.059 157.455 214.218 156.972 212.759 156.006C211.301 155.04 210.378 153.629 209.989 151.773L213.171 150.977C213.474 152.152 214.047 153.032 214.89 153.619C215.742 154.206 216.855 154.5 218.228 154.5C219.79 154.5 221.031 154.169 221.95 153.506C222.878 152.833 223.342 152.028 223.342 151.091C223.342 150.333 223.076 149.699 222.546 149.188C222.016 148.667 221.201 148.278 220.103 148.023L216.467 147.17C214.469 146.697 213.001 145.963 212.063 144.969C211.135 143.965 210.671 142.71 210.671 141.205C210.671 139.973 211.017 138.884 211.708 137.938C212.409 136.991 213.361 136.247 214.563 135.707C215.775 135.168 217.148 134.898 218.683 134.898C220.842 134.898 222.537 135.371 223.768 136.318C225.008 137.265 225.889 138.515 226.41 140.068Z" fill="black"/>
<path d="M231.854 157V135.182H235.206V157H231.854ZM233.558 131.545C232.905 131.545 232.341 131.323 231.868 130.878C231.404 130.433 231.172 129.898 231.172 129.273C231.172 128.648 231.404 128.113 231.868 127.668C232.341 127.223 232.905 127 233.558 127C234.212 127 234.77 127.223 235.234 127.668C235.708 128.113 235.945 128.648 235.945 129.273C235.945 129.898 235.708 130.433 235.234 130.878C234.77 131.323 234.212 131.545 233.558 131.545Z" fill="black"/>
<path d="M250.153 165.636C248.533 165.636 247.141 165.428 245.977 165.011C244.812 164.604 243.841 164.064 243.065 163.392C242.298 162.729 241.687 162.019 241.232 161.261L243.903 159.386C244.206 159.784 244.589 160.239 245.053 160.75C245.517 161.271 246.152 161.721 246.957 162.099C247.771 162.488 248.836 162.682 250.153 162.682C251.914 162.682 253.368 162.256 254.513 161.403C255.659 160.551 256.232 159.216 256.232 157.398V152.966H255.948C255.702 153.364 255.352 153.856 254.897 154.443C254.452 155.021 253.808 155.537 252.965 155.991C252.132 156.437 251.005 156.659 249.585 156.659C247.823 156.659 246.242 156.242 244.84 155.409C243.448 154.576 242.345 153.364 241.531 151.773C240.726 150.182 240.323 148.25 240.323 145.977C240.323 143.742 240.716 141.796 241.502 140.139C242.288 138.473 243.382 137.185 244.783 136.276C246.185 135.357 247.804 134.898 249.641 134.898C251.062 134.898 252.189 135.134 253.022 135.608C253.865 136.072 254.509 136.602 254.954 137.199C255.408 137.786 255.759 138.269 256.005 138.648H256.346V135.182H259.585V157.625C259.585 159.5 259.158 161.025 258.306 162.199C257.463 163.383 256.327 164.249 254.897 164.798C253.477 165.357 251.895 165.636 250.153 165.636ZM250.039 153.648C251.384 153.648 252.52 153.34 253.448 152.724C254.376 152.109 255.082 151.223 255.565 150.068C256.048 148.913 256.289 147.53 256.289 145.92C256.289 144.348 256.052 142.961 255.579 141.759C255.105 140.556 254.405 139.614 253.477 138.932C252.549 138.25 251.403 137.909 250.039 137.909C248.619 137.909 247.435 138.269 246.488 138.989C245.55 139.708 244.845 140.674 244.371 141.886C243.907 143.098 243.675 144.443 243.675 145.92C243.675 147.436 243.912 148.776 244.386 149.94C244.869 151.096 245.579 152.005 246.516 152.668C247.463 153.321 248.638 153.648 250.039 153.648Z" fill="black"/>
<path d="M269.073 143.875V157H265.721V135.182H268.96V138.591H269.244C269.755 137.483 270.531 136.593 271.573 135.92C272.615 135.239 273.96 134.898 275.607 134.898C277.085 134.898 278.377 135.201 279.485 135.807C280.593 136.403 281.455 137.312 282.07 138.534C282.686 139.746 282.994 141.28 282.994 143.136V157H279.641V143.364C279.641 141.65 279.196 140.314 278.306 139.358C277.416 138.392 276.194 137.909 274.641 137.909C273.571 137.909 272.615 138.141 271.772 138.605C270.939 139.069 270.281 139.746 269.798 140.636C269.315 141.527 269.073 142.606 269.073 143.875Z" fill="black"/>
<path d="M104.316 205V202.443L113.919 191.932C115.046 190.701 115.974 189.631 116.703 188.722C117.432 187.803 117.972 186.941 118.322 186.136C118.682 185.322 118.862 184.47 118.862 183.58C118.862 182.557 118.616 181.671 118.123 180.923C117.64 180.175 116.977 179.598 116.135 179.19C115.292 178.783 114.345 178.58 113.294 178.58C112.176 178.58 111.201 178.812 110.368 179.276C109.544 179.73 108.904 180.369 108.45 181.193C108.005 182.017 107.782 182.983 107.782 184.091H104.43C104.43 182.386 104.823 180.89 105.609 179.602C106.395 178.314 107.465 177.311 108.819 176.591C110.183 175.871 111.712 175.511 113.407 175.511C115.112 175.511 116.622 175.871 117.939 176.591C119.255 177.311 120.287 178.281 121.035 179.503C121.783 180.724 122.157 182.083 122.157 183.58C122.157 184.65 121.963 185.696 121.575 186.719C121.196 187.732 120.533 188.864 119.586 190.114C118.649 191.354 117.347 192.869 115.68 194.659L109.146 201.648V201.875H122.669V205H104.316Z" fill="black"/>
<path d="M137.626 205.398C135.959 205.398 134.458 205.066 133.123 204.403C131.788 203.741 130.718 202.831 129.913 201.676C129.108 200.521 128.668 199.205 128.592 197.727H132.001C132.134 199.044 132.73 200.133 133.791 200.994C134.861 201.847 136.139 202.273 137.626 202.273C138.819 202.273 139.88 201.993 140.808 201.435C141.745 200.876 142.479 200.109 143.01 199.134C143.549 198.149 143.819 197.036 143.819 195.795C143.819 194.527 143.54 193.395 142.981 192.401C142.432 191.397 141.674 190.606 140.708 190.028C139.743 189.451 138.639 189.157 137.399 189.148C136.509 189.138 135.595 189.276 134.657 189.56C133.72 189.834 132.948 190.189 132.342 190.625L129.047 190.227L130.808 175.909H145.922V179.034H133.762L132.74 187.614H132.91C133.507 187.14 134.255 186.747 135.154 186.435C136.054 186.122 136.992 185.966 137.967 185.966C139.747 185.966 141.333 186.392 142.725 187.244C144.127 188.087 145.225 189.242 146.021 190.71C146.826 192.178 147.228 193.854 147.228 195.739C147.228 197.595 146.812 199.252 145.978 200.71C145.154 202.159 144.018 203.305 142.569 204.148C141.12 204.981 139.473 205.398 137.626 205.398Z" fill="black"/>
<path d="M167.701 199.545V198.011C167.701 196.951 167.918 195.98 168.354 195.099C168.799 194.209 169.443 193.499 170.286 192.969C171.138 192.429 172.17 192.159 173.382 192.159C174.614 192.159 175.646 192.429 176.479 192.969C177.312 193.499 177.942 194.209 178.368 195.099C178.794 195.98 179.007 196.951 179.007 198.011V199.545C179.007 200.606 178.79 201.581 178.354 202.472C177.928 203.352 177.293 204.063 176.451 204.602C175.617 205.133 174.595 205.398 173.382 205.398C172.151 205.398 171.114 205.133 170.272 204.602C169.429 204.063 168.79 203.352 168.354 202.472C167.918 201.581 167.701 200.606 167.701 199.545ZM170.598 198.011V199.545C170.598 200.426 170.807 201.217 171.223 201.918C171.64 202.609 172.36 202.955 173.382 202.955C174.377 202.955 175.078 202.609 175.485 201.918C175.901 201.217 176.11 200.426 176.11 199.545V198.011C176.11 197.131 175.911 196.345 175.513 195.653C175.115 194.953 174.405 194.602 173.382 194.602C172.388 194.602 171.673 194.953 171.238 195.653C170.811 196.345 170.598 197.131 170.598 198.011ZM153.212 182.898V181.364C153.212 180.303 153.43 179.332 153.865 178.452C154.31 177.562 154.954 176.851 155.797 176.321C156.649 175.781 157.682 175.511 158.894 175.511C160.125 175.511 161.157 175.781 161.99 176.321C162.824 176.851 163.453 177.562 163.88 178.452C164.306 179.332 164.519 180.303 164.519 181.364V182.898C164.519 183.958 164.301 184.934 163.865 185.824C163.439 186.705 162.805 187.415 161.962 187.955C161.129 188.485 160.106 188.75 158.894 188.75C157.663 188.75 156.626 188.485 155.783 187.955C154.94 187.415 154.301 186.705 153.865 185.824C153.43 184.934 153.212 183.958 153.212 182.898ZM156.11 181.364V182.898C156.11 183.778 156.318 184.569 156.735 185.27C157.151 185.961 157.871 186.307 158.894 186.307C159.888 186.307 160.589 185.961 160.996 185.27C161.413 184.569 161.621 183.778 161.621 182.898V181.364C161.621 180.483 161.422 179.697 161.025 179.006C160.627 178.305 159.917 177.955 158.894 177.955C157.899 177.955 157.185 178.305 156.749 179.006C156.323 179.697 156.11 180.483 156.11 181.364ZM154.292 205L174.292 175.909H177.53L157.53 205H154.292Z" fill="black"/>
</svg>
