<svg width="270" height="206" viewBox="0 0 270 206" fill="none" xmlns="http://www.w3.org/2000/svg">
<path d="M112.821 0C133.373 2.45079e-07 153.724 4.04799 172.711 11.9129C191.698 19.7777 208.951 31.3054 223.483 45.8378C238.016 60.3702 249.543 77.6226 257.408 96.6101C265.273 115.598 269.321 135.948 269.321 156.5H253.932C253.932 137.969 250.282 119.619 243.191 102.499C236.099 85.3786 225.705 69.8227 212.602 56.7193C199.498 43.6159 183.942 33.2217 166.822 26.1302C149.702 19.0387 131.352 15.3887 112.821 15.3887V0Z" fill="#EA2E44"/>
<path d="M0 157V127.909H9.82955C12.1023 127.909 13.9678 128.297 15.4261 129.074C16.8845 129.841 17.964 130.897 18.6648 132.241C19.3655 133.586 19.7159 135.116 19.7159 136.83C19.7159 138.544 19.3655 140.063 18.6648 141.389C17.964 142.715 16.8892 143.757 15.4403 144.514C13.9915 145.262 12.1402 145.636 9.88636 145.636H1.93182V142.455H9.77273C11.3258 142.455 12.5758 142.227 13.5227 141.773C14.4792 141.318 15.1705 140.674 15.5966 139.841C16.0322 138.998 16.25 137.994 16.25 136.83C16.25 135.665 16.0322 134.647 15.5966 133.776C15.161 132.904 14.465 132.232 13.5085 131.759C12.5521 131.276 11.2879 131.034 9.71591 131.034H3.52273V157H0ZM13.6932 143.932L20.8523 157H16.7614L9.71591 143.932H13.6932Z" fill="black"/>
<path d="M33.7607 157.455C31.791 157.455 30.0627 156.986 28.576 156.048C27.0987 155.111 25.9434 153.799 25.1101 152.114C24.2862 150.428 23.8743 148.458 23.8743 146.205C23.8743 143.932 24.2862 141.948 25.1101 140.253C25.9434 138.558 27.0987 137.241 28.576 136.304C30.0627 135.366 31.791 134.898 33.7607 134.898C35.7304 134.898 37.4538 135.366 38.9311 136.304C40.4179 137.241 41.5732 138.558 42.397 140.253C43.2304 141.948 43.647 143.932 43.647 146.205C43.647 148.458 43.2304 150.428 42.397 152.114C41.5732 153.799 40.4179 155.111 38.9311 156.048C37.4538 156.986 35.7304 157.455 33.7607 157.455ZM33.7607 154.443C35.2569 154.443 36.4879 154.06 37.4538 153.293C38.4197 152.526 39.1347 151.517 39.5987 150.267C40.0627 149.017 40.2947 147.663 40.2947 146.205C40.2947 144.746 40.0627 143.387 39.5987 142.128C39.1347 140.868 38.4197 139.85 37.4538 139.074C36.4879 138.297 35.2569 137.909 33.7607 137.909C32.2644 137.909 31.0334 138.297 30.0675 139.074C29.1016 139.85 28.3866 140.868 27.9226 142.128C27.4586 143.387 27.2266 144.746 27.2266 146.205C27.2266 147.663 27.4586 149.017 27.9226 150.267C28.3866 151.517 29.1016 152.526 30.0675 153.293C31.0334 154.06 32.2644 154.443 33.7607 154.443Z" fill="black"/>
<path d="M48.7642 157V135.182H52.0028V138.591H52.2869C52.7415 137.426 53.4754 136.522 54.4886 135.878C55.5019 135.224 56.7188 134.898 58.1392 134.898C59.5786 134.898 60.7765 135.224 61.733 135.878C62.6989 136.522 63.4517 137.426 63.9915 138.591H64.2188C64.7775 137.464 65.6155 136.569 66.733 135.906C67.8504 135.234 69.1903 134.898 70.7528 134.898C72.7036 134.898 74.2992 135.509 75.5398 136.73C76.7803 137.942 77.4006 139.831 77.4006 142.398V157H74.0483V142.398C74.0483 140.788 73.608 139.637 72.7273 138.946C71.8466 138.255 70.8097 137.909 69.6165 137.909C68.0824 137.909 66.8939 138.373 66.0511 139.301C65.2083 140.22 64.7869 141.384 64.7869 142.795V157H61.3778V142.057C61.3778 140.816 60.9754 139.817 60.1705 139.06C59.3655 138.293 58.3286 137.909 57.0597 137.909C56.1884 137.909 55.3741 138.141 54.6165 138.605C53.8684 139.069 53.2623 139.713 52.7983 140.537C52.3437 141.351 52.1165 142.294 52.1165 143.364V157H48.7642Z" fill="black"/>
<path d="M89.9503 157.511C88.5677 157.511 87.313 157.251 86.1861 156.73C85.0592 156.2 84.1643 155.437 83.5014 154.443C82.8385 153.439 82.5071 152.227 82.5071 150.807C82.5071 149.557 82.7533 148.544 83.2457 147.767C83.7382 146.981 84.3963 146.366 85.2202 145.92C86.044 145.475 86.9531 145.144 87.9474 144.926C88.9512 144.699 89.9598 144.519 90.973 144.386C92.2988 144.216 93.3736 144.088 94.1974 144.003C95.0308 143.908 95.6368 143.752 96.0156 143.534C96.4039 143.316 96.598 142.937 96.598 142.398V142.284C96.598 140.883 96.2145 139.794 95.4474 139.017C94.6899 138.241 93.5393 137.852 91.9957 137.852C90.3954 137.852 89.1406 138.203 88.2315 138.903C87.3224 139.604 86.6832 140.352 86.3139 141.148L83.1321 140.011C83.7003 138.686 84.4579 137.653 85.4048 136.915C86.3613 136.167 87.4029 135.646 88.5298 135.352C89.6662 135.049 90.7836 134.898 91.8821 134.898C92.5829 134.898 93.3878 134.983 94.2969 135.153C95.2154 135.314 96.1009 135.651 96.9531 136.162C97.8149 136.673 98.5298 137.445 99.098 138.477C99.6662 139.509 99.9503 140.892 99.9503 142.625V157H96.598V154.045H96.4276C96.2003 154.519 95.8215 155.026 95.2912 155.565C94.7609 156.105 94.0554 156.564 93.1747 156.943C92.294 157.322 91.2192 157.511 89.9503 157.511ZM90.4616 154.5C91.7874 154.5 92.9048 154.24 93.8139 153.719C94.7325 153.198 95.4238 152.526 95.8878 151.702C96.3613 150.878 96.598 150.011 96.598 149.102V146.034C96.456 146.205 96.1435 146.361 95.6605 146.503C95.187 146.635 94.6378 146.754 94.0128 146.858C93.3973 146.953 92.7959 147.038 92.2088 147.114C91.6312 147.18 91.1624 147.237 90.8026 147.284C89.9313 147.398 89.117 147.582 88.3594 147.838C87.6113 148.084 87.0052 148.458 86.5412 148.96C86.0866 149.453 85.8594 150.125 85.8594 150.977C85.8594 152.142 86.2902 153.023 87.152 153.619C88.0232 154.206 89.1264 154.5 90.4616 154.5Z" fill="black"/>
<path d="M109.421 143.875V157H106.069V135.182H109.308V138.591H109.592C110.103 137.483 110.879 136.593 111.921 135.92C112.963 135.239 114.308 134.898 115.955 134.898C117.433 134.898 118.725 135.201 119.833 135.807C120.941 136.403 121.803 137.312 122.418 138.534C123.034 139.746 123.342 141.28 123.342 143.136V157H119.989V143.364C119.989 141.65 119.544 140.314 118.654 139.358C117.764 138.392 116.542 137.909 114.989 137.909C113.919 137.909 112.963 138.141 112.12 138.605C111.287 139.069 110.629 139.746 110.146 140.636C109.663 141.527 109.421 142.606 109.421 143.875Z" fill="black"/>
<path d="M141.172 157V127.909H158.729V131.034H144.695V140.864H157.82V143.989H144.695V153.875H158.956V157H141.172Z" fill="black"/>
<path d="M173.487 157.455C171.442 157.455 169.68 156.972 168.203 156.006C166.726 155.04 165.589 153.709 164.794 152.014C163.999 150.319 163.601 148.383 163.601 146.205C163.601 143.989 164.008 142.033 164.822 140.338C165.646 138.634 166.792 137.303 168.26 136.347C169.737 135.381 171.461 134.898 173.43 134.898C174.964 134.898 176.347 135.182 177.578 135.75C178.809 136.318 179.818 137.114 180.604 138.136C181.39 139.159 181.877 140.352 182.067 141.716H178.714C178.459 140.722 177.891 139.841 177.01 139.074C176.139 138.297 174.964 137.909 173.487 137.909C172.18 137.909 171.035 138.25 170.05 138.932C169.074 139.604 168.312 140.556 167.763 141.787C167.223 143.009 166.953 144.443 166.953 146.091C166.953 147.777 167.218 149.244 167.749 150.494C168.288 151.744 169.046 152.715 170.021 153.406C171.006 154.098 172.161 154.443 173.487 154.443C174.358 154.443 175.149 154.292 175.859 153.989C176.57 153.686 177.171 153.25 177.663 152.682C178.156 152.114 178.506 151.432 178.714 150.636H182.067C181.877 151.924 181.409 153.084 180.661 154.116C179.922 155.139 178.942 155.954 177.72 156.56C176.508 157.156 175.097 157.455 173.487 157.455Z" fill="black"/>
<path d="M195.831 157.455C193.861 157.455 192.133 156.986 190.646 156.048C189.169 155.111 188.014 153.799 187.18 152.114C186.357 150.428 185.945 148.458 185.945 146.205C185.945 143.932 186.357 141.948 187.18 140.253C188.014 138.558 189.169 137.241 190.646 136.304C192.133 135.366 193.861 134.898 195.831 134.898C197.801 134.898 199.524 135.366 201.001 136.304C202.488 137.241 203.643 138.558 204.467 140.253C205.301 141.948 205.717 143.932 205.717 146.205C205.717 148.458 205.301 150.428 204.467 152.114C203.643 153.799 202.488 155.111 201.001 156.048C199.524 156.986 197.801 157.455 195.831 157.455ZM195.831 154.443C197.327 154.443 198.558 154.06 199.524 153.293C200.49 152.526 201.205 151.517 201.669 150.267C202.133 149.017 202.365 147.663 202.365 146.205C202.365 144.746 202.133 143.387 201.669 142.128C201.205 140.868 200.49 139.85 199.524 139.074C198.558 138.297 197.327 137.909 195.831 137.909C194.335 137.909 193.104 138.297 192.138 139.074C191.172 139.85 190.457 140.868 189.993 142.128C189.529 143.387 189.297 144.746 189.297 146.205C189.297 147.663 189.529 149.017 189.993 150.267C190.457 151.517 191.172 152.526 192.138 153.293C193.104 154.06 194.335 154.443 195.831 154.443Z" fill="black"/>
<path d="M214.187 143.875V157H210.835V135.182H214.073V138.591H214.357C214.869 137.483 215.645 136.593 216.687 135.92C217.728 135.239 219.073 134.898 220.721 134.898C222.198 134.898 223.491 135.201 224.599 135.807C225.707 136.403 226.568 137.312 227.184 138.534C227.799 139.746 228.107 141.28 228.107 143.136V157H224.755V143.364C224.755 141.65 224.31 140.314 223.42 139.358C222.53 138.392 221.308 137.909 219.755 137.909C218.685 137.909 217.728 138.141 216.886 138.605C216.052 139.069 215.394 139.746 214.911 140.636C214.428 141.527 214.187 142.606 214.187 143.875Z" fill="black"/>
<path d="M76.305 205V202.443L85.9073 191.932C87.0342 190.701 87.9622 189.631 88.6914 188.722C89.4206 187.803 89.9603 186.941 90.3107 186.136C90.6706 185.322 90.8505 184.47 90.8505 183.58C90.8505 182.557 90.6043 181.671 90.1119 180.923C89.6289 180.175 88.966 179.598 88.1232 179.19C87.2804 178.783 86.3335 178.58 85.2823 178.58C84.1649 178.58 83.1895 178.812 82.3562 179.276C81.5323 179.73 80.8931 180.369 80.4386 181.193C79.9935 182.017 79.771 182.983 79.771 184.091H76.4187C76.4187 182.386 76.8117 180.89 77.5977 179.602C78.3836 178.314 79.4537 177.311 80.8079 176.591C82.1715 175.871 83.7009 175.511 85.396 175.511C87.1005 175.511 88.6109 175.871 89.9272 176.591C91.2435 177.311 92.2757 178.281 93.0238 179.503C93.7719 180.724 94.146 182.083 94.146 183.58C94.146 184.65 93.9518 185.696 93.5636 186.719C93.1848 187.732 92.5219 188.864 91.5749 190.114C90.6374 191.354 89.3353 192.869 87.6687 194.659L81.1346 201.648V201.875H94.6573V205H76.305Z" fill="black"/>
<path d="M109.615 205.398C107.948 205.398 106.447 205.066 105.112 204.403C103.777 203.741 102.707 202.831 101.902 201.676C101.097 200.521 100.656 199.205 100.581 197.727H103.99C104.122 199.044 104.719 200.133 105.779 200.994C106.85 201.847 108.128 202.273 109.615 202.273C110.808 202.273 111.868 201.993 112.797 201.435C113.734 200.876 114.468 200.109 114.998 199.134C115.538 198.149 115.808 197.036 115.808 195.795C115.808 194.527 115.529 193.395 114.97 192.401C114.421 191.397 113.663 190.606 112.697 190.028C111.731 189.451 110.628 189.157 109.387 189.148C108.497 189.138 107.583 189.276 106.646 189.56C105.708 189.834 104.937 190.189 104.331 190.625L101.035 190.227L102.797 175.909H117.91V179.034H105.751L104.728 187.614H104.899C105.495 187.14 106.243 186.747 107.143 186.435C108.043 186.122 108.98 185.966 109.956 185.966C111.736 185.966 113.322 186.392 114.714 187.244C116.116 188.087 117.214 189.242 118.01 190.71C118.815 192.178 119.217 193.854 119.217 195.739C119.217 197.595 118.8 199.252 117.967 200.71C117.143 202.159 116.007 203.305 114.558 204.148C113.109 204.981 111.461 205.398 109.615 205.398Z" fill="black"/>
<path d="M139.689 199.545V198.011C139.689 196.951 139.907 195.98 140.343 195.099C140.788 194.209 141.432 193.499 142.275 192.969C143.127 192.429 144.159 192.159 145.371 192.159C146.602 192.159 147.634 192.429 148.468 192.969C149.301 193.499 149.931 194.209 150.357 195.099C150.783 195.98 150.996 196.951 150.996 198.011V199.545C150.996 200.606 150.778 201.581 150.343 202.472C149.917 203.352 149.282 204.063 148.439 204.602C147.606 205.133 146.583 205.398 145.371 205.398C144.14 205.398 143.103 205.133 142.26 204.602C141.417 204.063 140.778 203.352 140.343 202.472C139.907 201.581 139.689 200.606 139.689 199.545ZM142.587 198.011V199.545C142.587 200.426 142.795 201.217 143.212 201.918C143.629 202.609 144.348 202.955 145.371 202.955C146.365 202.955 147.066 202.609 147.473 201.918C147.89 201.217 148.098 200.426 148.098 199.545V198.011C148.098 197.131 147.899 196.345 147.502 195.653C147.104 194.953 146.394 194.602 145.371 194.602C144.377 194.602 143.662 194.953 143.226 195.653C142.8 196.345 142.587 197.131 142.587 198.011ZM125.201 182.898V181.364C125.201 180.303 125.418 179.332 125.854 178.452C126.299 177.562 126.943 176.851 127.786 176.321C128.638 175.781 129.67 175.511 130.882 175.511C132.114 175.511 133.146 175.781 133.979 176.321C134.812 176.851 135.442 177.562 135.868 178.452C136.294 179.332 136.507 180.303 136.507 181.364V182.898C136.507 183.958 136.29 184.934 135.854 185.824C135.428 186.705 134.793 187.415 133.951 187.955C133.117 188.485 132.095 188.75 130.882 188.75C129.651 188.75 128.614 188.485 127.772 187.955C126.929 187.415 126.29 186.705 125.854 185.824C125.418 184.934 125.201 183.958 125.201 182.898ZM128.098 181.364V182.898C128.098 183.778 128.307 184.569 128.723 185.27C129.14 185.961 129.86 186.307 130.882 186.307C131.877 186.307 132.578 185.961 132.985 185.27C133.401 184.569 133.61 183.778 133.61 182.898V181.364C133.61 180.483 133.411 179.697 133.013 179.006C132.615 178.305 131.905 177.955 130.882 177.955C129.888 177.955 129.173 178.305 128.738 179.006C128.311 179.697 128.098 180.483 128.098 181.364ZM126.28 205L146.28 175.909H149.519L129.519 205H126.28Z" fill="black"/>
</svg>
