<svg width="313" height="313" viewBox="0 0 313 313" fill="none" xmlns="http://www.w3.org/2000/svg">
<path d="M156.5 0C193.76 4.44314e-07 229.797 13.2933 258.131 37.4894C286.465 61.6855 305.236 95.1966 311.07 131.997C316.904 168.796 309.417 206.47 289.955 238.243C270.494 270.016 240.335 293.803 204.903 305.327C169.47 316.851 131.089 315.355 96.6606 301.108C62.2324 286.861 34.0166 260.799 17.0874 227.608C0.158092 194.416 -4.37384 156.274 4.30655 120.04C12.9869 83.8058 34.3101 51.8574 64.4414 29.9401L73.4936 42.3847C46.3251 62.1469 27.0986 90.9538 19.2718 123.625C11.445 156.296 15.5313 190.688 30.7959 220.616C46.0605 250.543 71.5018 274.043 102.545 286.889C133.587 299.734 168.195 301.083 200.143 290.693C232.092 280.302 259.285 258.854 276.833 230.205C294.38 201.557 301.131 167.587 295.871 134.406C290.611 101.225 273.685 71.0086 248.137 49.1918C222.589 27.3749 190.096 15.3887 156.5 15.3887V0Z" fill="#2EEA3B"/>
<path d="M43.6792 148V118.909H53.5087C55.7815 118.909 57.647 119.297 59.1053 120.074C60.5637 120.841 61.6432 121.897 62.344 123.241C63.0447 124.586 63.3951 126.116 63.3951 127.83C63.3951 129.544 63.0447 131.063 62.344 132.389C61.6432 133.715 60.5684 134.757 59.1195 135.514C57.6707 136.262 55.8193 136.636 53.5656 136.636H45.611V133.455H53.4519C55.0049 133.455 56.2549 133.227 57.2019 132.773C58.1584 132.318 58.8496 131.674 59.2758 130.841C59.7114 129.998 59.9292 128.994 59.9292 127.83C59.9292 126.665 59.7114 125.647 59.2758 124.776C58.8402 123.904 58.1442 123.232 57.1877 122.759C56.2313 122.276 54.9671 122.034 53.3951 122.034H47.2019V148H43.6792ZM57.3724 134.932L64.5315 148H60.4406L53.3951 134.932H57.3724Z" fill="black"/>
<path d="M77.4398 148.455C75.4701 148.455 73.7419 147.986 72.2552 147.048C70.7779 146.111 69.6226 144.799 68.7893 143.114C67.9654 141.428 67.5535 139.458 67.5535 137.205C67.5535 134.932 67.9654 132.948 68.7893 131.253C69.6226 129.558 70.7779 128.241 72.2552 127.304C73.7419 126.366 75.4701 125.898 77.4398 125.898C79.4095 125.898 81.133 126.366 82.6103 127.304C84.097 128.241 85.2523 129.558 86.0762 131.253C86.9095 132.948 87.3262 134.932 87.3262 137.205C87.3262 139.458 86.9095 141.428 86.0762 143.114C85.2523 144.799 84.097 146.111 82.6103 147.048C81.133 147.986 79.4095 148.455 77.4398 148.455ZM77.4398 145.443C78.9361 145.443 80.1671 145.06 81.133 144.293C82.0989 143.526 82.8139 142.517 83.2779 141.267C83.7419 140.017 83.9739 138.663 83.9739 137.205C83.9739 135.746 83.7419 134.387 83.2779 133.128C82.8139 131.868 82.0989 130.85 81.133 130.074C80.1671 129.297 78.9361 128.909 77.4398 128.909C75.9436 128.909 74.7126 129.297 73.7467 130.074C72.7807 130.85 72.0658 131.868 71.6018 133.128C71.1378 134.387 70.9058 135.746 70.9058 137.205C70.9058 138.663 71.1378 140.017 71.6018 141.267C72.0658 142.517 72.7807 143.526 73.7467 144.293C74.7126 145.06 75.9436 145.443 77.4398 145.443Z" fill="black"/>
<path d="M92.4434 148V126.182H95.682V129.591H95.9661C96.4207 128.426 97.1546 127.522 98.1678 126.878C99.1811 126.224 100.398 125.898 101.818 125.898C103.258 125.898 104.456 126.224 105.412 126.878C106.378 127.522 107.131 128.426 107.671 129.591H107.898C108.457 128.464 109.295 127.569 110.412 126.906C111.53 126.234 112.87 125.898 114.432 125.898C116.383 125.898 117.978 126.509 119.219 127.73C120.459 128.942 121.08 130.831 121.08 133.398V148H117.727V133.398C117.727 131.788 117.287 130.637 116.406 129.946C115.526 129.255 114.489 128.909 113.296 128.909C111.762 128.909 110.573 129.373 109.73 130.301C108.888 131.22 108.466 132.384 108.466 133.795V148H105.057V133.057C105.057 131.816 104.655 130.817 103.85 130.06C103.045 129.293 102.008 128.909 100.739 128.909C99.8676 128.909 99.0532 129.141 98.2957 129.605C97.5476 130.069 96.9415 130.713 96.4775 131.537C96.0229 132.351 95.7957 133.294 95.7957 134.364V148H92.4434Z" fill="black"/>
<path d="M133.629 148.511C132.247 148.511 130.992 148.251 129.865 147.73C128.738 147.2 127.843 146.437 127.181 145.443C126.518 144.439 126.186 143.227 126.186 141.807C126.186 140.557 126.433 139.544 126.925 138.767C127.417 137.981 128.075 137.366 128.899 136.92C129.723 136.475 130.632 136.144 131.627 135.926C132.63 135.699 133.639 135.519 134.652 135.386C135.978 135.216 137.053 135.088 137.877 135.003C138.71 134.908 139.316 134.752 139.695 134.534C140.083 134.316 140.277 133.937 140.277 133.398V133.284C140.277 131.883 139.894 130.794 139.127 130.017C138.369 129.241 137.218 128.852 135.675 128.852C134.075 128.852 132.82 129.203 131.911 129.903C131.002 130.604 130.362 131.352 129.993 132.148L126.811 131.011C127.379 129.686 128.137 128.653 129.084 127.915C130.04 127.167 131.082 126.646 132.209 126.352C133.345 126.049 134.463 125.898 135.561 125.898C136.262 125.898 137.067 125.983 137.976 126.153C138.895 126.314 139.78 126.651 140.632 127.162C141.494 127.673 142.209 128.445 142.777 129.477C143.345 130.509 143.629 131.892 143.629 133.625V148H140.277V145.045H140.107C139.879 145.519 139.501 146.026 138.97 146.565C138.44 147.105 137.735 147.564 136.854 147.943C135.973 148.322 134.898 148.511 133.629 148.511ZM134.141 145.5C135.467 145.5 136.584 145.24 137.493 144.719C138.412 144.198 139.103 143.526 139.567 142.702C140.04 141.878 140.277 141.011 140.277 140.102V137.034C140.135 137.205 139.823 137.361 139.34 137.503C138.866 137.635 138.317 137.754 137.692 137.858C137.076 137.953 136.475 138.038 135.888 138.114C135.31 138.18 134.842 138.237 134.482 138.284C133.611 138.398 132.796 138.582 132.039 138.838C131.29 139.084 130.684 139.458 130.22 139.96C129.766 140.453 129.539 141.125 129.539 141.977C129.539 143.142 129.969 144.023 130.831 144.619C131.702 145.206 132.806 145.5 134.141 145.5Z" fill="black"/>
<path d="M153.1 134.875V148H149.748V126.182H152.987V129.591H153.271C153.782 128.483 154.559 127.593 155.6 126.92C156.642 126.239 157.987 125.898 159.634 125.898C161.112 125.898 162.404 126.201 163.512 126.807C164.62 127.403 165.482 128.312 166.098 129.534C166.713 130.746 167.021 132.28 167.021 134.136V148H163.669V134.364C163.669 132.65 163.223 131.314 162.333 130.358C161.443 129.392 160.222 128.909 158.669 128.909C157.598 128.909 156.642 129.141 155.799 129.605C154.966 130.069 154.308 130.746 153.825 131.636C153.342 132.527 153.1 133.606 153.1 134.875Z" fill="black"/>
<path d="M184.851 148V118.909H202.408V122.034H188.374V131.864H201.499V134.989H188.374V144.875H202.635V148H184.851Z" fill="black"/>
<path d="M217.166 148.455C215.121 148.455 213.36 147.972 211.882 147.006C210.405 146.04 209.269 144.709 208.473 143.014C207.678 141.319 207.28 139.383 207.28 137.205C207.28 134.989 207.687 133.033 208.502 131.338C209.325 129.634 210.471 128.303 211.939 127.347C213.416 126.381 215.14 125.898 217.11 125.898C218.644 125.898 220.026 126.182 221.257 126.75C222.488 127.318 223.497 128.114 224.283 129.136C225.069 130.159 225.557 131.352 225.746 132.716H222.394C222.138 131.722 221.57 130.841 220.689 130.074C219.818 129.297 218.644 128.909 217.166 128.909C215.86 128.909 214.714 129.25 213.729 129.932C212.754 130.604 211.991 131.556 211.442 132.787C210.902 134.009 210.632 135.443 210.632 137.091C210.632 138.777 210.897 140.244 211.428 141.494C211.968 142.744 212.725 143.715 213.701 144.406C214.685 145.098 215.841 145.443 217.166 145.443C218.038 145.443 218.828 145.292 219.539 144.989C220.249 144.686 220.85 144.25 221.343 143.682C221.835 143.114 222.185 142.432 222.394 141.636H225.746C225.557 142.924 225.088 144.084 224.34 145.116C223.601 146.139 222.621 146.954 221.399 147.56C220.187 148.156 218.776 148.455 217.166 148.455Z" fill="black"/>
<path d="M239.51 148.455C237.54 148.455 235.812 147.986 234.326 147.048C232.848 146.111 231.693 144.799 230.86 143.114C230.036 141.428 229.624 139.458 229.624 137.205C229.624 134.932 230.036 132.948 230.86 131.253C231.693 129.558 232.848 128.241 234.326 127.304C235.812 126.366 237.54 125.898 239.51 125.898C241.48 125.898 243.203 126.366 244.681 127.304C246.167 128.241 247.323 129.558 248.147 131.253C248.98 132.948 249.397 134.932 249.397 137.205C249.397 139.458 248.98 141.428 248.147 143.114C247.323 144.799 246.167 146.111 244.681 147.048C243.203 147.986 241.48 148.455 239.51 148.455ZM239.51 145.443C241.006 145.443 242.237 145.06 243.203 144.293C244.169 143.526 244.884 142.517 245.348 141.267C245.812 140.017 246.044 138.663 246.044 137.205C246.044 135.746 245.812 134.387 245.348 133.128C244.884 131.868 244.169 130.85 243.203 130.074C242.237 129.297 241.006 128.909 239.51 128.909C238.014 128.909 236.783 129.297 235.817 130.074C234.851 130.85 234.136 131.868 233.672 133.128C233.208 134.387 232.976 135.746 232.976 137.205C232.976 138.663 233.208 140.017 233.672 141.267C234.136 142.517 234.851 143.526 235.817 144.293C236.783 145.06 238.014 145.443 239.51 145.443Z" fill="black"/>
<path d="M257.866 134.875V148H254.514V126.182H257.752V129.591H258.036C258.548 128.483 259.324 127.593 260.366 126.92C261.408 126.239 262.752 125.898 264.4 125.898C265.877 125.898 267.17 126.201 268.278 126.807C269.386 127.403 270.248 128.312 270.863 129.534C271.479 130.746 271.786 132.28 271.786 134.136V148H268.434V134.364C268.434 132.65 267.989 131.314 267.099 130.358C266.209 129.392 264.987 128.909 263.434 128.909C262.364 128.909 261.408 129.141 260.565 129.605C259.732 130.069 259.073 130.746 258.59 131.636C258.107 132.527 257.866 133.606 257.866 134.875Z" fill="black"/>
<path d="M128.542 166.511C129.736 166.521 130.929 166.748 132.122 167.193C133.315 167.638 134.404 168.377 135.389 169.409C136.374 170.432 137.165 171.829 137.761 173.599C138.358 175.37 138.656 177.591 138.656 180.261C138.656 182.847 138.41 185.143 137.917 187.151C137.435 189.149 136.734 190.834 135.815 192.207C134.906 193.58 133.798 194.622 132.491 195.332C131.194 196.043 129.726 196.398 128.088 196.398C126.459 196.398 125.006 196.076 123.727 195.432C122.458 194.778 121.417 193.874 120.602 192.719C119.797 191.554 119.281 190.205 119.054 188.67H122.52C122.832 190.006 123.453 191.109 124.381 191.98C125.318 192.842 126.554 193.273 128.088 193.273C130.332 193.273 132.103 192.293 133.4 190.332C134.707 188.372 135.361 185.602 135.361 182.023H135.133C134.603 182.818 133.973 183.505 133.244 184.082C132.515 184.66 131.705 185.105 130.815 185.418C129.925 185.73 128.978 185.886 127.974 185.886C126.308 185.886 124.778 185.474 123.386 184.651C122.004 183.817 120.896 182.676 120.062 181.227C119.238 179.769 118.827 178.102 118.827 176.227C118.827 174.447 119.224 172.818 120.02 171.341C120.825 169.854 121.952 168.67 123.4 167.79C124.859 166.909 126.573 166.483 128.542 166.511ZM128.542 169.636C127.349 169.636 126.274 169.935 125.318 170.531C124.371 171.118 123.618 171.914 123.06 172.918C122.51 173.912 122.236 175.015 122.236 176.227C122.236 177.439 122.501 178.543 123.031 179.537C123.571 180.522 124.305 181.308 125.233 181.895C126.17 182.473 127.236 182.761 128.429 182.761C129.328 182.761 130.167 182.586 130.943 182.236C131.72 181.876 132.397 181.388 132.974 180.773C133.561 180.148 134.021 179.442 134.352 178.656C134.684 177.861 134.849 177.032 134.849 176.17C134.849 175.034 134.575 173.969 134.025 172.974C133.486 171.98 132.738 171.175 131.781 170.56C130.834 169.944 129.755 169.636 128.542 169.636Z" fill="black"/>
<path d="M153.731 196.398C151.591 196.398 149.768 195.815 148.262 194.651C146.756 193.476 145.606 191.777 144.81 189.551C144.015 187.316 143.617 184.617 143.617 181.455C143.617 178.311 144.015 175.626 144.81 173.401C145.615 171.166 146.77 169.461 148.276 168.287C149.791 167.103 151.609 166.511 153.731 166.511C155.852 166.511 157.665 167.103 159.171 168.287C160.686 169.461 161.841 171.166 162.637 173.401C163.442 175.626 163.844 178.311 163.844 181.455C163.844 184.617 163.447 187.316 162.651 189.551C161.856 191.777 160.705 193.476 159.199 194.651C157.694 195.815 155.871 196.398 153.731 196.398ZM153.731 193.273C155.852 193.273 157.5 192.25 158.674 190.205C159.848 188.159 160.435 185.242 160.435 181.455C160.435 178.936 160.165 176.791 159.626 175.02C159.095 173.249 158.328 171.9 157.324 170.972C156.33 170.044 155.132 169.58 153.731 169.58C151.628 169.58 149.985 170.616 148.802 172.69C147.618 174.755 147.026 177.676 147.026 181.455C147.026 183.973 147.291 186.114 147.822 187.875C148.352 189.636 149.114 190.976 150.109 191.895C151.112 192.813 152.32 193.273 153.731 193.273Z" fill="black"/>
<path d="M184.072 190.545V189.011C184.072 187.951 184.289 186.98 184.725 186.099C185.17 185.209 185.814 184.499 186.657 183.969C187.509 183.429 188.541 183.159 189.753 183.159C190.984 183.159 192.017 183.429 192.85 183.969C193.683 184.499 194.313 185.209 194.739 186.099C195.165 186.98 195.378 187.951 195.378 189.011V190.545C195.378 191.606 195.161 192.581 194.725 193.472C194.299 194.352 193.664 195.063 192.822 195.602C191.988 196.133 190.966 196.398 189.753 196.398C188.522 196.398 187.485 196.133 186.643 195.602C185.8 195.063 185.161 194.352 184.725 193.472C184.289 192.581 184.072 191.606 184.072 190.545ZM186.969 189.011V190.545C186.969 191.426 187.178 192.217 187.594 192.918C188.011 193.609 188.731 193.955 189.753 193.955C190.748 193.955 191.448 193.609 191.856 192.918C192.272 192.217 192.481 191.426 192.481 190.545V189.011C192.481 188.131 192.282 187.345 191.884 186.653C191.486 185.953 190.776 185.602 189.753 185.602C188.759 185.602 188.044 185.953 187.609 186.653C187.182 187.345 186.969 188.131 186.969 189.011ZM169.583 173.898V172.364C169.583 171.303 169.801 170.332 170.236 169.452C170.681 168.562 171.325 167.851 172.168 167.321C173.02 166.781 174.053 166.511 175.265 166.511C176.496 166.511 177.528 166.781 178.361 167.321C179.195 167.851 179.824 168.562 180.251 169.452C180.677 170.332 180.89 171.303 180.89 172.364V173.898C180.89 174.958 180.672 175.934 180.236 176.824C179.81 177.705 179.176 178.415 178.333 178.955C177.5 179.485 176.477 179.75 175.265 179.75C174.034 179.75 172.997 179.485 172.154 178.955C171.311 178.415 170.672 177.705 170.236 176.824C169.801 175.934 169.583 174.958 169.583 173.898ZM172.481 172.364V173.898C172.481 174.778 172.689 175.569 173.106 176.27C173.522 176.961 174.242 177.307 175.265 177.307C176.259 177.307 176.96 176.961 177.367 176.27C177.784 175.569 177.992 174.778 177.992 173.898V172.364C177.992 171.483 177.793 170.697 177.395 170.006C176.998 169.305 176.287 168.955 175.265 168.955C174.27 168.955 173.555 169.305 173.12 170.006C172.694 170.697 172.481 171.483 172.481 172.364ZM170.663 196L190.663 166.909H193.901L173.901 196H170.663Z" fill="black"/>
</svg>
