<svg width="270" height="313" viewBox="0 0 270 313" fill="none" xmlns="http://www.w3.org/2000/svg">
<path d="M112.821 0C137.51 2.94414e-07 161.849 5.84123 183.849 17.0464C205.849 28.2516 224.885 44.5028 239.404 64.4722C253.922 84.4415 263.509 107.562 267.383 131.946C271.256 156.329 269.306 181.283 261.691 204.768C254.077 228.254 241.014 249.605 223.569 267.076C206.125 284.547 184.795 297.644 161.321 305.295C137.848 312.946 112.897 314.935 88.5075 311.1C64.1182 307.264 40.9824 297.713 20.9904 283.226L30.0202 270.765C48.0463 283.827 68.9072 292.44 90.8983 295.898C112.889 299.356 135.387 297.563 156.552 290.664C177.718 283.765 196.951 271.956 212.679 256.203C228.408 240.45 240.187 221.198 247.053 200.022C253.919 178.846 255.677 156.346 252.185 134.36C248.692 112.375 240.047 91.5271 226.957 73.5213C213.866 55.5155 196.701 40.8623 176.865 30.7589C157.028 20.6556 135.082 15.3887 112.821 15.3887V0Z" fill="#EAB52E"/>
<path d="M0 166V136.909H9.82955C12.1023 136.909 13.9678 137.297 15.4261 138.074C16.8845 138.841 17.964 139.897 18.6648 141.241C19.3655 142.586 19.7159 144.116 19.7159 145.83C19.7159 147.544 19.3655 149.063 18.6648 150.389C17.964 151.715 16.8892 152.757 15.4403 153.514C13.9915 154.262 12.1402 154.636 9.88636 154.636H1.93182V151.455H9.77273C11.3258 151.455 12.5758 151.227 13.5227 150.773C14.4792 150.318 15.1705 149.674 15.5966 148.841C16.0322 147.998 16.25 146.994 16.25 145.83C16.25 144.665 16.0322 143.647 15.5966 142.776C15.161 141.904 14.465 141.232 13.5085 140.759C12.5521 140.276 11.2879 140.034 9.71591 140.034H3.52273V166H0ZM13.6932 152.932L20.8523 166H16.7614L9.71591 152.932H13.6932Z" fill="black"/>
<path d="M33.7607 166.455C31.791 166.455 30.0627 165.986 28.576 165.048C27.0987 164.111 25.9434 162.799 25.1101 161.114C24.2862 159.428 23.8743 157.458 23.8743 155.205C23.8743 152.932 24.2862 150.948 25.1101 149.253C25.9434 147.558 27.0987 146.241 28.576 145.304C30.0627 144.366 31.791 143.898 33.7607 143.898C35.7304 143.898 37.4538 144.366 38.9311 145.304C40.4179 146.241 41.5732 147.558 42.397 149.253C43.2304 150.948 43.647 152.932 43.647 155.205C43.647 157.458 43.2304 159.428 42.397 161.114C41.5732 162.799 40.4179 164.111 38.9311 165.048C37.4538 165.986 35.7304 166.455 33.7607 166.455ZM33.7607 163.443C35.2569 163.443 36.4879 163.06 37.4538 162.293C38.4197 161.526 39.1347 160.517 39.5987 159.267C40.0627 158.017 40.2947 156.663 40.2947 155.205C40.2947 153.746 40.0627 152.387 39.5987 151.128C39.1347 149.868 38.4197 148.85 37.4538 148.074C36.4879 147.297 35.2569 146.909 33.7607 146.909C32.2644 146.909 31.0334 147.297 30.0675 148.074C29.1016 148.85 28.3866 149.868 27.9226 151.128C27.4586 152.387 27.2266 153.746 27.2266 155.205C27.2266 156.663 27.4586 158.017 27.9226 159.267C28.3866 160.517 29.1016 161.526 30.0675 162.293C31.0334 163.06 32.2644 163.443 33.7607 163.443Z" fill="black"/>
<path d="M48.7642 166V144.182H52.0028V147.591H52.2869C52.7415 146.426 53.4754 145.522 54.4886 144.878C55.5019 144.224 56.7188 143.898 58.1392 143.898C59.5786 143.898 60.7765 144.224 61.733 144.878C62.6989 145.522 63.4517 146.426 63.9915 147.591H64.2188C64.7775 146.464 65.6155 145.569 66.733 144.906C67.8504 144.234 69.1903 143.898 70.7528 143.898C72.7036 143.898 74.2992 144.509 75.5398 145.73C76.7803 146.942 77.4006 148.831 77.4006 151.398V166H74.0483V151.398C74.0483 149.788 73.608 148.637 72.7273 147.946C71.8466 147.255 70.8097 146.909 69.6165 146.909C68.0824 146.909 66.8939 147.373 66.0511 148.301C65.2083 149.22 64.7869 150.384 64.7869 151.795V166H61.3778V151.057C61.3778 149.816 60.9754 148.817 60.1705 148.06C59.3655 147.293 58.3286 146.909 57.0597 146.909C56.1884 146.909 55.3741 147.141 54.6165 147.605C53.8684 148.069 53.2623 148.713 52.7983 149.537C52.3437 150.351 52.1165 151.294 52.1165 152.364V166H48.7642Z" fill="black"/>
<path d="M89.9503 166.511C88.5677 166.511 87.313 166.251 86.1861 165.73C85.0592 165.2 84.1643 164.437 83.5014 163.443C82.8385 162.439 82.5071 161.227 82.5071 159.807C82.5071 158.557 82.7533 157.544 83.2457 156.767C83.7382 155.981 84.3963 155.366 85.2202 154.92C86.044 154.475 86.9531 154.144 87.9474 153.926C88.9512 153.699 89.9598 153.519 90.973 153.386C92.2988 153.216 93.3736 153.088 94.1974 153.003C95.0308 152.908 95.6368 152.752 96.0156 152.534C96.4039 152.316 96.598 151.937 96.598 151.398V151.284C96.598 149.883 96.2145 148.794 95.4474 148.017C94.6899 147.241 93.5393 146.852 91.9957 146.852C90.3954 146.852 89.1406 147.203 88.2315 147.903C87.3224 148.604 86.6832 149.352 86.3139 150.148L83.1321 149.011C83.7003 147.686 84.4579 146.653 85.4048 145.915C86.3613 145.167 87.4029 144.646 88.5298 144.352C89.6662 144.049 90.7836 143.898 91.8821 143.898C92.5829 143.898 93.3878 143.983 94.2969 144.153C95.2154 144.314 96.1009 144.651 96.9531 145.162C97.8149 145.673 98.5298 146.445 99.098 147.477C99.6662 148.509 99.9503 149.892 99.9503 151.625V166H96.598V163.045H96.4276C96.2003 163.519 95.8215 164.026 95.2912 164.565C94.7609 165.105 94.0554 165.564 93.1747 165.943C92.294 166.322 91.2192 166.511 89.9503 166.511ZM90.4616 163.5C91.7874 163.5 92.9048 163.24 93.8139 162.719C94.7325 162.198 95.4238 161.526 95.8878 160.702C96.3613 159.878 96.598 159.011 96.598 158.102V155.034C96.456 155.205 96.1435 155.361 95.6605 155.503C95.187 155.635 94.6378 155.754 94.0128 155.858C93.3973 155.953 92.7959 156.038 92.2088 156.114C91.6312 156.18 91.1624 156.237 90.8026 156.284C89.9313 156.398 89.117 156.582 88.3594 156.838C87.6113 157.084 87.0052 157.458 86.5412 157.96C86.0866 158.453 85.8594 159.125 85.8594 159.977C85.8594 161.142 86.2902 162.023 87.152 162.619C88.0232 163.206 89.1264 163.5 90.4616 163.5Z" fill="black"/>
<path d="M109.421 152.875V166H106.069V144.182H109.308V147.591H109.592C110.103 146.483 110.879 145.593 111.921 144.92C112.963 144.239 114.308 143.898 115.955 143.898C117.433 143.898 118.725 144.201 119.833 144.807C120.941 145.403 121.803 146.312 122.418 147.534C123.034 148.746 123.342 150.28 123.342 152.136V166H119.989V152.364C119.989 150.65 119.544 149.314 118.654 148.358C117.764 147.392 116.542 146.909 114.989 146.909C113.919 146.909 112.963 147.141 112.12 147.605C111.287 148.069 110.629 148.746 110.146 149.636C109.663 150.527 109.421 151.606 109.421 152.875Z" fill="black"/>
<path d="M141.172 166V136.909H158.729V140.034H144.695V149.864H157.82V152.989H144.695V162.875H158.956V166H141.172Z" fill="black"/>
<path d="M173.487 166.455C171.442 166.455 169.68 165.972 168.203 165.006C166.726 164.04 165.589 162.709 164.794 161.014C163.999 159.319 163.601 157.383 163.601 155.205C163.601 152.989 164.008 151.033 164.822 149.338C165.646 147.634 166.792 146.303 168.26 145.347C169.737 144.381 171.461 143.898 173.43 143.898C174.964 143.898 176.347 144.182 177.578 144.75C178.809 145.318 179.818 146.114 180.604 147.136C181.39 148.159 181.877 149.352 182.067 150.716H178.714C178.459 149.722 177.891 148.841 177.01 148.074C176.139 147.297 174.964 146.909 173.487 146.909C172.18 146.909 171.035 147.25 170.05 147.932C169.074 148.604 168.312 149.556 167.763 150.787C167.223 152.009 166.953 153.443 166.953 155.091C166.953 156.777 167.218 158.244 167.749 159.494C168.288 160.744 169.046 161.715 170.021 162.406C171.006 163.098 172.161 163.443 173.487 163.443C174.358 163.443 175.149 163.292 175.859 162.989C176.57 162.686 177.171 162.25 177.663 161.682C178.156 161.114 178.506 160.432 178.714 159.636H182.067C181.877 160.924 181.409 162.084 180.661 163.116C179.922 164.139 178.942 164.954 177.72 165.56C176.508 166.156 175.097 166.455 173.487 166.455Z" fill="black"/>
<path d="M195.831 166.455C193.861 166.455 192.133 165.986 190.646 165.048C189.169 164.111 188.014 162.799 187.18 161.114C186.357 159.428 185.945 157.458 185.945 155.205C185.945 152.932 186.357 150.948 187.18 149.253C188.014 147.558 189.169 146.241 190.646 145.304C192.133 144.366 193.861 143.898 195.831 143.898C197.801 143.898 199.524 144.366 201.001 145.304C202.488 146.241 203.643 147.558 204.467 149.253C205.301 150.948 205.717 152.932 205.717 155.205C205.717 157.458 205.301 159.428 204.467 161.114C203.643 162.799 202.488 164.111 201.001 165.048C199.524 165.986 197.801 166.455 195.831 166.455ZM195.831 163.443C197.327 163.443 198.558 163.06 199.524 162.293C200.49 161.526 201.205 160.517 201.669 159.267C202.133 158.017 202.365 156.663 202.365 155.205C202.365 153.746 202.133 152.387 201.669 151.128C201.205 149.868 200.49 148.85 199.524 148.074C198.558 147.297 197.327 146.909 195.831 146.909C194.335 146.909 193.104 147.297 192.138 148.074C191.172 148.85 190.457 149.868 189.993 151.128C189.529 152.387 189.297 153.746 189.297 155.205C189.297 156.663 189.529 158.017 189.993 159.267C190.457 160.517 191.172 161.526 192.138 162.293C193.104 163.06 194.335 163.443 195.831 163.443Z" fill="black"/>
<path d="M214.187 152.875V166H210.835V144.182H214.073V147.591H214.357C214.869 146.483 215.645 145.593 216.687 144.92C217.728 144.239 219.073 143.898 220.721 143.898C222.198 143.898 223.491 144.201 224.599 144.807C225.707 145.403 226.568 146.312 227.184 147.534C227.799 148.746 228.107 150.28 228.107 152.136V166H224.755V152.364C224.755 150.65 224.31 149.314 223.42 148.358C222.53 147.392 221.308 146.909 219.755 146.909C218.685 146.909 217.728 147.141 216.886 147.605C216.052 148.069 215.394 148.746 214.911 149.636C214.428 150.527 214.187 151.606 214.187 152.875Z" fill="black"/>
<path d="M85.261 214.398C84.0678 214.379 82.8746 214.152 81.6815 213.716C80.4883 213.28 79.3993 212.546 78.4144 211.514C77.4296 210.473 76.6389 209.066 76.0423 207.295C75.4457 205.515 75.1474 203.28 75.1474 200.591C75.1474 198.015 75.3888 195.733 75.8718 193.744C76.3548 191.746 77.0555 190.065 77.9741 188.702C78.8926 187.329 80.0006 186.287 81.2979 185.577C82.6048 184.866 84.0773 184.511 85.7156 184.511C87.3443 184.511 88.7932 184.838 90.0621 185.491C91.3406 186.135 92.3822 187.035 93.1871 188.19C93.9921 189.346 94.5129 190.676 94.7496 192.182H91.2837C90.9618 190.875 90.3368 189.791 89.4087 188.929C88.4807 188.067 87.2496 187.636 85.7156 187.636C83.4618 187.636 81.6862 188.616 80.3888 190.577C79.101 192.537 78.4523 195.288 78.4428 198.83H78.6701C79.2004 198.025 79.8301 197.338 80.5593 196.77C81.2979 196.192 82.1123 195.747 83.0025 195.435C83.8926 195.122 84.8349 194.966 85.8292 194.966C87.4959 194.966 89.0205 195.383 90.4031 196.216C91.7856 197.04 92.8936 198.181 93.7269 199.639C94.5603 201.088 94.9769 202.75 94.9769 204.625C94.9769 206.424 94.5745 208.072 93.7695 209.568C92.9646 211.055 91.833 212.239 90.3746 213.119C88.9258 213.991 87.2212 214.417 85.261 214.398ZM85.261 211.273C86.4542 211.273 87.5243 210.974 88.4712 210.378C89.4277 209.781 90.1805 208.981 90.7298 207.977C91.2885 206.973 91.5678 205.856 91.5678 204.625C91.5678 203.422 91.2979 202.329 90.7582 201.344C90.2279 200.349 89.494 199.559 88.5565 198.972C87.6284 198.384 86.5678 198.091 85.3746 198.091C84.475 198.091 83.637 198.271 82.8604 198.631C82.0839 198.981 81.4021 199.464 80.815 200.08C80.2373 200.695 79.7828 201.401 79.4513 202.196C79.1199 202.982 78.9542 203.811 78.9542 204.682C78.9542 205.837 79.2241 206.917 79.7638 207.92C80.3131 208.924 81.0612 209.734 82.0082 210.349C82.9646 210.965 84.0489 211.273 85.261 211.273Z" fill="black"/>
<path d="M110.051 214.398C107.911 214.398 106.088 213.815 104.583 212.651C103.077 211.476 101.926 209.777 101.131 207.551C100.336 205.316 99.9379 202.617 99.9379 199.455C99.9379 196.311 100.336 193.626 101.131 191.401C101.936 189.166 103.091 187.461 104.597 186.287C106.112 185.103 107.93 184.511 110.051 184.511C112.173 184.511 113.986 185.103 115.492 186.287C117.007 187.461 118.162 189.166 118.958 191.401C119.763 193.626 120.165 196.311 120.165 199.455C120.165 202.617 119.767 205.316 118.972 207.551C118.176 209.777 117.026 211.476 115.52 212.651C114.015 213.815 112.192 214.398 110.051 214.398ZM110.051 211.273C112.173 211.273 113.82 210.25 114.995 208.205C116.169 206.159 116.756 203.242 116.756 199.455C116.756 196.936 116.486 194.791 115.946 193.02C115.416 191.249 114.649 189.9 113.645 188.972C112.651 188.044 111.453 187.58 110.051 187.58C107.949 187.58 106.306 188.616 105.123 190.69C103.939 192.755 103.347 195.676 103.347 199.455C103.347 201.973 103.612 204.114 104.142 205.875C104.673 207.636 105.435 208.976 106.429 209.895C107.433 210.813 108.641 211.273 110.051 211.273Z" fill="black"/>
<path d="M140.392 208.545V207.011C140.392 205.951 140.61 204.98 141.046 204.099C141.491 203.209 142.135 202.499 142.978 201.969C143.83 201.429 144.862 201.159 146.074 201.159C147.305 201.159 148.337 201.429 149.171 201.969C150.004 202.499 150.634 203.209 151.06 204.099C151.486 204.98 151.699 205.951 151.699 207.011V208.545C151.699 209.606 151.481 210.581 151.046 211.472C150.62 212.352 149.985 213.063 149.142 213.602C148.309 214.133 147.286 214.398 146.074 214.398C144.843 214.398 143.806 214.133 142.963 213.602C142.121 213.063 141.481 212.352 141.046 211.472C140.61 210.581 140.392 209.606 140.392 208.545ZM143.29 207.011V208.545C143.29 209.426 143.498 210.217 143.915 210.918C144.332 211.609 145.051 211.955 146.074 211.955C147.069 211.955 147.769 211.609 148.176 210.918C148.593 210.217 148.801 209.426 148.801 208.545V207.011C148.801 206.131 148.603 205.345 148.205 204.653C147.807 203.953 147.097 203.602 146.074 203.602C145.08 203.602 144.365 203.953 143.929 204.653C143.503 205.345 143.29 206.131 143.29 207.011ZM125.904 191.898V190.364C125.904 189.303 126.122 188.332 126.557 187.452C127.002 186.562 127.646 185.851 128.489 185.321C129.341 184.781 130.373 184.511 131.586 184.511C132.817 184.511 133.849 184.781 134.682 185.321C135.516 185.851 136.145 186.562 136.571 187.452C136.998 188.332 137.211 189.303 137.211 190.364V191.898C137.211 192.958 136.993 193.934 136.557 194.824C136.131 195.705 135.497 196.415 134.654 196.955C133.82 197.485 132.798 197.75 131.586 197.75C130.355 197.75 129.318 197.485 128.475 196.955C127.632 196.415 126.993 195.705 126.557 194.824C126.122 193.934 125.904 192.958 125.904 191.898ZM128.801 190.364V191.898C128.801 192.778 129.01 193.569 129.426 194.27C129.843 194.961 130.563 195.307 131.586 195.307C132.58 195.307 133.281 194.961 133.688 194.27C134.105 193.569 134.313 192.778 134.313 191.898V190.364C134.313 189.483 134.114 188.697 133.716 188.006C133.319 187.305 132.608 186.955 131.586 186.955C130.591 186.955 129.876 187.305 129.441 188.006C129.015 188.697 128.801 189.483 128.801 190.364ZM126.983 214L146.983 184.909H150.222L130.222 214H126.983Z" fill="black"/>
</svg>
