<svg width="291" height="206" viewBox="0 0 291 206" fill="none" xmlns="http://www.w3.org/2000/svg">
<path d="M133.7 0C154.252 2.45079e-07 174.602 4.04799 193.59 11.9129C212.577 19.7777 229.83 31.3054 244.362 45.8378C258.895 60.3702 270.422 77.6226 278.287 96.6101C286.152 115.598 290.2 135.948 290.2 156.5H274.811C274.811 137.969 271.161 119.619 264.07 102.499C256.978 85.3786 246.584 69.8227 233.481 56.7193C220.377 43.6159 204.821 33.2217 187.701 26.1302C170.58 19.0387 152.231 15.3887 133.7 15.3887V0Z" fill="#EA2E44"/>
<path d="M0 157V127.909H9.82955C12.1023 127.909 13.9678 128.297 15.4261 129.074C16.8845 129.841 17.964 130.897 18.6648 132.241C19.3655 133.586 19.7159 135.116 19.7159 136.83C19.7159 138.544 19.3655 140.063 18.6648 141.389C17.964 142.715 16.8892 143.757 15.4403 144.514C13.9915 145.262 12.1402 145.636 9.88636 145.636H1.93182V142.455H9.77273C11.3258 142.455 12.5758 142.227 13.5227 141.773C14.4792 141.318 15.1705 140.674 15.5966 139.841C16.0322 138.998 16.25 137.994 16.25 136.83C16.25 135.665 16.0322 134.647 15.5966 133.776C15.161 132.904 14.465 132.232 13.5085 131.759C12.5521 131.276 11.2879 131.034 9.71591 131.034H3.52273V157H0ZM13.6932 143.932L20.8523 157H16.7614L9.71591 143.932H13.6932Z" fill="black"/>
<path d="M33.7607 157.455C31.791 157.455 30.0627 156.986 28.576 156.048C27.0987 155.111 25.9434 153.799 25.1101 152.114C24.2862 150.428 23.8743 148.458 23.8743 146.205C23.8743 143.932 24.2862 141.948 25.1101 140.253C25.9434 138.558 27.0987 137.241 28.576 136.304C30.0627 135.366 31.791 134.898 33.7607 134.898C35.7304 134.898 37.4538 135.366 38.9311 136.304C40.4179 137.241 41.5732 138.558 42.397 140.253C43.2304 141.948 43.647 143.932 43.647 146.205C43.647 148.458 43.2304 150.428 42.397 152.114C41.5732 153.799 40.4179 155.111 38.9311 156.048C37.4538 156.986 35.7304 157.455 33.7607 157.455ZM33.7607 154.443C35.2569 154.443 36.4879 154.06 37.4538 153.293C38.4197 152.526 39.1347 151.517 39.5987 150.267C40.0627 149.017 40.2947 147.663 40.2947 146.205C40.2947 144.746 40.0627 143.387 39.5987 142.128C39.1347 140.868 38.4197 139.85 37.4538 139.074C36.4879 138.297 35.2569 137.909 33.7607 137.909C32.2644 137.909 31.0334 138.297 30.0675 139.074C29.1016 139.85 28.3866 140.868 27.9226 142.128C27.4586 143.387 27.2266 144.746 27.2266 146.205C27.2266 147.663 27.4586 149.017 27.9226 150.267C28.3866 151.517 29.1016 152.526 30.0675 153.293C31.0334 154.06 32.2644 154.443 33.7607 154.443Z" fill="black"/>
<path d="M48.7642 157V135.182H52.0028V138.591H52.2869C52.7415 137.426 53.4754 136.522 54.4886 135.878C55.5019 135.224 56.7188 134.898 58.1392 134.898C59.5786 134.898 60.7765 135.224 61.733 135.878C62.6989 136.522 63.4517 137.426 63.9915 138.591H64.2188C64.7775 137.464 65.6155 136.569 66.733 135.906C67.8504 135.234 69.1903 134.898 70.7528 134.898C72.7036 134.898 74.2992 135.509 75.5398 136.73C76.7803 137.942 77.4006 139.831 77.4006 142.398V157H74.0483V142.398C74.0483 140.788 73.608 139.637 72.7273 138.946C71.8466 138.255 70.8097 137.909 69.6165 137.909C68.0824 137.909 66.8939 138.373 66.0511 139.301C65.2083 140.22 64.7869 141.384 64.7869 142.795V157H61.3778V142.057C61.3778 140.816 60.9754 139.817 60.1705 139.06C59.3655 138.293 58.3286 137.909 57.0597 137.909C56.1884 137.909 55.3741 138.141 54.6165 138.605C53.8684 139.069 53.2623 139.713 52.7983 140.537C52.3437 141.351 52.1165 142.294 52.1165 143.364V157H48.7642Z" fill="black"/>
<path d="M89.9503 157.511C88.5677 157.511 87.313 157.251 86.1861 156.73C85.0592 156.2 84.1643 155.437 83.5014 154.443C82.8385 153.439 82.5071 152.227 82.5071 150.807C82.5071 149.557 82.7533 148.544 83.2457 147.767C83.7382 146.981 84.3963 146.366 85.2202 145.92C86.044 145.475 86.9531 145.144 87.9474 144.926C88.9512 144.699 89.9598 144.519 90.973 144.386C92.2988 144.216 93.3736 144.088 94.1974 144.003C95.0308 143.908 95.6368 143.752 96.0156 143.534C96.4039 143.316 96.598 142.937 96.598 142.398V142.284C96.598 140.883 96.2145 139.794 95.4474 139.017C94.6899 138.241 93.5393 137.852 91.9957 137.852C90.3954 137.852 89.1406 138.203 88.2315 138.903C87.3224 139.604 86.6832 140.352 86.3139 141.148L83.1321 140.011C83.7003 138.686 84.4579 137.653 85.4048 136.915C86.3613 136.167 87.4029 135.646 88.5298 135.352C89.6662 135.049 90.7836 134.898 91.8821 134.898C92.5829 134.898 93.3878 134.983 94.2969 135.153C95.2154 135.314 96.1009 135.651 96.9531 136.162C97.8149 136.673 98.5298 137.445 99.098 138.477C99.6662 139.509 99.9503 140.892 99.9503 142.625V157H96.598V154.045H96.4276C96.2003 154.519 95.8215 155.026 95.2912 155.565C94.7609 156.105 94.0554 156.564 93.1747 156.943C92.294 157.322 91.2192 157.511 89.9503 157.511ZM90.4616 154.5C91.7874 154.5 92.9048 154.24 93.8139 153.719C94.7325 153.198 95.4238 152.526 95.8878 151.702C96.3613 150.878 96.598 150.011 96.598 149.102V146.034C96.456 146.205 96.1435 146.361 95.6605 146.503C95.187 146.635 94.6378 146.754 94.0128 146.858C93.3973 146.953 92.7959 147.038 92.2088 147.114C91.6312 147.18 91.1624 147.237 90.8026 147.284C89.9313 147.398 89.117 147.582 88.3594 147.838C87.6113 148.084 87.0052 148.458 86.5412 148.96C86.0866 149.453 85.8594 150.125 85.8594 150.977C85.8594 152.142 86.2902 153.023 87.152 153.619C88.0232 154.206 89.1264 154.5 90.4616 154.5Z" fill="black"/>
<path d="M109.421 143.875V157H106.069V135.182H109.308V138.591H109.592C110.103 137.483 110.879 136.593 111.921 135.92C112.963 135.239 114.308 134.898 115.955 134.898C117.433 134.898 118.725 135.201 119.833 135.807C120.941 136.403 121.803 137.312 122.418 138.534C123.034 139.746 123.342 141.28 123.342 143.136V157H119.989V143.364C119.989 141.65 119.544 140.314 118.654 139.358C117.764 138.392 116.542 137.909 114.989 137.909C113.919 137.909 112.963 138.141 112.12 138.605C111.287 139.069 110.629 139.746 110.146 140.636C109.663 141.527 109.421 142.606 109.421 143.875Z" fill="black"/>
<path d="M141.172 157V127.909H151.001C153.284 127.909 155.149 128.321 156.598 129.145C158.056 129.959 159.136 131.062 159.837 132.455C160.537 133.847 160.888 135.4 160.888 137.114C160.888 138.828 160.537 140.385 159.837 141.787C159.145 143.188 158.075 144.306 156.626 145.139C155.178 145.963 153.322 146.375 151.058 146.375H144.013V143.25H150.945C152.507 143.25 153.762 142.98 154.709 142.44C155.656 141.901 156.342 141.171 156.768 140.253C157.204 139.325 157.422 138.278 157.422 137.114C157.422 135.949 157.204 134.907 156.768 133.989C156.342 133.07 155.651 132.35 154.695 131.83C153.738 131.299 152.469 131.034 150.888 131.034H144.695V157H141.172Z" fill="black"/>
<path d="M174.737 157.455C172.768 157.455 171.039 156.986 169.553 156.048C168.075 155.111 166.92 153.799 166.087 152.114C165.263 150.428 164.851 148.458 164.851 146.205C164.851 143.932 165.263 141.948 166.087 140.253C166.92 138.558 168.075 137.241 169.553 136.304C171.039 135.366 172.768 134.898 174.737 134.898C176.707 134.898 178.43 135.366 179.908 136.304C181.394 137.241 182.55 138.558 183.374 140.253C184.207 141.948 184.624 143.932 184.624 146.205C184.624 148.458 184.207 150.428 183.374 152.114C182.55 153.799 181.394 155.111 179.908 156.048C178.43 156.986 176.707 157.455 174.737 157.455ZM174.737 154.443C176.233 154.443 177.464 154.06 178.43 153.293C179.396 152.526 180.111 151.517 180.575 150.267C181.039 149.017 181.271 147.663 181.271 146.205C181.271 144.746 181.039 143.387 180.575 142.128C180.111 140.868 179.396 139.85 178.43 139.074C177.464 138.297 176.233 137.909 174.737 137.909C173.241 137.909 172.01 138.297 171.044 139.074C170.078 139.85 169.363 140.868 168.899 142.128C168.435 143.387 168.203 144.746 168.203 146.205C168.203 147.663 168.435 149.017 168.899 150.267C169.363 151.517 170.078 152.526 171.044 153.293C172.01 154.06 173.241 154.443 174.737 154.443Z" fill="black"/>
<path d="M193.093 127.909V157H189.741V127.909H193.093Z" fill="black"/>
<path d="M199.233 157V135.182H202.585V157H199.233ZM200.938 131.545C200.284 131.545 199.721 131.323 199.247 130.878C198.783 130.433 198.551 129.898 198.551 129.273C198.551 128.648 198.783 128.113 199.247 127.668C199.721 127.223 200.284 127 200.938 127C201.591 127 202.15 127.223 202.614 127.668C203.087 128.113 203.324 128.648 203.324 129.273C203.324 129.898 203.087 130.433 202.614 130.878C202.15 131.323 201.591 131.545 200.938 131.545Z" fill="black"/>
<path d="M218.214 135.182V138.023H206.907V135.182H218.214ZM210.202 129.955H213.555V150.75C213.555 151.697 213.692 152.407 213.967 152.881C214.251 153.345 214.611 153.657 215.046 153.818C215.491 153.97 215.96 154.045 216.452 154.045C216.822 154.045 217.125 154.027 217.362 153.989C217.598 153.941 217.788 153.903 217.93 153.875L218.612 156.886C218.384 156.972 218.067 157.057 217.66 157.142C217.253 157.237 216.737 157.284 216.112 157.284C215.165 157.284 214.236 157.08 213.327 156.673C212.428 156.266 211.68 155.646 211.083 154.812C210.496 153.979 210.202 152.928 210.202 151.659V129.955Z" fill="black"/>
<path d="M223.256 157V135.182H226.609V157H223.256ZM224.961 131.545C224.308 131.545 223.744 131.323 223.271 130.878C222.807 130.433 222.575 129.898 222.575 129.273C222.575 128.648 222.807 128.113 223.271 127.668C223.744 127.223 224.308 127 224.961 127C225.614 127 226.173 127.223 226.637 127.668C227.111 128.113 227.347 128.648 227.347 129.273C227.347 129.898 227.111 130.433 226.637 130.878C226.173 131.323 225.614 131.545 224.961 131.545Z" fill="black"/>
<path d="M241.612 157.455C239.567 157.455 237.805 156.972 236.328 156.006C234.851 155.04 233.714 153.709 232.919 152.014C232.124 150.319 231.726 148.383 231.726 146.205C231.726 143.989 232.133 142.033 232.947 140.338C233.771 138.634 234.917 137.303 236.385 136.347C237.862 135.381 239.586 134.898 241.555 134.898C243.089 134.898 244.472 135.182 245.703 135.75C246.934 136.318 247.943 137.114 248.729 138.136C249.515 139.159 250.002 140.352 250.192 141.716H246.839C246.584 140.722 246.016 139.841 245.135 139.074C244.264 138.297 243.089 137.909 241.612 137.909C240.305 137.909 239.16 138.25 238.175 138.932C237.199 139.604 236.437 140.556 235.888 141.787C235.348 143.009 235.078 144.443 235.078 146.091C235.078 147.777 235.343 149.244 235.874 150.494C236.413 151.744 237.171 152.715 238.146 153.406C239.131 154.098 240.286 154.443 241.612 154.443C242.483 154.443 243.274 154.292 243.984 153.989C244.695 153.686 245.296 153.25 245.788 152.682C246.281 152.114 246.631 151.432 246.839 150.636H250.192C250.002 151.924 249.534 153.084 248.786 154.116C248.047 155.139 247.067 155.954 245.845 156.56C244.633 157.156 243.222 157.455 241.612 157.455Z" fill="black"/>
<path d="M270.547 140.068L267.536 140.92C267.346 140.419 267.067 139.931 266.697 139.457C266.338 138.974 265.845 138.577 265.22 138.264C264.595 137.952 263.795 137.795 262.82 137.795C261.484 137.795 260.372 138.103 259.482 138.719C258.601 139.325 258.161 140.097 258.161 141.034C258.161 141.867 258.464 142.526 259.07 143.009C259.676 143.491 260.623 143.894 261.911 144.216L265.149 145.011C267.1 145.485 268.554 146.209 269.51 147.185C270.466 148.151 270.945 149.396 270.945 150.92C270.945 152.17 270.585 153.288 269.865 154.273C269.155 155.258 268.161 156.034 266.882 156.602C265.604 157.17 264.117 157.455 262.422 157.455C260.196 157.455 258.355 156.972 256.896 156.006C255.438 155.04 254.515 153.629 254.126 151.773L257.308 150.977C257.611 152.152 258.184 153.032 259.027 153.619C259.879 154.206 260.992 154.5 262.365 154.5C263.928 154.5 265.168 154.169 266.087 153.506C267.015 152.833 267.479 152.028 267.479 151.091C267.479 150.333 267.214 149.699 266.683 149.188C266.153 148.667 265.339 148.278 264.24 148.023L260.604 147.17C258.606 146.697 257.138 145.963 256.2 144.969C255.272 143.965 254.808 142.71 254.808 141.205C254.808 139.973 255.154 138.884 255.845 137.938C256.546 136.991 257.498 136.247 258.7 135.707C259.912 135.168 261.286 134.898 262.82 134.898C264.979 134.898 266.674 135.371 267.905 136.318C269.145 137.265 270.026 138.515 270.547 140.068Z" fill="black"/>
<path d="M97.184 205V202.443L106.786 191.932C107.913 190.701 108.841 189.631 109.57 188.722C110.299 187.803 110.839 186.941 111.19 186.136C111.549 185.322 111.729 184.47 111.729 183.58C111.729 182.557 111.483 181.671 110.991 180.923C110.508 180.175 109.845 179.598 109.002 179.19C108.159 178.783 107.212 178.58 106.161 178.58C105.044 178.58 104.068 178.812 103.235 179.276C102.411 179.73 101.772 180.369 101.317 181.193C100.872 182.017 100.65 182.983 100.65 184.091H97.2976C97.2976 182.386 97.6906 180.89 98.4766 179.602C99.2625 178.314 100.333 177.311 101.687 176.591C103.05 175.871 104.58 175.511 106.275 175.511C107.979 175.511 109.49 175.871 110.806 176.591C112.122 177.311 113.155 178.281 113.903 179.503C114.651 180.724 115.025 182.083 115.025 183.58C115.025 184.65 114.831 185.696 114.442 186.719C114.064 187.732 113.401 188.864 112.454 190.114C111.516 191.354 110.214 192.869 108.548 194.659L102.013 201.648V201.875H115.536V205H97.184Z" fill="black"/>
<path d="M130.494 205.398C128.827 205.398 127.326 205.066 125.991 204.403C124.656 203.741 123.585 202.831 122.781 201.676C121.976 200.521 121.535 199.205 121.46 197.727H124.869C125.001 199.044 125.598 200.133 126.658 200.994C127.728 201.847 129.007 202.273 130.494 202.273C131.687 202.273 132.747 201.993 133.675 201.435C134.613 200.876 135.347 200.109 135.877 199.134C136.417 198.149 136.687 197.036 136.687 195.795C136.687 194.527 136.407 193.395 135.849 192.401C135.299 191.397 134.542 190.606 133.576 190.028C132.61 189.451 131.507 189.157 130.266 189.148C129.376 189.138 128.462 189.276 127.525 189.56C126.587 189.834 125.816 190.189 125.21 190.625L121.914 190.227L123.675 175.909H138.789V179.034H126.63L125.607 187.614H125.778C126.374 187.14 127.122 186.747 128.022 186.435C128.922 186.122 129.859 185.966 130.835 185.966C132.615 185.966 134.201 186.392 135.593 187.244C136.995 188.087 138.093 189.242 138.888 190.71C139.693 192.178 140.096 193.854 140.096 195.739C140.096 197.595 139.679 199.252 138.846 200.71C138.022 202.159 136.886 203.305 135.437 204.148C133.988 204.981 132.34 205.398 130.494 205.398Z" fill="black"/>
<path d="M160.568 199.545V198.011C160.568 196.951 160.786 195.98 161.222 195.099C161.667 194.209 162.311 193.499 163.153 192.969C164.006 192.429 165.038 192.159 166.25 192.159C167.481 192.159 168.513 192.429 169.347 192.969C170.18 193.499 170.81 194.209 171.236 195.099C171.662 195.98 171.875 196.951 171.875 198.011V199.545C171.875 200.606 171.657 201.581 171.222 202.472C170.795 203.352 170.161 204.063 169.318 204.602C168.485 205.133 167.462 205.398 166.25 205.398C165.019 205.398 163.982 205.133 163.139 204.602C162.296 204.063 161.657 203.352 161.222 202.472C160.786 201.581 160.568 200.606 160.568 199.545ZM163.466 198.011V199.545C163.466 200.426 163.674 201.217 164.091 201.918C164.508 202.609 165.227 202.955 166.25 202.955C167.244 202.955 167.945 202.609 168.352 201.918C168.769 201.217 168.977 200.426 168.977 199.545V198.011C168.977 197.131 168.778 196.345 168.381 195.653C167.983 194.953 167.273 194.602 166.25 194.602C165.256 194.602 164.541 194.953 164.105 195.653C163.679 196.345 163.466 197.131 163.466 198.011ZM146.08 182.898V181.364C146.08 180.303 146.297 179.332 146.733 178.452C147.178 177.562 147.822 176.851 148.665 176.321C149.517 175.781 150.549 175.511 151.761 175.511C152.992 175.511 154.025 175.781 154.858 176.321C155.691 176.851 156.321 177.562 156.747 178.452C157.173 179.332 157.386 180.303 157.386 181.364V182.898C157.386 183.958 157.169 184.934 156.733 185.824C156.307 186.705 155.672 187.415 154.83 187.955C153.996 188.485 152.973 188.75 151.761 188.75C150.53 188.75 149.493 188.485 148.651 187.955C147.808 187.415 147.169 186.705 146.733 185.824C146.297 184.934 146.08 183.958 146.08 182.898ZM148.977 181.364V182.898C148.977 183.778 149.186 184.569 149.602 185.27C150.019 185.961 150.739 186.307 151.761 186.307C152.756 186.307 153.456 185.961 153.864 185.27C154.28 184.569 154.489 183.778 154.489 182.898V181.364C154.489 180.483 154.29 179.697 153.892 179.006C153.494 178.305 152.784 177.955 151.761 177.955C150.767 177.955 150.052 178.305 149.616 179.006C149.19 179.697 148.977 180.483 148.977 181.364ZM147.159 205L167.159 175.909H170.398L150.398 205H147.159Z" fill="black"/>
</svg>
