<svg width="291" height="313" viewBox="0 0 291 313" fill="none" xmlns="http://www.w3.org/2000/svg">
<path d="M133.7 0C158.389 2.94414e-07 182.728 5.84123 204.728 17.0464C226.728 28.2516 245.764 44.5028 260.282 64.4722C274.801 84.4415 284.388 107.562 288.262 131.946C292.135 156.329 290.185 181.283 282.57 204.768C274.956 228.254 261.892 249.605 244.448 267.076C227.004 284.547 205.674 297.644 182.2 305.295C158.727 312.946 133.776 314.935 109.386 311.1C84.9971 307.264 61.8613 297.713 41.8693 283.226L50.8991 270.765C68.9252 283.827 89.7861 292.44 111.777 295.898C133.768 299.356 156.266 297.563 177.431 290.664C198.597 283.765 217.829 271.956 233.558 256.203C249.287 240.45 261.066 221.198 267.932 200.022C274.798 178.846 276.556 156.346 273.064 134.36C269.571 112.375 260.926 91.5271 247.836 73.5213C234.745 55.5155 217.58 40.8623 197.744 30.7589C177.907 20.6556 155.961 15.3887 133.7 15.3887V0Z" fill="#EAB52E"/>
<path d="M0 166V136.909H9.82955C12.1023 136.909 13.9678 137.297 15.4261 138.074C16.8845 138.841 17.964 139.897 18.6648 141.241C19.3655 142.586 19.7159 144.116 19.7159 145.83C19.7159 147.544 19.3655 149.063 18.6648 150.389C17.964 151.715 16.8892 152.757 15.4403 153.514C13.9915 154.262 12.1402 154.636 9.88636 154.636H1.93182V151.455H9.77273C11.3258 151.455 12.5758 151.227 13.5227 150.773C14.4792 150.318 15.1705 149.674 15.5966 148.841C16.0322 147.998 16.25 146.994 16.25 145.83C16.25 144.665 16.0322 143.647 15.5966 142.776C15.161 141.904 14.465 141.232 13.5085 140.759C12.5521 140.276 11.2879 140.034 9.71591 140.034H3.52273V166H0ZM13.6932 152.932L20.8523 166H16.7614L9.71591 152.932H13.6932Z" fill="black"/>
<path d="M33.7607 166.455C31.791 166.455 30.0627 165.986 28.576 165.048C27.0987 164.111 25.9434 162.799 25.1101 161.114C24.2862 159.428 23.8743 157.458 23.8743 155.205C23.8743 152.932 24.2862 150.948 25.1101 149.253C25.9434 147.558 27.0987 146.241 28.576 145.304C30.0627 144.366 31.791 143.898 33.7607 143.898C35.7304 143.898 37.4538 144.366 38.9311 145.304C40.4179 146.241 41.5732 147.558 42.397 149.253C43.2304 150.948 43.647 152.932 43.647 155.205C43.647 157.458 43.2304 159.428 42.397 161.114C41.5732 162.799 40.4179 164.111 38.9311 165.048C37.4538 165.986 35.7304 166.455 33.7607 166.455ZM33.7607 163.443C35.2569 163.443 36.4879 163.06 37.4538 162.293C38.4197 161.526 39.1347 160.517 39.5987 159.267C40.0627 158.017 40.2947 156.663 40.2947 155.205C40.2947 153.746 40.0627 152.387 39.5987 151.128C39.1347 149.868 38.4197 148.85 37.4538 148.074C36.4879 147.297 35.2569 146.909 33.7607 146.909C32.2644 146.909 31.0334 147.297 30.0675 148.074C29.1016 148.85 28.3866 149.868 27.9226 151.128C27.4586 152.387 27.2266 153.746 27.2266 155.205C27.2266 156.663 27.4586 158.017 27.9226 159.267C28.3866 160.517 29.1016 161.526 30.0675 162.293C31.0334 163.06 32.2644 163.443 33.7607 163.443Z" fill="black"/>
<path d="M48.7642 166V144.182H52.0028V147.591H52.2869C52.7415 146.426 53.4754 145.522 54.4886 144.878C55.5019 144.224 56.7188 143.898 58.1392 143.898C59.5786 143.898 60.7765 144.224 61.733 144.878C62.6989 145.522 63.4517 146.426 63.9915 147.591H64.2188C64.7775 146.464 65.6155 145.569 66.733 144.906C67.8504 144.234 69.1903 143.898 70.7528 143.898C72.7036 143.898 74.2992 144.509 75.5398 145.73C76.7803 146.942 77.4006 148.831 77.4006 151.398V166H74.0483V151.398C74.0483 149.788 73.608 148.637 72.7273 147.946C71.8466 147.255 70.8097 146.909 69.6165 146.909C68.0824 146.909 66.8939 147.373 66.0511 148.301C65.2083 149.22 64.7869 150.384 64.7869 151.795V166H61.3778V151.057C61.3778 149.816 60.9754 148.817 60.1705 148.06C59.3655 147.293 58.3286 146.909 57.0597 146.909C56.1884 146.909 55.3741 147.141 54.6165 147.605C53.8684 148.069 53.2623 148.713 52.7983 149.537C52.3437 150.351 52.1165 151.294 52.1165 152.364V166H48.7642Z" fill="black"/>
<path d="M89.9503 166.511C88.5677 166.511 87.313 166.251 86.1861 165.73C85.0592 165.2 84.1643 164.437 83.5014 163.443C82.8385 162.439 82.5071 161.227 82.5071 159.807C82.5071 158.557 82.7533 157.544 83.2457 156.767C83.7382 155.981 84.3963 155.366 85.2202 154.92C86.044 154.475 86.9531 154.144 87.9474 153.926C88.9512 153.699 89.9598 153.519 90.973 153.386C92.2988 153.216 93.3736 153.088 94.1974 153.003C95.0308 152.908 95.6368 152.752 96.0156 152.534C96.4039 152.316 96.598 151.937 96.598 151.398V151.284C96.598 149.883 96.2145 148.794 95.4474 148.017C94.6899 147.241 93.5393 146.852 91.9957 146.852C90.3954 146.852 89.1406 147.203 88.2315 147.903C87.3224 148.604 86.6832 149.352 86.3139 150.148L83.1321 149.011C83.7003 147.686 84.4579 146.653 85.4048 145.915C86.3613 145.167 87.4029 144.646 88.5298 144.352C89.6662 144.049 90.7836 143.898 91.8821 143.898C92.5829 143.898 93.3878 143.983 94.2969 144.153C95.2154 144.314 96.1009 144.651 96.9531 145.162C97.8149 145.673 98.5298 146.445 99.098 147.477C99.6662 148.509 99.9503 149.892 99.9503 151.625V166H96.598V163.045H96.4276C96.2003 163.519 95.8215 164.026 95.2912 164.565C94.7609 165.105 94.0554 165.564 93.1747 165.943C92.294 166.322 91.2192 166.511 89.9503 166.511ZM90.4616 163.5C91.7874 163.5 92.9048 163.24 93.8139 162.719C94.7325 162.198 95.4238 161.526 95.8878 160.702C96.3613 159.878 96.598 159.011 96.598 158.102V155.034C96.456 155.205 96.1435 155.361 95.6605 155.503C95.187 155.635 94.6378 155.754 94.0128 155.858C93.3973 155.953 92.7959 156.038 92.2088 156.114C91.6312 156.18 91.1624 156.237 90.8026 156.284C89.9313 156.398 89.117 156.582 88.3594 156.838C87.6113 157.084 87.0052 157.458 86.5412 157.96C86.0866 158.453 85.8594 159.125 85.8594 159.977C85.8594 161.142 86.2902 162.023 87.152 162.619C88.0232 163.206 89.1264 163.5 90.4616 163.5Z" fill="black"/>
<path d="M109.421 152.875V166H106.069V144.182H109.308V147.591H109.592C110.103 146.483 110.879 145.593 111.921 144.92C112.963 144.239 114.308 143.898 115.955 143.898C117.433 143.898 118.725 144.201 119.833 144.807C120.941 145.403 121.803 146.312 122.418 147.534C123.034 148.746 123.342 150.28 123.342 152.136V166H119.989V152.364C119.989 150.65 119.544 149.314 118.654 148.358C117.764 147.392 116.542 146.909 114.989 146.909C113.919 146.909 112.963 147.141 112.12 147.605C111.287 148.069 110.629 148.746 110.146 149.636C109.663 150.527 109.421 151.606 109.421 152.875Z" fill="black"/>
<path d="M141.172 166V136.909H151.001C153.284 136.909 155.149 137.321 156.598 138.145C158.056 138.959 159.136 140.062 159.837 141.455C160.537 142.847 160.888 144.4 160.888 146.114C160.888 147.828 160.537 149.385 159.837 150.787C159.145 152.188 158.075 153.306 156.626 154.139C155.178 154.963 153.322 155.375 151.058 155.375H144.013V152.25H150.945C152.507 152.25 153.762 151.98 154.709 151.44C155.656 150.901 156.342 150.171 156.768 149.253C157.204 148.325 157.422 147.278 157.422 146.114C157.422 144.949 157.204 143.907 156.768 142.989C156.342 142.07 155.651 141.35 154.695 140.83C153.738 140.299 152.469 140.034 150.888 140.034H144.695V166H141.172Z" fill="black"/>
<path d="M174.737 166.455C172.768 166.455 171.039 165.986 169.553 165.048C168.075 164.111 166.92 162.799 166.087 161.114C165.263 159.428 164.851 157.458 164.851 155.205C164.851 152.932 165.263 150.948 166.087 149.253C166.92 147.558 168.075 146.241 169.553 145.304C171.039 144.366 172.768 143.898 174.737 143.898C176.707 143.898 178.43 144.366 179.908 145.304C181.394 146.241 182.55 147.558 183.374 149.253C184.207 150.948 184.624 152.932 184.624 155.205C184.624 157.458 184.207 159.428 183.374 161.114C182.55 162.799 181.394 164.111 179.908 165.048C178.43 165.986 176.707 166.455 174.737 166.455ZM174.737 163.443C176.233 163.443 177.464 163.06 178.43 162.293C179.396 161.526 180.111 160.517 180.575 159.267C181.039 158.017 181.271 156.663 181.271 155.205C181.271 153.746 181.039 152.387 180.575 151.128C180.111 149.868 179.396 148.85 178.43 148.074C177.464 147.297 176.233 146.909 174.737 146.909C173.241 146.909 172.01 147.297 171.044 148.074C170.078 148.85 169.363 149.868 168.899 151.128C168.435 152.387 168.203 153.746 168.203 155.205C168.203 156.663 168.435 158.017 168.899 159.267C169.363 160.517 170.078 161.526 171.044 162.293C172.01 163.06 173.241 163.443 174.737 163.443Z" fill="black"/>
<path d="M193.093 136.909V166H189.741V136.909H193.093Z" fill="black"/>
<path d="M199.233 166V144.182H202.585V166H199.233ZM200.938 140.545C200.284 140.545 199.721 140.323 199.247 139.878C198.783 139.433 198.551 138.898 198.551 138.273C198.551 137.648 198.783 137.113 199.247 136.668C199.721 136.223 200.284 136 200.938 136C201.591 136 202.15 136.223 202.614 136.668C203.087 137.113 203.324 137.648 203.324 138.273C203.324 138.898 203.087 139.433 202.614 139.878C202.15 140.323 201.591 140.545 200.938 140.545Z" fill="black"/>
<path d="M218.214 144.182V147.023H206.907V144.182H218.214ZM210.202 138.955H213.555V159.75C213.555 160.697 213.692 161.407 213.967 161.881C214.251 162.345 214.611 162.657 215.046 162.818C215.491 162.97 215.96 163.045 216.452 163.045C216.822 163.045 217.125 163.027 217.362 162.989C217.598 162.941 217.788 162.903 217.93 162.875L218.612 165.886C218.384 165.972 218.067 166.057 217.66 166.142C217.253 166.237 216.737 166.284 216.112 166.284C215.165 166.284 214.236 166.08 213.327 165.673C212.428 165.266 211.68 164.646 211.083 163.812C210.496 162.979 210.202 161.928 210.202 160.659V138.955Z" fill="black"/>
<path d="M223.256 166V144.182H226.609V166H223.256ZM224.961 140.545C224.308 140.545 223.744 140.323 223.271 139.878C222.807 139.433 222.575 138.898 222.575 138.273C222.575 137.648 222.807 137.113 223.271 136.668C223.744 136.223 224.308 136 224.961 136C225.614 136 226.173 136.223 226.637 136.668C227.111 137.113 227.347 137.648 227.347 138.273C227.347 138.898 227.111 139.433 226.637 139.878C226.173 140.323 225.614 140.545 224.961 140.545Z" fill="black"/>
<path d="M241.612 166.455C239.567 166.455 237.805 165.972 236.328 165.006C234.851 164.04 233.714 162.709 232.919 161.014C232.124 159.319 231.726 157.383 231.726 155.205C231.726 152.989 232.133 151.033 232.947 149.338C233.771 147.634 234.917 146.303 236.385 145.347C237.862 144.381 239.586 143.898 241.555 143.898C243.089 143.898 244.472 144.182 245.703 144.75C246.934 145.318 247.943 146.114 248.729 147.136C249.515 148.159 250.002 149.352 250.192 150.716H246.839C246.584 149.722 246.016 148.841 245.135 148.074C244.264 147.297 243.089 146.909 241.612 146.909C240.305 146.909 239.16 147.25 238.175 147.932C237.199 148.604 236.437 149.556 235.888 150.787C235.348 152.009 235.078 153.443 235.078 155.091C235.078 156.777 235.343 158.244 235.874 159.494C236.413 160.744 237.171 161.715 238.146 162.406C239.131 163.098 240.286 163.443 241.612 163.443C242.483 163.443 243.274 163.292 243.984 162.989C244.695 162.686 245.296 162.25 245.788 161.682C246.281 161.114 246.631 160.432 246.839 159.636H250.192C250.002 160.924 249.534 162.084 248.786 163.116C248.047 164.139 247.067 164.954 245.845 165.56C244.633 166.156 243.222 166.455 241.612 166.455Z" fill="black"/>
<path d="M270.547 149.068L267.536 149.92C267.346 149.419 267.067 148.931 266.697 148.457C266.338 147.974 265.845 147.577 265.22 147.264C264.595 146.952 263.795 146.795 262.82 146.795C261.484 146.795 260.372 147.103 259.482 147.719C258.601 148.325 258.161 149.097 258.161 150.034C258.161 150.867 258.464 151.526 259.07 152.009C259.676 152.491 260.623 152.894 261.911 153.216L265.149 154.011C267.1 154.485 268.554 155.209 269.51 156.185C270.466 157.151 270.945 158.396 270.945 159.92C270.945 161.17 270.585 162.288 269.865 163.273C269.155 164.258 268.161 165.034 266.882 165.602C265.604 166.17 264.117 166.455 262.422 166.455C260.196 166.455 258.355 165.972 256.896 165.006C255.438 164.04 254.515 162.629 254.126 160.773L257.308 159.977C257.611 161.152 258.184 162.032 259.027 162.619C259.879 163.206 260.992 163.5 262.365 163.5C263.928 163.5 265.168 163.169 266.087 162.506C267.015 161.833 267.479 161.028 267.479 160.091C267.479 159.333 267.214 158.699 266.683 158.188C266.153 157.667 265.339 157.278 264.24 157.023L260.604 156.17C258.606 155.697 257.138 154.963 256.2 153.969C255.272 152.965 254.808 151.71 254.808 150.205C254.808 148.973 255.154 147.884 255.845 146.938C256.546 145.991 257.498 145.247 258.7 144.707C259.912 144.168 261.286 143.898 262.82 143.898C264.979 143.898 266.674 144.371 267.905 145.318C269.145 146.265 270.026 147.515 270.547 149.068Z" fill="black"/>
<path d="M106.14 214.398C104.947 214.379 103.754 214.152 102.56 213.716C101.367 213.28 100.278 212.546 99.2933 211.514C98.3085 210.473 97.5178 209.066 96.9212 207.295C96.3246 205.515 96.0263 203.28 96.0263 200.591C96.0263 198.015 96.2678 195.733 96.7507 193.744C97.2337 191.746 97.9344 190.065 98.853 188.702C99.7715 187.329 100.88 186.287 102.177 185.577C103.484 184.866 104.956 184.511 106.594 184.511C108.223 184.511 109.672 184.838 110.941 185.491C112.219 186.135 113.261 187.035 114.066 188.19C114.871 189.346 115.392 190.676 115.629 192.182H112.163C111.841 190.875 111.216 189.791 110.288 188.929C109.36 188.067 108.129 187.636 106.594 187.636C104.341 187.636 102.565 188.616 101.268 190.577C99.9799 192.537 99.3312 195.288 99.3217 198.83H99.549C100.079 198.025 100.709 197.338 101.438 196.77C102.177 196.192 102.991 195.747 103.881 195.435C104.772 195.122 105.714 194.966 106.708 194.966C108.375 194.966 109.899 195.383 111.282 196.216C112.665 197.04 113.772 198.181 114.606 199.639C115.439 201.088 115.856 202.75 115.856 204.625C115.856 206.424 115.453 208.072 114.648 209.568C113.844 211.055 112.712 212.239 111.254 213.119C109.805 213.991 108.1 214.417 106.14 214.398ZM106.14 211.273C107.333 211.273 108.403 210.974 109.35 210.378C110.307 209.781 111.059 208.981 111.609 207.977C112.167 206.973 112.447 205.856 112.447 204.625C112.447 203.422 112.177 202.329 111.637 201.344C111.107 200.349 110.373 199.559 109.435 198.972C108.507 198.384 107.447 198.091 106.254 198.091C105.354 198.091 104.516 198.271 103.739 198.631C102.963 198.981 102.281 199.464 101.694 200.08C101.116 200.695 100.662 201.401 100.33 202.196C99.9988 202.982 99.8331 203.811 99.8331 204.682C99.8331 205.837 100.103 206.917 100.643 207.92C101.192 208.924 101.94 209.734 102.887 210.349C103.844 210.965 104.928 211.273 106.14 211.273Z" fill="black"/>
<path d="M130.93 214.398C128.79 214.398 126.967 213.815 125.462 212.651C123.956 211.476 122.805 209.777 122.01 207.551C121.214 205.316 120.817 202.617 120.817 199.455C120.817 196.311 121.214 193.626 122.01 191.401C122.815 189.166 123.97 187.461 125.476 186.287C126.991 185.103 128.809 184.511 130.93 184.511C133.052 184.511 134.865 185.103 136.371 186.287C137.886 187.461 139.041 189.166 139.837 191.401C140.642 193.626 141.044 196.311 141.044 199.455C141.044 202.617 140.646 205.316 139.851 207.551C139.055 209.777 137.905 211.476 136.399 212.651C134.893 213.815 133.071 214.398 130.93 214.398ZM130.93 211.273C133.052 211.273 134.699 210.25 135.874 208.205C137.048 206.159 137.635 203.242 137.635 199.455C137.635 196.936 137.365 194.791 136.825 193.02C136.295 191.249 135.528 189.9 134.524 188.972C133.53 188.044 132.332 187.58 130.93 187.58C128.828 187.58 127.185 188.616 126.001 190.69C124.818 192.755 124.226 195.676 124.226 199.455C124.226 201.973 124.491 204.114 125.021 205.875C125.552 207.636 126.314 208.976 127.308 209.895C128.312 210.813 129.519 211.273 130.93 211.273Z" fill="black"/>
<path d="M161.271 208.545V207.011C161.271 205.951 161.489 204.98 161.925 204.099C162.37 203.209 163.014 202.499 163.857 201.969C164.709 201.429 165.741 201.159 166.953 201.159C168.184 201.159 169.216 201.429 170.05 201.969C170.883 202.499 171.513 203.209 171.939 204.099C172.365 204.98 172.578 205.951 172.578 207.011V208.545C172.578 209.606 172.36 210.581 171.925 211.472C171.499 212.352 170.864 213.063 170.021 213.602C169.188 214.133 168.165 214.398 166.953 214.398C165.722 214.398 164.685 214.133 163.842 213.602C163 213.063 162.36 212.352 161.925 211.472C161.489 210.581 161.271 209.606 161.271 208.545ZM164.169 207.011V208.545C164.169 209.426 164.377 210.217 164.794 210.918C165.211 211.609 165.93 211.955 166.953 211.955C167.947 211.955 168.648 211.609 169.055 210.918C169.472 210.217 169.68 209.426 169.68 208.545V207.011C169.68 206.131 169.482 205.345 169.084 204.653C168.686 203.953 167.976 203.602 166.953 203.602C165.959 203.602 165.244 203.953 164.808 204.653C164.382 205.345 164.169 206.131 164.169 207.011ZM146.783 191.898V190.364C146.783 189.303 147 188.332 147.436 187.452C147.881 186.562 148.525 185.851 149.368 185.321C150.22 184.781 151.252 184.511 152.464 184.511C153.696 184.511 154.728 184.781 155.561 185.321C156.394 185.851 157.024 186.562 157.45 187.452C157.876 188.332 158.089 189.303 158.089 190.364V191.898C158.089 192.958 157.872 193.934 157.436 194.824C157.01 195.705 156.375 196.415 155.533 196.955C154.699 197.485 153.677 197.75 152.464 197.75C151.233 197.75 150.197 197.485 149.354 196.955C148.511 196.415 147.872 195.705 147.436 194.824C147 193.934 146.783 192.958 146.783 191.898ZM149.68 190.364V191.898C149.68 192.778 149.889 193.569 150.305 194.27C150.722 194.961 151.442 195.307 152.464 195.307C153.459 195.307 154.16 194.961 154.567 194.27C154.983 193.569 155.192 192.778 155.192 191.898V190.364C155.192 189.483 154.993 188.697 154.595 188.006C154.197 187.305 153.487 186.955 152.464 186.955C151.47 186.955 150.755 187.305 150.32 188.006C149.893 188.697 149.68 189.483 149.68 190.364ZM147.862 214L167.862 184.909H171.101L151.101 214H147.862Z" fill="black"/>
</svg>
