<svg width="313" height="313" viewBox="0 0 313 313" fill="none" xmlns="http://www.w3.org/2000/svg">
<path d="M156.5 0C193.76 4.44314e-07 229.797 13.2933 258.131 37.4894C286.465 61.6855 305.236 95.1966 311.07 131.997C316.904 168.796 309.417 206.47 289.955 238.243C270.494 270.016 240.335 293.803 204.903 305.327C169.47 316.851 131.089 315.355 96.6606 301.108C62.2324 286.861 34.0166 260.799 17.0874 227.608C0.158092 194.416 -4.37384 156.274 4.30655 120.04C12.9869 83.8058 34.3101 51.8574 64.4414 29.9401L73.4936 42.3847C46.3251 62.1469 27.0986 90.9538 19.2718 123.625C11.445 156.296 15.5313 190.688 30.7959 220.616C46.0605 250.543 71.5018 274.043 102.545 286.889C133.587 299.734 168.195 301.083 200.143 290.693C232.092 280.302 259.285 258.854 276.833 230.205C294.38 201.557 301.131 167.587 295.871 134.406C290.611 101.225 273.685 71.0086 248.137 49.1918C222.589 27.3749 190.096 15.3887 156.5 15.3887V0Z" fill="#2EEA3B"/>
<path d="M22.8003 148V118.909H32.6298C34.9026 118.909 36.7681 119.297 38.2264 120.074C39.6848 120.841 40.7643 121.897 41.4651 123.241C42.1658 124.586 42.5162 126.116 42.5162 127.83C42.5162 129.544 42.1658 131.063 41.4651 132.389C40.7643 133.715 39.6895 134.757 38.2406 135.514C36.7918 136.262 34.9404 136.636 32.6866 136.636H24.7321V133.455H32.573C34.126 133.455 35.376 133.227 36.323 132.773C37.2794 132.318 37.9707 131.674 38.3969 130.841C38.8325 129.998 39.0503 128.994 39.0503 127.83C39.0503 126.665 38.8325 125.647 38.3969 124.776C37.9613 123.904 37.2652 123.232 36.3088 122.759C35.3524 122.276 34.0882 122.034 32.5162 122.034H26.323V148H22.8003ZM36.4935 134.932L43.6526 148H39.5616L32.5162 134.932H36.4935Z" fill="black"/>
<path d="M56.5609 148.455C54.5912 148.455 52.863 147.986 51.3763 147.048C49.899 146.111 48.7437 144.799 47.9104 143.114C47.0865 141.428 46.6746 139.458 46.6746 137.205C46.6746 134.932 47.0865 132.948 47.9104 131.253C48.7437 129.558 49.899 128.241 51.3763 127.304C52.863 126.366 54.5912 125.898 56.5609 125.898C58.5306 125.898 60.2541 126.366 61.7314 127.304C63.2181 128.241 64.3734 129.558 65.1973 131.253C66.0306 132.948 66.4473 134.932 66.4473 137.205C66.4473 139.458 66.0306 141.428 65.1973 143.114C64.3734 144.799 63.2181 146.111 61.7314 147.048C60.2541 147.986 58.5306 148.455 56.5609 148.455ZM56.5609 145.443C58.0571 145.443 59.2882 145.06 60.2541 144.293C61.22 143.526 61.935 142.517 62.399 141.267C62.863 140.017 63.095 138.663 63.095 137.205C63.095 135.746 62.863 134.387 62.399 133.128C61.935 131.868 61.22 130.85 60.2541 130.074C59.2882 129.297 58.0571 128.909 56.5609 128.909C55.0647 128.909 53.8337 129.297 52.8678 130.074C51.9018 130.85 51.1869 131.868 50.7229 133.128C50.2589 134.387 50.0268 135.746 50.0268 137.205C50.0268 138.663 50.2589 140.017 50.7229 141.267C51.1869 142.517 51.9018 143.526 52.8678 144.293C53.8337 145.06 55.0647 145.443 56.5609 145.443Z" fill="black"/>
<path d="M71.5645 148V126.182H74.8031V129.591H75.0872C75.5418 128.426 76.2757 127.522 77.2889 126.878C78.3022 126.224 79.519 125.898 80.9395 125.898C82.3789 125.898 83.5768 126.224 84.5332 126.878C85.4992 127.522 86.252 128.426 86.7918 129.591H87.019C87.5777 128.464 88.4158 127.569 89.5332 126.906C90.6507 126.234 91.9906 125.898 93.5531 125.898C95.5039 125.898 97.0995 126.509 98.3401 127.73C99.5806 128.942 100.201 130.831 100.201 133.398V148H96.8486V133.398C96.8486 131.788 96.4082 130.637 95.5276 129.946C94.6469 129.255 93.6099 128.909 92.4168 128.909C90.8827 128.909 89.6942 129.373 88.8514 130.301C88.0086 131.22 87.5872 132.384 87.5872 133.795V148H84.1781V133.057C84.1781 131.816 83.7757 130.817 82.9707 130.06C82.1658 129.293 81.1289 128.909 79.8599 128.909C78.9887 128.909 78.1743 129.141 77.4168 129.605C76.6687 130.069 76.0626 130.713 75.5986 131.537C75.144 132.351 74.9168 133.294 74.9168 134.364V148H71.5645Z" fill="black"/>
<path d="M112.751 148.511C111.368 148.511 110.113 148.251 108.986 147.73C107.859 147.2 106.965 146.437 106.302 145.443C105.639 144.439 105.307 143.227 105.307 141.807C105.307 140.557 105.554 139.544 106.046 138.767C106.538 137.981 107.197 137.366 108.02 136.92C108.844 136.475 109.753 136.144 110.748 135.926C111.752 135.699 112.76 135.519 113.773 135.386C115.099 135.216 116.174 135.088 116.998 135.003C117.831 134.908 118.437 134.752 118.816 134.534C119.204 134.316 119.398 133.937 119.398 133.398V133.284C119.398 131.883 119.015 130.794 118.248 130.017C117.49 129.241 116.34 128.852 114.796 128.852C113.196 128.852 111.941 129.203 111.032 129.903C110.123 130.604 109.484 131.352 109.114 132.148L105.932 131.011C106.501 129.686 107.258 128.653 108.205 127.915C109.162 127.167 110.203 126.646 111.33 126.352C112.466 126.049 113.584 125.898 114.682 125.898C115.383 125.898 116.188 125.983 117.097 126.153C118.016 126.314 118.901 126.651 119.753 127.162C120.615 127.673 121.33 128.445 121.898 129.477C122.466 130.509 122.751 131.892 122.751 133.625V148H119.398V145.045H119.228C119.001 145.519 118.622 146.026 118.091 146.565C117.561 147.105 116.856 147.564 115.975 147.943C115.094 148.322 114.02 148.511 112.751 148.511ZM113.262 145.5C114.588 145.5 115.705 145.24 116.614 144.719C117.533 144.198 118.224 143.526 118.688 142.702C119.162 141.878 119.398 141.011 119.398 140.102V137.034C119.256 137.205 118.944 137.361 118.461 137.503C117.987 137.635 117.438 137.754 116.813 137.858C116.198 137.953 115.596 138.038 115.009 138.114C114.431 138.18 113.963 138.237 113.603 138.284C112.732 138.398 111.917 138.582 111.16 138.838C110.412 139.084 109.805 139.458 109.341 139.96C108.887 140.453 108.66 141.125 108.66 141.977C108.66 143.142 109.091 144.023 109.952 144.619C110.823 145.206 111.927 145.5 113.262 145.5Z" fill="black"/>
<path d="M132.221 134.875V148H128.869V126.182H132.108V129.591H132.392C132.903 128.483 133.68 127.593 134.721 126.92C135.763 126.239 137.108 125.898 138.756 125.898C140.233 125.898 141.525 126.201 142.633 126.807C143.741 127.403 144.603 128.312 145.219 129.534C145.834 130.746 146.142 132.28 146.142 134.136V148H142.79V134.364C142.79 132.65 142.345 131.314 141.454 130.358C140.564 129.392 139.343 128.909 137.79 128.909C136.72 128.909 135.763 129.141 134.92 129.605C134.087 130.069 133.429 130.746 132.946 131.636C132.463 132.527 132.221 133.606 132.221 134.875Z" fill="black"/>
<path d="M163.972 148V118.909H173.802C176.084 118.909 177.949 119.321 179.398 120.145C180.857 120.959 181.936 122.062 182.637 123.455C183.338 124.847 183.688 126.4 183.688 128.114C183.688 129.828 183.338 131.385 182.637 132.787C181.946 134.188 180.876 135.306 179.427 136.139C177.978 136.963 176.122 137.375 173.859 137.375H166.813V134.25H173.745C175.307 134.25 176.562 133.98 177.509 133.44C178.456 132.901 179.143 132.171 179.569 131.253C180.004 130.325 180.222 129.278 180.222 128.114C180.222 126.949 180.004 125.907 179.569 124.989C179.143 124.07 178.451 123.35 177.495 122.83C176.538 122.299 175.27 122.034 173.688 122.034H167.495V148H163.972Z" fill="black"/>
<path d="M197.538 148.455C195.568 148.455 193.84 147.986 192.353 147.048C190.876 146.111 189.72 144.799 188.887 143.114C188.063 141.428 187.651 139.458 187.651 137.205C187.651 134.932 188.063 132.948 188.887 131.253C189.72 129.558 190.876 128.241 192.353 127.304C193.84 126.366 195.568 125.898 197.538 125.898C199.507 125.898 201.231 126.366 202.708 127.304C204.195 128.241 205.35 129.558 206.174 131.253C207.007 132.948 207.424 134.932 207.424 137.205C207.424 139.458 207.007 141.428 206.174 143.114C205.35 144.799 204.195 146.111 202.708 147.048C201.231 147.986 199.507 148.455 197.538 148.455ZM197.538 145.443C199.034 145.443 200.265 145.06 201.231 144.293C202.197 143.526 202.912 142.517 203.376 141.267C203.84 140.017 204.072 138.663 204.072 137.205C204.072 135.746 203.84 134.387 203.376 133.128C202.912 131.868 202.197 130.85 201.231 130.074C200.265 129.297 199.034 128.909 197.538 128.909C196.041 128.909 194.81 129.297 193.844 130.074C192.878 130.85 192.163 131.868 191.699 133.128C191.235 134.387 191.003 135.746 191.003 137.205C191.003 138.663 191.235 140.017 191.699 141.267C192.163 142.517 192.878 143.526 193.844 144.293C194.81 145.06 196.041 145.443 197.538 145.443Z" fill="black"/>
<path d="M215.893 118.909V148H212.541V118.909H215.893Z" fill="black"/>
<path d="M222.033 148V126.182H225.386V148H222.033ZM223.738 122.545C223.084 122.545 222.521 122.323 222.047 121.878C221.583 121.433 221.351 120.898 221.351 120.273C221.351 119.648 221.583 119.113 222.047 118.668C222.521 118.223 223.084 118 223.738 118C224.391 118 224.95 118.223 225.414 118.668C225.887 119.113 226.124 119.648 226.124 120.273C226.124 120.898 225.887 121.433 225.414 121.878C224.95 122.323 224.391 122.545 223.738 122.545Z" fill="black"/>
<path d="M241.014 126.182V129.023H229.707V126.182H241.014ZM233.003 120.955H236.355V141.75C236.355 142.697 236.492 143.407 236.767 143.881C237.051 144.345 237.411 144.657 237.846 144.818C238.292 144.97 238.76 145.045 239.253 145.045C239.622 145.045 239.925 145.027 240.162 144.989C240.399 144.941 240.588 144.903 240.73 144.875L241.412 147.886C241.185 147.972 240.867 148.057 240.46 148.142C240.053 148.237 239.537 148.284 238.912 148.284C237.965 148.284 237.037 148.08 236.128 147.673C235.228 147.266 234.48 146.646 233.883 145.812C233.296 144.979 233.003 143.928 233.003 142.659V120.955Z" fill="black"/>
<path d="M246.057 148V126.182H249.409V148H246.057ZM247.761 122.545C247.108 122.545 246.544 122.323 246.071 121.878C245.607 121.433 245.375 120.898 245.375 120.273C245.375 119.648 245.607 119.113 246.071 118.668C246.544 118.223 247.108 118 247.761 118C248.415 118 248.973 118.223 249.437 118.668C249.911 119.113 250.148 119.648 250.148 120.273C250.148 120.898 249.911 121.433 249.437 121.878C248.973 122.323 248.415 122.545 247.761 122.545Z" fill="black"/>
<path d="M264.413 148.455C262.367 148.455 260.606 147.972 259.128 147.006C257.651 146.04 256.515 144.709 255.719 143.014C254.924 141.319 254.526 139.383 254.526 137.205C254.526 134.989 254.933 133.033 255.748 131.338C256.572 129.634 257.717 128.303 259.185 127.347C260.662 126.381 262.386 125.898 264.356 125.898C265.89 125.898 267.272 126.182 268.503 126.75C269.734 127.318 270.743 128.114 271.529 129.136C272.315 130.159 272.803 131.352 272.992 132.716H269.64C269.384 131.722 268.816 130.841 267.935 130.074C267.064 129.297 265.89 128.909 264.413 128.909C263.106 128.909 261.96 129.25 260.975 129.932C260 130.604 259.237 131.556 258.688 132.787C258.148 134.009 257.878 135.443 257.878 137.091C257.878 138.777 258.144 140.244 258.674 141.494C259.214 142.744 259.971 143.715 260.947 144.406C261.931 145.098 263.087 145.443 264.413 145.443C265.284 145.443 266.074 145.292 266.785 144.989C267.495 144.686 268.096 144.25 268.589 143.682C269.081 143.114 269.431 142.432 269.64 141.636H272.992C272.803 142.924 272.334 144.084 271.586 145.116C270.847 146.139 269.867 146.954 268.645 147.56C267.433 148.156 266.022 148.455 264.413 148.455Z" fill="black"/>
<path d="M293.347 131.068L290.336 131.92C290.146 131.419 289.867 130.931 289.498 130.457C289.138 129.974 288.645 129.577 288.02 129.264C287.395 128.952 286.595 128.795 285.62 128.795C284.285 128.795 283.172 129.103 282.282 129.719C281.401 130.325 280.961 131.097 280.961 132.034C280.961 132.867 281.264 133.526 281.87 134.009C282.476 134.491 283.423 134.894 284.711 135.216L287.949 136.011C289.9 136.485 291.354 137.209 292.31 138.185C293.267 139.151 293.745 140.396 293.745 141.92C293.745 143.17 293.385 144.288 292.665 145.273C291.955 146.258 290.961 147.034 289.682 147.602C288.404 148.17 286.917 148.455 285.222 148.455C282.997 148.455 281.155 147.972 279.697 147.006C278.238 146.04 277.315 144.629 276.927 142.773L280.109 141.977C280.412 143.152 280.984 144.032 281.827 144.619C282.68 145.206 283.792 145.5 285.165 145.5C286.728 145.5 287.968 145.169 288.887 144.506C289.815 143.833 290.279 143.028 290.279 142.091C290.279 141.333 290.014 140.699 289.484 140.188C288.953 139.667 288.139 139.278 287.04 139.023L283.404 138.17C281.406 137.697 279.938 136.963 279.001 135.969C278.073 134.965 277.609 133.71 277.609 132.205C277.609 130.973 277.954 129.884 278.645 128.938C279.346 127.991 280.298 127.247 281.501 126.707C282.713 126.168 284.086 125.898 285.62 125.898C287.779 125.898 289.474 126.371 290.705 127.318C291.946 128.265 292.826 129.515 293.347 131.068Z" fill="black"/>
<path d="M128.542 166.511C129.736 166.521 130.929 166.748 132.122 167.193C133.315 167.638 134.404 168.377 135.389 169.409C136.374 170.432 137.165 171.829 137.761 173.599C138.358 175.37 138.656 177.591 138.656 180.261C138.656 182.847 138.41 185.143 137.917 187.151C137.435 189.149 136.734 190.834 135.815 192.207C134.906 193.58 133.798 194.622 132.491 195.332C131.194 196.043 129.726 196.398 128.088 196.398C126.459 196.398 125.006 196.076 123.727 195.432C122.458 194.778 121.417 193.874 120.602 192.719C119.797 191.554 119.281 190.205 119.054 188.67H122.52C122.832 190.006 123.453 191.109 124.381 191.98C125.318 192.842 126.554 193.273 128.088 193.273C130.332 193.273 132.103 192.293 133.4 190.332C134.707 188.372 135.361 185.602 135.361 182.023H135.133C134.603 182.818 133.973 183.505 133.244 184.082C132.515 184.66 131.705 185.105 130.815 185.418C129.925 185.73 128.978 185.886 127.974 185.886C126.308 185.886 124.778 185.474 123.386 184.651C122.004 183.817 120.896 182.676 120.062 181.227C119.238 179.769 118.827 178.102 118.827 176.227C118.827 174.447 119.224 172.818 120.02 171.341C120.825 169.854 121.952 168.67 123.4 167.79C124.859 166.909 126.573 166.483 128.542 166.511ZM128.542 169.636C127.349 169.636 126.274 169.935 125.318 170.531C124.371 171.118 123.618 171.914 123.06 172.918C122.51 173.912 122.236 175.015 122.236 176.227C122.236 177.439 122.501 178.543 123.031 179.537C123.571 180.522 124.305 181.308 125.233 181.895C126.17 182.473 127.236 182.761 128.429 182.761C129.328 182.761 130.167 182.586 130.943 182.236C131.72 181.876 132.397 181.388 132.974 180.773C133.561 180.148 134.021 179.442 134.352 178.656C134.684 177.861 134.849 177.032 134.849 176.17C134.849 175.034 134.575 173.969 134.025 172.974C133.486 171.98 132.738 171.175 131.781 170.56C130.834 169.944 129.755 169.636 128.542 169.636Z" fill="black"/>
<path d="M153.731 196.398C151.591 196.398 149.768 195.815 148.262 194.651C146.756 193.476 145.606 191.777 144.81 189.551C144.015 187.316 143.617 184.617 143.617 181.455C143.617 178.311 144.015 175.626 144.81 173.401C145.615 171.166 146.77 169.461 148.276 168.287C149.791 167.103 151.609 166.511 153.731 166.511C155.852 166.511 157.665 167.103 159.171 168.287C160.686 169.461 161.841 171.166 162.637 173.401C163.442 175.626 163.844 178.311 163.844 181.455C163.844 184.617 163.447 187.316 162.651 189.551C161.856 191.777 160.705 193.476 159.199 194.651C157.694 195.815 155.871 196.398 153.731 196.398ZM153.731 193.273C155.852 193.273 157.5 192.25 158.674 190.205C159.848 188.159 160.435 185.242 160.435 181.455C160.435 178.936 160.165 176.791 159.626 175.02C159.095 173.249 158.328 171.9 157.324 170.972C156.33 170.044 155.132 169.58 153.731 169.58C151.628 169.58 149.985 170.616 148.802 172.69C147.618 174.755 147.026 177.676 147.026 181.455C147.026 183.973 147.291 186.114 147.822 187.875C148.352 189.636 149.114 190.976 150.109 191.895C151.112 192.813 152.32 193.273 153.731 193.273Z" fill="black"/>
<path d="M184.072 190.545V189.011C184.072 187.951 184.289 186.98 184.725 186.099C185.17 185.209 185.814 184.499 186.657 183.969C187.509 183.429 188.541 183.159 189.753 183.159C190.984 183.159 192.017 183.429 192.85 183.969C193.683 184.499 194.313 185.209 194.739 186.099C195.165 186.98 195.378 187.951 195.378 189.011V190.545C195.378 191.606 195.161 192.581 194.725 193.472C194.299 194.352 193.664 195.063 192.822 195.602C191.988 196.133 190.966 196.398 189.753 196.398C188.522 196.398 187.485 196.133 186.643 195.602C185.8 195.063 185.161 194.352 184.725 193.472C184.289 192.581 184.072 191.606 184.072 190.545ZM186.969 189.011V190.545C186.969 191.426 187.178 192.217 187.594 192.918C188.011 193.609 188.731 193.955 189.753 193.955C190.748 193.955 191.448 193.609 191.856 192.918C192.272 192.217 192.481 191.426 192.481 190.545V189.011C192.481 188.131 192.282 187.345 191.884 186.653C191.486 185.953 190.776 185.602 189.753 185.602C188.759 185.602 188.044 185.953 187.609 186.653C187.182 187.345 186.969 188.131 186.969 189.011ZM169.583 173.898V172.364C169.583 171.303 169.801 170.332 170.236 169.452C170.681 168.562 171.325 167.851 172.168 167.321C173.02 166.781 174.053 166.511 175.265 166.511C176.496 166.511 177.528 166.781 178.361 167.321C179.195 167.851 179.824 168.562 180.251 169.452C180.677 170.332 180.89 171.303 180.89 172.364V173.898C180.89 174.958 180.672 175.934 180.236 176.824C179.81 177.705 179.176 178.415 178.333 178.955C177.5 179.485 176.477 179.75 175.265 179.75C174.034 179.75 172.997 179.485 172.154 178.955C171.311 178.415 170.672 177.705 170.236 176.824C169.801 175.934 169.583 174.958 169.583 173.898ZM172.481 172.364V173.898C172.481 174.778 172.689 175.569 173.106 176.27C173.522 176.961 174.242 177.307 175.265 177.307C176.259 177.307 176.96 176.961 177.367 176.27C177.784 175.569 177.992 174.778 177.992 173.898V172.364C177.992 171.483 177.793 170.697 177.395 170.006C176.998 169.305 176.287 168.955 175.265 168.955C174.27 168.955 173.555 169.305 173.12 170.006C172.694 170.697 172.481 171.483 172.481 172.364ZM170.663 196L190.663 166.909H193.901L173.901 196H170.663Z" fill="black"/>
</svg>
