<svg width="267" height="206" viewBox="0 0 267 206" fill="none" xmlns="http://www.w3.org/2000/svg">
<path d="M109.549 0C130.101 2.45079e-07 150.451 4.04799 169.439 11.9129C188.426 19.7777 205.679 31.3054 220.211 45.8378C234.743 60.3702 246.271 77.6226 254.136 96.6101C262.001 115.598 266.049 135.948 266.049 156.5H250.66C250.66 137.969 247.01 119.619 239.919 102.499C232.827 85.3786 222.433 69.8227 209.329 56.7193C196.226 43.6159 180.67 33.2217 163.55 26.1302C146.429 19.0387 128.08 15.3887 109.549 15.3887V0Z" fill="#EA2E44"/>
<path d="M0 131.034V127.909H21.8182V131.034H12.6705V157H9.14773V131.034H0Z" fill="black"/>
<path d="M26.4595 165.182C25.8913 165.182 25.3847 165.134 24.9396 165.04C24.4946 164.955 24.1868 164.869 24.0163 164.784L24.8686 161.83C25.683 162.038 26.4027 162.114 27.0277 162.057C27.6527 162 28.2067 161.721 28.6896 161.219C29.1821 160.726 29.6319 159.926 30.0391 158.818L30.6641 157.114L22.5959 135.182H26.2322L32.255 152.568H32.4822L38.505 135.182H42.1413L32.88 160.182C32.4633 161.309 31.9472 162.241 31.3317 162.98C30.7161 163.728 30.0012 164.282 29.1868 164.642C28.3819 165.002 27.4728 165.182 26.4595 165.182Z" fill="black"/>
<path d="M46.5661 165.182V135.182H49.8047V138.648H50.2024C50.4486 138.269 50.7895 137.786 51.2251 137.199C51.6702 136.602 52.3047 136.072 53.1286 135.608C53.9619 135.134 55.0888 134.898 56.5092 134.898C58.3464 134.898 59.9657 135.357 61.3672 136.276C62.7687 137.194 63.8625 138.496 64.6484 140.182C65.4344 141.867 65.8274 143.856 65.8274 146.148C65.8274 148.458 65.4344 150.461 64.6484 152.156C63.8625 153.842 62.7734 155.149 61.3814 156.077C59.9893 156.995 58.3842 157.455 56.5661 157.455C55.1645 157.455 54.0424 157.223 53.1996 156.759C52.3568 156.285 51.7081 155.75 51.2536 155.153C50.799 154.547 50.4486 154.045 50.2024 153.648H49.9183V165.182H46.5661ZM49.8615 146.091C49.8615 147.739 50.103 149.192 50.5859 150.452C51.0689 151.702 51.7744 152.682 52.7024 153.392C53.6304 154.093 54.7668 154.443 56.1115 154.443C57.513 154.443 58.6825 154.074 59.62 153.335C60.567 152.587 61.2772 151.583 61.7507 150.324C62.2337 149.055 62.4751 147.644 62.4751 146.091C62.4751 144.557 62.2384 143.174 61.7649 141.943C61.3009 140.703 60.5954 139.723 59.6484 139.003C58.7109 138.274 57.532 137.909 56.1115 137.909C54.7479 137.909 53.602 138.255 52.674 138.946C51.746 139.628 51.0452 140.584 50.5717 141.815C50.0982 143.037 49.8615 144.462 49.8615 146.091Z" fill="black"/>
<path d="M79.8047 157.455C77.835 157.455 76.1068 156.986 74.62 156.048C73.1428 155.111 71.9875 153.799 71.1541 152.114C70.3303 150.428 69.9183 148.458 69.9183 146.205C69.9183 143.932 70.3303 141.948 71.1541 140.253C71.9875 138.558 73.1428 137.241 74.62 136.304C76.1068 135.366 77.835 134.898 79.8047 134.898C81.7744 134.898 83.4979 135.366 84.9751 136.304C86.4619 137.241 87.6172 138.558 88.4411 140.253C89.2744 141.948 89.6911 143.932 89.6911 146.205C89.6911 148.458 89.2744 150.428 88.4411 152.114C87.6172 153.799 86.4619 155.111 84.9751 156.048C83.4979 156.986 81.7744 157.455 79.8047 157.455ZM79.8047 154.443C81.3009 154.443 82.532 154.06 83.4979 153.293C84.4638 152.526 85.1787 151.517 85.6428 150.267C86.1068 149.017 86.3388 147.663 86.3388 146.205C86.3388 144.746 86.1068 143.387 85.6428 142.128C85.1787 140.868 84.4638 139.85 83.4979 139.074C82.532 138.297 81.3009 137.909 79.8047 137.909C78.3085 137.909 77.0774 138.297 76.1115 139.074C75.1456 139.85 74.4306 140.868 73.9666 142.128C73.5026 143.387 73.2706 144.746 73.2706 146.205C73.2706 147.663 73.5026 149.017 73.9666 150.267C74.4306 151.517 75.1456 152.526 76.1115 153.293C77.0774 154.06 78.3085 154.443 79.8047 154.443Z" fill="black"/>
<path d="M103.615 165.636C101.996 165.636 100.604 165.428 99.4389 165.011C98.2741 164.604 97.3035 164.064 96.527 163.392C95.7599 162.729 95.1491 162.019 94.6946 161.261L97.3651 159.386C97.6681 159.784 98.0516 160.239 98.5156 160.75C98.9796 161.271 99.6141 161.721 100.419 162.099C101.233 162.488 102.299 162.682 103.615 162.682C105.376 162.682 106.83 162.256 107.976 161.403C109.122 160.551 109.695 159.216 109.695 157.398V152.966H109.411C109.164 153.364 108.814 153.856 108.359 154.443C107.914 155.021 107.27 155.537 106.428 155.991C105.594 156.437 104.467 156.659 103.047 156.659C101.286 156.659 99.7041 156.242 98.3026 155.409C96.9105 154.576 95.8073 153.364 94.9929 151.773C94.188 150.182 93.7855 148.25 93.7855 145.977C93.7855 143.742 94.1785 141.796 94.9645 140.139C95.7505 138.473 96.8442 137.185 98.2457 136.276C99.6473 135.357 101.267 134.898 103.104 134.898C104.524 134.898 105.651 135.134 106.484 135.608C107.327 136.072 107.971 136.602 108.416 137.199C108.871 137.786 109.221 138.269 109.467 138.648H109.808V135.182H113.047V157.625C113.047 159.5 112.621 161.025 111.768 162.199C110.926 163.383 109.789 164.249 108.359 164.798C106.939 165.357 105.357 165.636 103.615 165.636ZM103.501 153.648C104.846 153.648 105.982 153.34 106.911 152.724C107.839 152.109 108.544 151.223 109.027 150.068C109.51 148.913 109.751 147.53 109.751 145.92C109.751 144.348 109.515 142.961 109.041 141.759C108.568 140.556 107.867 139.614 106.939 138.932C106.011 138.25 104.865 137.909 103.501 137.909C102.081 137.909 100.897 138.269 99.9503 138.989C99.0128 139.708 98.3073 140.674 97.8338 141.886C97.3698 143.098 97.1378 144.443 97.1378 145.92C97.1378 147.436 97.3745 148.776 97.848 149.94C98.331 151.096 99.0412 152.005 99.9787 152.668C100.926 153.321 102.1 153.648 103.501 153.648Z" fill="black"/>
<path d="M119.183 157V135.182H122.422V138.477H122.649C123.047 137.398 123.767 136.522 124.808 135.849C125.85 135.177 127.024 134.841 128.331 134.841C128.577 134.841 128.885 134.846 129.254 134.855C129.624 134.865 129.903 134.879 130.092 134.898V138.307C129.979 138.278 129.718 138.236 129.311 138.179C128.913 138.113 128.492 138.08 128.047 138.08C126.986 138.08 126.039 138.302 125.206 138.747C124.382 139.183 123.729 139.789 123.246 140.565C122.772 141.332 122.536 142.208 122.536 143.193V157H119.183Z" fill="black"/>
<path d="M140.487 157.511C139.104 157.511 137.849 157.251 136.722 156.73C135.595 156.2 134.701 155.437 134.038 154.443C133.375 153.439 133.043 152.227 133.043 150.807C133.043 149.557 133.29 148.544 133.782 147.767C134.274 146.981 134.933 146.366 135.756 145.92C136.58 145.475 137.489 145.144 138.484 144.926C139.487 144.699 140.496 144.519 141.509 144.386C142.835 144.216 143.91 144.088 144.734 144.003C145.567 143.908 146.173 143.752 146.552 143.534C146.94 143.316 147.134 142.937 147.134 142.398V142.284C147.134 140.883 146.751 139.794 145.984 139.017C145.226 138.241 144.076 137.852 142.532 137.852C140.932 137.852 139.677 138.203 138.768 138.903C137.859 139.604 137.219 140.352 136.85 141.148L133.668 140.011C134.237 138.686 134.994 137.653 135.941 136.915C136.897 136.167 137.939 135.646 139.066 135.352C140.202 135.049 141.32 134.898 142.418 134.898C143.119 134.898 143.924 134.983 144.833 135.153C145.752 135.314 146.637 135.651 147.489 136.162C148.351 136.673 149.066 137.445 149.634 138.477C150.202 139.509 150.487 140.892 150.487 142.625V157H147.134V154.045H146.964C146.737 154.519 146.358 155.026 145.827 155.565C145.297 156.105 144.592 156.564 143.711 156.943C142.83 157.322 141.755 157.511 140.487 157.511ZM140.998 154.5C142.324 154.5 143.441 154.24 144.35 153.719C145.269 153.198 145.96 152.526 146.424 151.702C146.897 150.878 147.134 150.011 147.134 149.102V146.034C146.992 146.205 146.68 146.361 146.197 146.503C145.723 146.635 145.174 146.754 144.549 146.858C143.933 146.953 143.332 147.038 142.745 147.114C142.167 147.18 141.699 147.237 141.339 147.284C140.468 147.398 139.653 147.582 138.896 147.838C138.147 148.084 137.541 148.458 137.077 148.96C136.623 149.453 136.396 150.125 136.396 150.977C136.396 152.142 136.826 153.023 137.688 153.619C138.559 154.206 139.663 154.5 140.998 154.5Z" fill="black"/>
<path d="M156.605 165.182V135.182H159.844V138.648H160.241C160.488 138.269 160.829 137.786 161.264 137.199C161.709 136.602 162.344 136.072 163.168 135.608C164.001 135.134 165.128 134.898 166.548 134.898C168.385 134.898 170.005 135.357 171.406 136.276C172.808 137.194 173.902 138.496 174.688 140.182C175.473 141.867 175.866 143.856 175.866 146.148C175.866 148.458 175.473 150.461 174.688 152.156C173.902 153.842 172.813 155.149 171.42 156.077C170.028 156.995 168.423 157.455 166.605 157.455C165.204 157.455 164.081 157.223 163.239 156.759C162.396 156.285 161.747 155.75 161.293 155.153C160.838 154.547 160.488 154.045 160.241 153.648H159.957V165.182H156.605ZM159.901 146.091C159.901 147.739 160.142 149.192 160.625 150.452C161.108 151.702 161.813 152.682 162.741 153.392C163.67 154.093 164.806 154.443 166.151 154.443C167.552 154.443 168.722 154.074 169.659 153.335C170.606 152.587 171.316 151.583 171.79 150.324C172.273 149.055 172.514 147.644 172.514 146.091C172.514 144.557 172.277 143.174 171.804 141.943C171.34 140.703 170.634 139.723 169.688 139.003C168.75 138.274 167.571 137.909 166.151 137.909C164.787 137.909 163.641 138.255 162.713 138.946C161.785 139.628 161.084 140.584 160.611 141.815C160.137 143.037 159.901 144.462 159.901 146.091Z" fill="black"/>
<path d="M184.332 143.875V157H180.98V127.909H184.332V138.591H184.616C185.128 137.464 185.895 136.569 186.918 135.906C187.95 135.234 189.323 134.898 191.037 134.898C192.524 134.898 193.826 135.196 194.943 135.793C196.061 136.38 196.927 137.284 197.543 138.506C198.168 139.718 198.48 141.261 198.48 143.136V157H195.128V143.364C195.128 141.631 194.678 140.291 193.778 139.344C192.888 138.387 191.652 137.909 190.071 137.909C188.973 137.909 187.988 138.141 187.116 138.605C186.255 139.069 185.573 139.746 185.071 140.636C184.579 141.527 184.332 142.606 184.332 143.875Z" fill="black"/>
<path d="M205.991 165.182C205.423 165.182 204.916 165.134 204.471 165.04C204.026 164.955 203.718 164.869 203.548 164.784L204.4 161.83C205.214 162.038 205.934 162.114 206.559 162.057C207.184 162 207.738 161.721 208.221 161.219C208.713 160.726 209.163 159.926 209.57 158.818L210.195 157.114L202.127 135.182H205.763L211.786 152.568H212.013L218.036 135.182H221.673L212.411 160.182C211.995 161.309 211.478 162.241 210.863 162.98C210.247 163.728 209.532 164.282 208.718 164.642C207.913 165.002 207.004 165.182 205.991 165.182Z" fill="black"/>
<path d="M73.0327 205V202.443L82.6349 191.932C83.7618 190.701 84.6899 189.631 85.419 188.722C86.1482 187.803 86.688 186.941 87.0384 186.136C87.3982 185.322 87.5781 184.47 87.5781 183.58C87.5781 182.557 87.3319 181.671 86.8395 180.923C86.3565 180.175 85.6937 179.598 84.8509 179.19C84.008 178.783 83.0611 178.58 82.0099 178.58C80.8925 178.58 79.9171 178.812 79.0838 179.276C78.2599 179.73 77.6207 180.369 77.1662 181.193C76.7211 182.017 76.4986 182.983 76.4986 184.091H73.1463C73.1463 182.386 73.5393 180.89 74.3253 179.602C75.1113 178.314 76.1813 177.311 77.5355 176.591C78.8992 175.871 80.4285 175.511 82.1236 175.511C83.8281 175.511 85.3385 175.871 86.6548 176.591C87.9711 177.311 89.0033 178.281 89.7514 179.503C90.4995 180.724 90.8736 182.083 90.8736 183.58C90.8736 184.65 90.6794 185.696 90.2912 186.719C89.9124 187.732 89.2495 188.864 88.3026 190.114C87.3651 191.354 86.063 192.869 84.3963 194.659L77.8622 201.648V201.875H91.3849V205H73.0327Z" fill="black"/>
<path d="M106.342 205.398C104.676 205.398 103.175 205.066 101.839 204.403C100.504 203.741 99.4342 202.831 98.6293 201.676C97.8243 200.521 97.384 199.205 97.3082 197.727H100.717C100.85 199.044 101.446 200.133 102.507 200.994C103.577 201.847 104.856 202.273 106.342 202.273C107.536 202.273 108.596 201.993 109.524 201.435C110.462 200.876 111.196 200.109 111.726 199.134C112.266 198.149 112.536 197.036 112.536 195.795C112.536 194.527 112.256 193.395 111.697 192.401C111.148 191.397 110.391 190.606 109.425 190.028C108.459 189.451 107.356 189.157 106.115 189.148C105.225 189.138 104.311 189.276 103.374 189.56C102.436 189.834 101.664 190.189 101.058 190.625L97.7628 190.227L99.5241 175.909H114.638V179.034H102.479L101.456 187.614H101.626C102.223 187.14 102.971 186.747 103.871 186.435C104.77 186.122 105.708 185.966 106.683 185.966C108.464 185.966 110.05 186.392 111.442 187.244C112.843 188.087 113.942 189.242 114.737 190.71C115.542 192.178 115.945 193.854 115.945 195.739C115.945 197.595 115.528 199.252 114.695 200.71C113.871 202.159 112.734 203.305 111.286 204.148C109.837 204.981 108.189 205.398 106.342 205.398Z" fill="black"/>
<path d="M136.417 199.545V198.011C136.417 196.951 136.635 195.98 137.07 195.099C137.515 194.209 138.159 193.499 139.002 192.969C139.854 192.429 140.887 192.159 142.099 192.159C143.33 192.159 144.362 192.429 145.195 192.969C146.029 193.499 146.658 194.209 147.085 195.099C147.511 195.98 147.724 196.951 147.724 198.011V199.545C147.724 200.606 147.506 201.581 147.07 202.472C146.644 203.352 146.01 204.063 145.167 204.602C144.334 205.133 143.311 205.398 142.099 205.398C140.868 205.398 139.831 205.133 138.988 204.602C138.145 204.063 137.506 203.352 137.07 202.472C136.635 201.581 136.417 200.606 136.417 199.545ZM139.315 198.011V199.545C139.315 200.426 139.523 201.217 139.94 201.918C140.356 202.609 141.076 202.955 142.099 202.955C143.093 202.955 143.794 202.609 144.201 201.918C144.618 201.217 144.826 200.426 144.826 199.545V198.011C144.826 197.131 144.627 196.345 144.229 195.653C143.832 194.953 143.121 194.602 142.099 194.602C141.104 194.602 140.389 194.953 139.954 195.653C139.528 196.345 139.315 197.131 139.315 198.011ZM121.928 182.898V181.364C121.928 180.303 122.146 179.332 122.582 178.452C123.027 177.562 123.671 176.851 124.513 176.321C125.366 175.781 126.398 175.511 127.61 175.511C128.841 175.511 129.873 175.781 130.707 176.321C131.54 176.851 132.17 177.562 132.596 178.452C133.022 179.332 133.235 180.303 133.235 181.364V182.898C133.235 183.958 133.017 184.934 132.582 185.824C132.156 186.705 131.521 187.415 130.678 187.955C129.845 188.485 128.822 188.75 127.61 188.75C126.379 188.75 125.342 188.485 124.499 187.955C123.656 187.415 123.017 186.705 122.582 185.824C122.146 184.934 121.928 183.958 121.928 182.898ZM124.826 181.364V182.898C124.826 183.778 125.034 184.569 125.451 185.27C125.868 185.961 126.587 186.307 127.61 186.307C128.604 186.307 129.305 185.961 129.712 185.27C130.129 184.569 130.337 183.778 130.337 182.898V181.364C130.337 180.483 130.138 179.697 129.741 179.006C129.343 178.305 128.633 177.955 127.61 177.955C126.616 177.955 125.901 178.305 125.465 179.006C125.039 179.697 124.826 180.483 124.826 181.364ZM123.008 205L143.008 175.909H146.246L126.246 205H123.008Z" fill="black"/>
</svg>
