<svg width="313" height="313" viewBox="0 0 313 313" fill="none" xmlns="http://www.w3.org/2000/svg">
<path d="M156.5 0C193.76 4.44314e-07 229.797 13.2933 258.131 37.4894C286.465 61.6855 305.236 95.1966 311.07 131.997C316.904 168.796 309.417 206.47 289.955 238.243C270.494 270.016 240.335 293.803 204.903 305.327C169.47 316.851 131.089 315.355 96.6606 301.108C62.2324 286.861 34.0166 260.799 17.0874 227.608C0.158092 194.416 -4.37384 156.274 4.30655 120.04C12.9869 83.8058 34.3101 51.8574 64.4414 29.9401L73.4936 42.3847C46.3251 62.1469 27.0986 90.9538 19.2718 123.625C11.445 156.296 15.5313 190.688 30.7959 220.616C46.0605 250.543 71.5018 274.043 102.545 286.889C133.587 299.734 168.195 301.083 200.143 290.693C232.092 280.302 259.285 258.854 276.833 230.205C294.38 201.557 301.131 167.587 295.871 134.406C290.611 101.225 273.685 71.0086 248.137 49.1918C222.589 27.3749 190.096 15.3887 156.5 15.3887V0Z" fill="#2EEA3B"/>
<path d="M46.9516 122.034V118.909H68.7697V122.034H59.622V148H56.0993V122.034H46.9516Z" fill="black"/>
<path d="M73.4111 156.182C72.8429 156.182 72.3363 156.134 71.8912 156.04C71.4461 155.955 71.1384 155.869 70.9679 155.784L71.8202 152.83C72.6346 153.038 73.3543 153.114 73.9793 153.057C74.6043 153 75.1582 152.721 75.6412 152.219C76.1336 151.726 76.5834 150.926 76.9906 149.818L77.6156 148.114L69.5474 126.182H73.1838L79.2065 143.568H79.4338L85.4565 126.182H89.0929L79.8315 151.182C79.4149 152.309 78.8988 153.241 78.2832 153.98C77.6677 154.728 76.9527 155.282 76.1384 155.642C75.3334 156.002 74.4243 156.182 73.4111 156.182Z" fill="black"/>
<path d="M93.5176 156.182V126.182H96.7562V129.648H97.154C97.4002 129.269 97.7411 128.786 98.1767 128.199C98.6218 127.602 99.2562 127.072 100.08 126.608C100.913 126.134 102.04 125.898 103.461 125.898C105.298 125.898 106.917 126.357 108.319 127.276C109.72 128.194 110.814 129.496 111.6 131.182C112.386 132.867 112.779 134.856 112.779 137.148C112.779 139.458 112.386 141.461 111.6 143.156C110.814 144.842 109.725 146.149 108.333 147.077C106.941 147.995 105.336 148.455 103.518 148.455C102.116 148.455 100.994 148.223 100.151 147.759C99.3083 147.285 98.6597 146.75 98.2051 146.153C97.7506 145.547 97.4002 145.045 97.154 144.648H96.8699V156.182H93.5176ZM96.8131 137.091C96.8131 138.739 97.0545 140.192 97.5375 141.452C98.0205 142.702 98.7259 143.682 99.654 144.392C100.582 145.093 101.718 145.443 103.063 145.443C104.465 145.443 105.634 145.074 106.572 144.335C107.519 143.587 108.229 142.583 108.702 141.324C109.185 140.055 109.427 138.644 109.427 137.091C109.427 135.557 109.19 134.174 108.716 132.943C108.252 131.703 107.547 130.723 106.6 130.003C105.662 129.274 104.484 128.909 103.063 128.909C101.699 128.909 100.554 129.255 99.6256 129.946C98.6975 130.628 97.9968 131.584 97.5233 132.815C97.0498 134.037 96.8131 135.462 96.8131 137.091Z" fill="black"/>
<path d="M126.756 148.455C124.787 148.455 123.058 147.986 121.572 147.048C120.094 146.111 118.939 144.799 118.106 143.114C117.282 141.428 116.87 139.458 116.87 137.205C116.87 134.932 117.282 132.948 118.106 131.253C118.939 129.558 120.094 128.241 121.572 127.304C123.058 126.366 124.787 125.898 126.756 125.898C128.726 125.898 130.449 126.366 131.927 127.304C133.413 128.241 134.569 129.558 135.393 131.253C136.226 132.948 136.643 134.932 136.643 137.205C136.643 139.458 136.226 141.428 135.393 143.114C134.569 144.799 133.413 146.111 131.927 147.048C130.449 147.986 128.726 148.455 126.756 148.455ZM126.756 145.443C128.252 145.443 129.484 145.06 130.449 144.293C131.415 143.526 132.13 142.517 132.594 141.267C133.058 140.017 133.29 138.663 133.29 137.205C133.29 135.746 133.058 134.387 132.594 133.128C132.13 131.868 131.415 130.85 130.449 130.074C129.484 129.297 128.252 128.909 126.756 128.909C125.26 128.909 124.029 129.297 123.063 130.074C122.097 130.85 121.382 131.868 120.918 133.128C120.454 134.387 120.222 135.746 120.222 137.205C120.222 138.663 120.454 140.017 120.918 141.267C121.382 142.517 122.097 143.526 123.063 144.293C124.029 145.06 125.26 145.443 126.756 145.443Z" fill="black"/>
<path d="M150.567 156.636C148.947 156.636 147.555 156.428 146.39 156.011C145.226 155.604 144.255 155.064 143.479 154.392C142.712 153.729 142.101 153.019 141.646 152.261L144.317 150.386C144.62 150.784 145.003 151.239 145.467 151.75C145.931 152.271 146.566 152.721 147.371 153.099C148.185 153.488 149.25 153.682 150.567 153.682C152.328 153.682 153.782 153.256 154.927 152.403C156.073 151.551 156.646 150.216 156.646 148.398V143.966H156.362C156.116 144.364 155.765 144.856 155.311 145.443C154.866 146.021 154.222 146.537 153.379 146.991C152.546 147.437 151.419 147.659 149.998 147.659C148.237 147.659 146.656 147.242 145.254 146.409C143.862 145.576 142.759 144.364 141.944 142.773C141.14 141.182 140.737 139.25 140.737 136.977C140.737 134.742 141.13 132.796 141.916 131.139C142.702 129.473 143.796 128.185 145.197 127.276C146.599 126.357 148.218 125.898 150.055 125.898C151.476 125.898 152.603 126.134 153.436 126.608C154.279 127.072 154.923 127.602 155.368 128.199C155.822 128.786 156.173 129.269 156.419 129.648H156.76V126.182H159.998V148.625C159.998 150.5 159.572 152.025 158.72 153.199C157.877 154.383 156.741 155.249 155.311 155.798C153.89 156.357 152.309 156.636 150.567 156.636ZM150.453 144.648C151.798 144.648 152.934 144.34 153.862 143.724C154.79 143.109 155.496 142.223 155.979 141.068C156.462 139.913 156.703 138.53 156.703 136.92C156.703 135.348 156.466 133.961 155.993 132.759C155.519 131.556 154.819 130.614 153.89 129.932C152.962 129.25 151.817 128.909 150.453 128.909C149.033 128.909 147.849 129.269 146.902 129.989C145.964 130.708 145.259 131.674 144.785 132.886C144.321 134.098 144.089 135.443 144.089 136.92C144.089 138.436 144.326 139.776 144.8 140.94C145.283 142.096 145.993 143.005 146.93 143.668C147.877 144.321 149.051 144.648 150.453 144.648Z" fill="black"/>
<path d="M166.135 148V126.182H169.373V129.477H169.601C169.998 128.398 170.718 127.522 171.76 126.849C172.801 126.177 173.976 125.841 175.283 125.841C175.529 125.841 175.837 125.846 176.206 125.855C176.575 125.865 176.854 125.879 177.044 125.898V129.307C176.93 129.278 176.67 129.236 176.263 129.179C175.865 129.113 175.444 129.08 174.998 129.08C173.938 129.08 172.991 129.302 172.158 129.747C171.334 130.183 170.68 130.789 170.197 131.565C169.724 132.332 169.487 133.208 169.487 134.193V148H166.135Z" fill="black"/>
<path d="M187.438 148.511C186.055 148.511 184.801 148.251 183.674 147.73C182.547 147.2 181.652 146.437 180.989 145.443C180.326 144.439 179.995 143.227 179.995 141.807C179.995 140.557 180.241 139.544 180.734 138.767C181.226 137.981 181.884 137.366 182.708 136.92C183.532 136.475 184.441 136.144 185.435 135.926C186.439 135.699 187.448 135.519 188.461 135.386C189.787 135.216 190.861 135.088 191.685 135.003C192.519 134.908 193.125 134.752 193.503 134.534C193.892 134.316 194.086 133.937 194.086 133.398V133.284C194.086 131.883 193.702 130.794 192.935 130.017C192.178 129.241 191.027 128.852 189.484 128.852C187.883 128.852 186.628 129.203 185.719 129.903C184.81 130.604 184.171 131.352 183.802 132.148L180.62 131.011C181.188 129.686 181.946 128.653 182.893 127.915C183.849 127.167 184.891 126.646 186.018 126.352C187.154 126.049 188.271 125.898 189.37 125.898C190.071 125.898 190.876 125.983 191.785 126.153C192.703 126.314 193.589 126.651 194.441 127.162C195.303 127.673 196.018 128.445 196.586 129.477C197.154 130.509 197.438 131.892 197.438 133.625V148H194.086V145.045H193.915C193.688 145.519 193.309 146.026 192.779 146.565C192.249 147.105 191.543 147.564 190.663 147.943C189.782 148.322 188.707 148.511 187.438 148.511ZM187.949 145.5C189.275 145.5 190.393 145.24 191.302 144.719C192.22 144.198 192.912 143.526 193.376 142.702C193.849 141.878 194.086 141.011 194.086 140.102V137.034C193.944 137.205 193.631 137.361 193.148 137.503C192.675 137.635 192.126 137.754 191.501 137.858C190.885 137.953 190.284 138.038 189.697 138.114C189.119 138.18 188.65 138.237 188.29 138.284C187.419 138.398 186.605 138.582 185.847 138.838C185.099 139.084 184.493 139.458 184.029 139.96C183.574 140.453 183.347 141.125 183.347 141.977C183.347 143.142 183.778 144.023 184.64 144.619C185.511 145.206 186.614 145.5 187.949 145.5Z" fill="black"/>
<path d="M203.557 156.182V126.182H206.795V129.648H207.193C207.439 129.269 207.78 128.786 208.216 128.199C208.661 127.602 209.295 127.072 210.119 126.608C210.953 126.134 212.079 125.898 213.5 125.898C215.337 125.898 216.956 126.357 218.358 127.276C219.759 128.194 220.853 129.496 221.639 131.182C222.425 132.867 222.818 134.856 222.818 137.148C222.818 139.458 222.425 141.461 221.639 143.156C220.853 144.842 219.764 146.149 218.372 147.077C216.98 147.995 215.375 148.455 213.557 148.455C212.155 148.455 211.033 148.223 210.19 147.759C209.347 147.285 208.699 146.75 208.244 146.153C207.79 145.547 207.439 145.045 207.193 144.648H206.909V156.182H203.557ZM206.852 137.091C206.852 138.739 207.094 140.192 207.577 141.452C208.06 142.702 208.765 143.682 209.693 144.392C210.621 145.093 211.757 145.443 213.102 145.443C214.504 145.443 215.673 145.074 216.611 144.335C217.558 143.587 218.268 142.583 218.741 141.324C219.224 140.055 219.466 138.644 219.466 137.091C219.466 135.557 219.229 134.174 218.756 132.943C218.292 131.703 217.586 130.723 216.639 130.003C215.702 129.274 214.523 128.909 213.102 128.909C211.738 128.909 210.593 129.255 209.665 129.946C208.737 130.628 208.036 131.584 207.562 132.815C207.089 134.037 206.852 135.462 206.852 137.091Z" fill="black"/>
<path d="M231.284 134.875V148H227.932V118.909H231.284V129.591H231.568C232.079 128.464 232.846 127.569 233.869 126.906C234.901 126.234 236.274 125.898 237.988 125.898C239.475 125.898 240.777 126.196 241.895 126.793C243.012 127.38 243.879 128.284 244.494 129.506C245.119 130.718 245.432 132.261 245.432 134.136V148H242.079V134.364C242.079 132.631 241.63 131.291 240.73 130.344C239.84 129.387 238.604 128.909 237.023 128.909C235.924 128.909 234.939 129.141 234.068 129.605C233.206 130.069 232.524 130.746 232.023 131.636C231.53 132.527 231.284 133.606 231.284 134.875Z" fill="black"/>
<path d="M252.942 156.182C252.374 156.182 251.868 156.134 251.422 156.04C250.977 155.955 250.67 155.869 250.499 155.784L251.351 152.83C252.166 153.038 252.886 153.114 253.511 153.057C254.136 153 254.689 152.721 255.172 152.219C255.665 151.726 256.115 150.926 256.522 149.818L257.147 148.114L249.079 126.182H252.715L258.738 143.568H258.965L264.988 126.182H268.624L259.363 151.182C258.946 152.309 258.43 153.241 257.814 153.98C257.199 154.728 256.484 155.282 255.67 155.642C254.865 156.002 253.956 156.182 252.942 156.182Z" fill="black"/>
<path d="M128.542 166.511C129.736 166.521 130.929 166.748 132.122 167.193C133.315 167.638 134.404 168.377 135.389 169.409C136.374 170.432 137.165 171.829 137.761 173.599C138.358 175.37 138.656 177.591 138.656 180.261C138.656 182.847 138.41 185.143 137.917 187.151C137.435 189.149 136.734 190.834 135.815 192.207C134.906 193.58 133.798 194.622 132.491 195.332C131.194 196.043 129.726 196.398 128.088 196.398C126.459 196.398 125.006 196.076 123.727 195.432C122.458 194.778 121.417 193.874 120.602 192.719C119.797 191.554 119.281 190.205 119.054 188.67H122.52C122.832 190.006 123.453 191.109 124.381 191.98C125.318 192.842 126.554 193.273 128.088 193.273C130.332 193.273 132.103 192.293 133.4 190.332C134.707 188.372 135.361 185.602 135.361 182.023H135.133C134.603 182.818 133.973 183.505 133.244 184.082C132.515 184.66 131.705 185.105 130.815 185.418C129.925 185.73 128.978 185.886 127.974 185.886C126.308 185.886 124.778 185.474 123.386 184.651C122.004 183.817 120.896 182.676 120.062 181.227C119.238 179.769 118.827 178.102 118.827 176.227C118.827 174.447 119.224 172.818 120.02 171.341C120.825 169.854 121.952 168.67 123.4 167.79C124.859 166.909 126.573 166.483 128.542 166.511ZM128.542 169.636C127.349 169.636 126.274 169.935 125.318 170.531C124.371 171.118 123.618 171.914 123.06 172.918C122.51 173.912 122.236 175.015 122.236 176.227C122.236 177.439 122.501 178.543 123.031 179.537C123.571 180.522 124.305 181.308 125.233 181.895C126.17 182.473 127.236 182.761 128.429 182.761C129.328 182.761 130.167 182.586 130.943 182.236C131.72 181.876 132.397 181.388 132.974 180.773C133.561 180.148 134.021 179.442 134.352 178.656C134.684 177.861 134.849 177.032 134.849 176.17C134.849 175.034 134.575 173.969 134.025 172.974C133.486 171.98 132.738 171.175 131.781 170.56C130.834 169.944 129.755 169.636 128.542 169.636Z" fill="black"/>
<path d="M153.731 196.398C151.591 196.398 149.768 195.815 148.262 194.651C146.756 193.476 145.606 191.777 144.81 189.551C144.015 187.316 143.617 184.617 143.617 181.455C143.617 178.311 144.015 175.626 144.81 173.401C145.615 171.166 146.77 169.461 148.276 168.287C149.791 167.103 151.609 166.511 153.731 166.511C155.852 166.511 157.665 167.103 159.171 168.287C160.686 169.461 161.841 171.166 162.637 173.401C163.442 175.626 163.844 178.311 163.844 181.455C163.844 184.617 163.447 187.316 162.651 189.551C161.856 191.777 160.705 193.476 159.199 194.651C157.694 195.815 155.871 196.398 153.731 196.398ZM153.731 193.273C155.852 193.273 157.5 192.25 158.674 190.205C159.848 188.159 160.435 185.242 160.435 181.455C160.435 178.936 160.165 176.791 159.626 175.02C159.095 173.249 158.328 171.9 157.324 170.972C156.33 170.044 155.132 169.58 153.731 169.58C151.628 169.58 149.985 170.616 148.802 172.69C147.618 174.755 147.026 177.676 147.026 181.455C147.026 183.973 147.291 186.114 147.822 187.875C148.352 189.636 149.114 190.976 150.109 191.895C151.112 192.813 152.32 193.273 153.731 193.273Z" fill="black"/>
<path d="M184.072 190.545V189.011C184.072 187.951 184.289 186.98 184.725 186.099C185.17 185.209 185.814 184.499 186.657 183.969C187.509 183.429 188.541 183.159 189.753 183.159C190.984 183.159 192.017 183.429 192.85 183.969C193.683 184.499 194.313 185.209 194.739 186.099C195.165 186.98 195.378 187.951 195.378 189.011V190.545C195.378 191.606 195.161 192.581 194.725 193.472C194.299 194.352 193.664 195.063 192.822 195.602C191.988 196.133 190.966 196.398 189.753 196.398C188.522 196.398 187.485 196.133 186.643 195.602C185.8 195.063 185.161 194.352 184.725 193.472C184.289 192.581 184.072 191.606 184.072 190.545ZM186.969 189.011V190.545C186.969 191.426 187.178 192.217 187.594 192.918C188.011 193.609 188.731 193.955 189.753 193.955C190.748 193.955 191.448 193.609 191.856 192.918C192.272 192.217 192.481 191.426 192.481 190.545V189.011C192.481 188.131 192.282 187.345 191.884 186.653C191.486 185.953 190.776 185.602 189.753 185.602C188.759 185.602 188.044 185.953 187.609 186.653C187.182 187.345 186.969 188.131 186.969 189.011ZM169.583 173.898V172.364C169.583 171.303 169.801 170.332 170.236 169.452C170.681 168.562 171.325 167.851 172.168 167.321C173.02 166.781 174.053 166.511 175.265 166.511C176.496 166.511 177.528 166.781 178.361 167.321C179.195 167.851 179.824 168.562 180.251 169.452C180.677 170.332 180.89 171.303 180.89 172.364V173.898C180.89 174.958 180.672 175.934 180.236 176.824C179.81 177.705 179.176 178.415 178.333 178.955C177.5 179.485 176.477 179.75 175.265 179.75C174.034 179.75 172.997 179.485 172.154 178.955C171.311 178.415 170.672 177.705 170.236 176.824C169.801 175.934 169.583 174.958 169.583 173.898ZM172.481 172.364V173.898C172.481 174.778 172.689 175.569 173.106 176.27C173.522 176.961 174.242 177.307 175.265 177.307C176.259 177.307 176.96 176.961 177.367 176.27C177.784 175.569 177.992 174.778 177.992 173.898V172.364C177.992 171.483 177.793 170.697 177.395 170.006C176.998 169.305 176.287 168.955 175.265 168.955C174.27 168.955 173.555 169.305 173.12 170.006C172.694 170.697 172.481 171.483 172.481 172.364ZM170.663 196L190.663 166.909H193.901L173.901 196H170.663Z" fill="black"/>
</svg>
