<svg width="267" height="313" viewBox="0 0 267 313" fill="none" xmlns="http://www.w3.org/2000/svg">
<path d="M109.549 0C134.238 2.94414e-07 158.577 5.84123 180.576 17.0464C202.576 28.2516 221.613 44.5028 236.131 64.4722C250.649 84.4415 260.237 107.562 264.11 131.946C267.984 156.329 266.034 181.283 258.419 204.768C250.804 228.254 237.741 249.605 220.297 267.076C202.853 284.547 181.522 297.644 158.049 305.295C134.575 312.946 109.624 314.935 85.2352 311.1C60.8459 307.264 37.71 297.713 17.7181 283.226L26.7478 270.765C44.7739 283.827 65.6348 292.44 87.6259 295.898C109.617 299.356 132.114 297.563 153.28 290.664C174.445 283.765 193.678 271.956 209.407 256.203C225.136 240.45 236.915 221.198 243.781 200.022C250.647 178.846 252.405 156.346 248.912 134.36C245.42 112.375 236.775 91.5271 223.684 73.5213C210.594 55.5155 193.429 40.8623 173.592 30.7589C153.756 20.6556 131.81 15.3887 109.549 15.3887V0Z" fill="#EAB52E"/>
<path d="M0 140.034V136.909H21.8182V140.034H12.6705V166H9.14773V140.034H0Z" fill="black"/>
<path d="M26.4595 174.182C25.8913 174.182 25.3847 174.134 24.9396 174.04C24.4946 173.955 24.1868 173.869 24.0163 173.784L24.8686 170.83C25.683 171.038 26.4027 171.114 27.0277 171.057C27.6527 171 28.2067 170.721 28.6896 170.219C29.1821 169.726 29.6319 168.926 30.0391 167.818L30.6641 166.114L22.5959 144.182H26.2322L32.255 161.568H32.4822L38.505 144.182H42.1413L32.88 169.182C32.4633 170.309 31.9472 171.241 31.3317 171.98C30.7161 172.728 30.0012 173.282 29.1868 173.642C28.3819 174.002 27.4728 174.182 26.4595 174.182Z" fill="black"/>
<path d="M46.5661 174.182V144.182H49.8047V147.648H50.2024C50.4486 147.269 50.7895 146.786 51.2251 146.199C51.6702 145.602 52.3047 145.072 53.1286 144.608C53.9619 144.134 55.0888 143.898 56.5092 143.898C58.3464 143.898 59.9657 144.357 61.3672 145.276C62.7687 146.194 63.8625 147.496 64.6484 149.182C65.4344 150.867 65.8274 152.856 65.8274 155.148C65.8274 157.458 65.4344 159.461 64.6484 161.156C63.8625 162.842 62.7734 164.149 61.3814 165.077C59.9893 165.995 58.3842 166.455 56.5661 166.455C55.1645 166.455 54.0424 166.223 53.1996 165.759C52.3568 165.285 51.7081 164.75 51.2536 164.153C50.799 163.547 50.4486 163.045 50.2024 162.648H49.9183V174.182H46.5661ZM49.8615 155.091C49.8615 156.739 50.103 158.192 50.5859 159.452C51.0689 160.702 51.7744 161.682 52.7024 162.392C53.6304 163.093 54.7668 163.443 56.1115 163.443C57.513 163.443 58.6825 163.074 59.62 162.335C60.567 161.587 61.2772 160.583 61.7507 159.324C62.2337 158.055 62.4751 156.644 62.4751 155.091C62.4751 153.557 62.2384 152.174 61.7649 150.943C61.3009 149.703 60.5954 148.723 59.6484 148.003C58.7109 147.274 57.532 146.909 56.1115 146.909C54.7479 146.909 53.602 147.255 52.674 147.946C51.746 148.628 51.0452 149.584 50.5717 150.815C50.0982 152.037 49.8615 153.462 49.8615 155.091Z" fill="black"/>
<path d="M79.8047 166.455C77.835 166.455 76.1068 165.986 74.62 165.048C73.1428 164.111 71.9875 162.799 71.1541 161.114C70.3303 159.428 69.9183 157.458 69.9183 155.205C69.9183 152.932 70.3303 150.948 71.1541 149.253C71.9875 147.558 73.1428 146.241 74.62 145.304C76.1068 144.366 77.835 143.898 79.8047 143.898C81.7744 143.898 83.4979 144.366 84.9751 145.304C86.4619 146.241 87.6172 147.558 88.4411 149.253C89.2744 150.948 89.6911 152.932 89.6911 155.205C89.6911 157.458 89.2744 159.428 88.4411 161.114C87.6172 162.799 86.4619 164.111 84.9751 165.048C83.4979 165.986 81.7744 166.455 79.8047 166.455ZM79.8047 163.443C81.3009 163.443 82.532 163.06 83.4979 162.293C84.4638 161.526 85.1787 160.517 85.6428 159.267C86.1068 158.017 86.3388 156.663 86.3388 155.205C86.3388 153.746 86.1068 152.387 85.6428 151.128C85.1787 149.868 84.4638 148.85 83.4979 148.074C82.532 147.297 81.3009 146.909 79.8047 146.909C78.3085 146.909 77.0774 147.297 76.1115 148.074C75.1456 148.85 74.4306 149.868 73.9666 151.128C73.5026 152.387 73.2706 153.746 73.2706 155.205C73.2706 156.663 73.5026 158.017 73.9666 159.267C74.4306 160.517 75.1456 161.526 76.1115 162.293C77.0774 163.06 78.3085 163.443 79.8047 163.443Z" fill="black"/>
<path d="M103.615 174.636C101.996 174.636 100.604 174.428 99.4389 174.011C98.2741 173.604 97.3035 173.064 96.527 172.392C95.7599 171.729 95.1491 171.019 94.6946 170.261L97.3651 168.386C97.6681 168.784 98.0516 169.239 98.5156 169.75C98.9796 170.271 99.6141 170.721 100.419 171.099C101.233 171.488 102.299 171.682 103.615 171.682C105.376 171.682 106.83 171.256 107.976 170.403C109.122 169.551 109.695 168.216 109.695 166.398V161.966H109.411C109.164 162.364 108.814 162.856 108.359 163.443C107.914 164.021 107.27 164.537 106.428 164.991C105.594 165.437 104.467 165.659 103.047 165.659C101.286 165.659 99.7041 165.242 98.3026 164.409C96.9105 163.576 95.8073 162.364 94.9929 160.773C94.188 159.182 93.7855 157.25 93.7855 154.977C93.7855 152.742 94.1785 150.796 94.9645 149.139C95.7505 147.473 96.8442 146.185 98.2457 145.276C99.6473 144.357 101.267 143.898 103.104 143.898C104.524 143.898 105.651 144.134 106.484 144.608C107.327 145.072 107.971 145.602 108.416 146.199C108.871 146.786 109.221 147.269 109.467 147.648H109.808V144.182H113.047V166.625C113.047 168.5 112.621 170.025 111.768 171.199C110.926 172.383 109.789 173.249 108.359 173.798C106.939 174.357 105.357 174.636 103.615 174.636ZM103.501 162.648C104.846 162.648 105.982 162.34 106.911 161.724C107.839 161.109 108.544 160.223 109.027 159.068C109.51 157.913 109.751 156.53 109.751 154.92C109.751 153.348 109.515 151.961 109.041 150.759C108.568 149.556 107.867 148.614 106.939 147.932C106.011 147.25 104.865 146.909 103.501 146.909C102.081 146.909 100.897 147.269 99.9503 147.989C99.0128 148.708 98.3073 149.674 97.8338 150.886C97.3698 152.098 97.1378 153.443 97.1378 154.92C97.1378 156.436 97.3745 157.776 97.848 158.94C98.331 160.096 99.0412 161.005 99.9787 161.668C100.926 162.321 102.1 162.648 103.501 162.648Z" fill="black"/>
<path d="M119.183 166V144.182H122.422V147.477H122.649C123.047 146.398 123.767 145.522 124.808 144.849C125.85 144.177 127.024 143.841 128.331 143.841C128.577 143.841 128.885 143.846 129.254 143.855C129.624 143.865 129.903 143.879 130.092 143.898V147.307C129.979 147.278 129.718 147.236 129.311 147.179C128.913 147.113 128.492 147.08 128.047 147.08C126.986 147.08 126.039 147.302 125.206 147.747C124.382 148.183 123.729 148.789 123.246 149.565C122.772 150.332 122.536 151.208 122.536 152.193V166H119.183Z" fill="black"/>
<path d="M140.487 166.511C139.104 166.511 137.849 166.251 136.722 165.73C135.595 165.2 134.701 164.437 134.038 163.443C133.375 162.439 133.043 161.227 133.043 159.807C133.043 158.557 133.29 157.544 133.782 156.767C134.274 155.981 134.933 155.366 135.756 154.92C136.58 154.475 137.489 154.144 138.484 153.926C139.487 153.699 140.496 153.519 141.509 153.386C142.835 153.216 143.91 153.088 144.734 153.003C145.567 152.908 146.173 152.752 146.552 152.534C146.94 152.316 147.134 151.937 147.134 151.398V151.284C147.134 149.883 146.751 148.794 145.984 148.017C145.226 147.241 144.076 146.852 142.532 146.852C140.932 146.852 139.677 147.203 138.768 147.903C137.859 148.604 137.219 149.352 136.85 150.148L133.668 149.011C134.237 147.686 134.994 146.653 135.941 145.915C136.897 145.167 137.939 144.646 139.066 144.352C140.202 144.049 141.32 143.898 142.418 143.898C143.119 143.898 143.924 143.983 144.833 144.153C145.752 144.314 146.637 144.651 147.489 145.162C148.351 145.673 149.066 146.445 149.634 147.477C150.202 148.509 150.487 149.892 150.487 151.625V166H147.134V163.045H146.964C146.737 163.519 146.358 164.026 145.827 164.565C145.297 165.105 144.592 165.564 143.711 165.943C142.83 166.322 141.755 166.511 140.487 166.511ZM140.998 163.5C142.324 163.5 143.441 163.24 144.35 162.719C145.269 162.198 145.96 161.526 146.424 160.702C146.897 159.878 147.134 159.011 147.134 158.102V155.034C146.992 155.205 146.68 155.361 146.197 155.503C145.723 155.635 145.174 155.754 144.549 155.858C143.933 155.953 143.332 156.038 142.745 156.114C142.167 156.18 141.699 156.237 141.339 156.284C140.468 156.398 139.653 156.582 138.896 156.838C138.147 157.084 137.541 157.458 137.077 157.96C136.623 158.453 136.396 159.125 136.396 159.977C136.396 161.142 136.826 162.023 137.688 162.619C138.559 163.206 139.663 163.5 140.998 163.5Z" fill="black"/>
<path d="M156.605 174.182V144.182H159.844V147.648H160.241C160.488 147.269 160.829 146.786 161.264 146.199C161.709 145.602 162.344 145.072 163.168 144.608C164.001 144.134 165.128 143.898 166.548 143.898C168.385 143.898 170.005 144.357 171.406 145.276C172.808 146.194 173.902 147.496 174.688 149.182C175.473 150.867 175.866 152.856 175.866 155.148C175.866 157.458 175.473 159.461 174.688 161.156C173.902 162.842 172.813 164.149 171.42 165.077C170.028 165.995 168.423 166.455 166.605 166.455C165.204 166.455 164.081 166.223 163.239 165.759C162.396 165.285 161.747 164.75 161.293 164.153C160.838 163.547 160.488 163.045 160.241 162.648H159.957V174.182H156.605ZM159.901 155.091C159.901 156.739 160.142 158.192 160.625 159.452C161.108 160.702 161.813 161.682 162.741 162.392C163.67 163.093 164.806 163.443 166.151 163.443C167.552 163.443 168.722 163.074 169.659 162.335C170.606 161.587 171.316 160.583 171.79 159.324C172.273 158.055 172.514 156.644 172.514 155.091C172.514 153.557 172.277 152.174 171.804 150.943C171.34 149.703 170.634 148.723 169.688 148.003C168.75 147.274 167.571 146.909 166.151 146.909C164.787 146.909 163.641 147.255 162.713 147.946C161.785 148.628 161.084 149.584 160.611 150.815C160.137 152.037 159.901 153.462 159.901 155.091Z" fill="black"/>
<path d="M184.332 152.875V166H180.98V136.909H184.332V147.591H184.616C185.128 146.464 185.895 145.569 186.918 144.906C187.95 144.234 189.323 143.898 191.037 143.898C192.524 143.898 193.826 144.196 194.943 144.793C196.061 145.38 196.927 146.284 197.543 147.506C198.168 148.718 198.48 150.261 198.48 152.136V166H195.128V152.364C195.128 150.631 194.678 149.291 193.778 148.344C192.888 147.387 191.652 146.909 190.071 146.909C188.973 146.909 187.988 147.141 187.116 147.605C186.255 148.069 185.573 148.746 185.071 149.636C184.579 150.527 184.332 151.606 184.332 152.875Z" fill="black"/>
<path d="M205.991 174.182C205.423 174.182 204.916 174.134 204.471 174.04C204.026 173.955 203.718 173.869 203.548 173.784L204.4 170.83C205.214 171.038 205.934 171.114 206.559 171.057C207.184 171 207.738 170.721 208.221 170.219C208.713 169.726 209.163 168.926 209.57 167.818L210.195 166.114L202.127 144.182H205.763L211.786 161.568H212.013L218.036 144.182H221.673L212.411 169.182C211.995 170.309 211.478 171.241 210.863 171.98C210.247 172.728 209.532 173.282 208.718 173.642C207.913 174.002 207.004 174.182 205.991 174.182Z" fill="black"/>
<path d="M81.9886 214.398C80.7955 214.379 79.6023 214.152 78.4091 213.716C77.2159 213.28 76.1269 212.546 75.142 211.514C74.1572 210.473 73.3665 209.066 72.7699 207.295C72.1733 205.515 71.875 203.28 71.875 200.591C71.875 198.015 72.1165 195.733 72.5994 193.744C73.0824 191.746 73.7831 190.065 74.7017 188.702C75.6203 187.329 76.7282 186.287 78.0256 185.577C79.3324 184.866 80.8049 184.511 82.4432 184.511C84.072 184.511 85.5208 184.838 86.7898 185.491C88.0682 186.135 89.1098 187.035 89.9148 188.19C90.7197 189.346 91.2405 190.676 91.4773 192.182H88.0114C87.6894 190.875 87.0644 189.791 86.1364 188.929C85.2083 188.067 83.9773 187.636 82.4432 187.636C80.1894 187.636 78.4138 188.616 77.1165 190.577C75.8286 192.537 75.1799 195.288 75.1705 198.83H75.3977C75.928 198.025 76.5578 197.338 77.2869 196.77C78.0256 196.192 78.84 195.747 79.7301 195.435C80.6203 195.122 81.5625 194.966 82.5568 194.966C84.2235 194.966 85.7481 195.383 87.1307 196.216C88.5133 197.04 89.6212 198.181 90.4545 199.639C91.2879 201.088 91.7045 202.75 91.7045 204.625C91.7045 206.424 91.3021 208.072 90.4972 209.568C89.6922 211.055 88.5606 212.239 87.1023 213.119C85.6534 213.991 83.9489 214.417 81.9886 214.398ZM81.9886 211.273C83.1818 211.273 84.2519 210.974 85.1989 210.378C86.1553 209.781 86.9081 208.981 87.4574 207.977C88.0161 206.973 88.2955 205.856 88.2955 204.625C88.2955 203.422 88.0256 202.329 87.4858 201.344C86.9555 200.349 86.2216 199.559 85.2841 198.972C84.3561 198.384 83.2955 198.091 82.1023 198.091C81.2027 198.091 80.3646 198.271 79.5881 198.631C78.8116 198.981 78.1297 199.464 77.5426 200.08C76.965 200.695 76.5104 201.401 76.179 202.196C75.8475 202.982 75.6818 203.811 75.6818 204.682C75.6818 205.837 75.9517 206.917 76.4915 207.92C77.0407 208.924 77.7888 209.734 78.7358 210.349C79.6922 210.965 80.7765 211.273 81.9886 211.273Z" fill="black"/>
<path d="M106.779 214.398C104.639 214.398 102.816 213.815 101.31 212.651C99.8047 211.476 98.6541 209.777 97.8587 207.551C97.0632 205.316 96.6655 202.617 96.6655 199.455C96.6655 196.311 97.0632 193.626 97.8587 191.401C98.6636 189.166 99.8189 187.461 101.325 186.287C102.84 185.103 104.658 184.511 106.779 184.511C108.9 184.511 110.714 185.103 112.219 186.287C113.735 187.461 114.89 189.166 115.685 191.401C116.49 193.626 116.893 196.311 116.893 199.455C116.893 202.617 116.495 205.316 115.7 207.551C114.904 209.777 113.754 211.476 112.248 212.651C110.742 213.815 108.919 214.398 106.779 214.398ZM106.779 211.273C108.9 211.273 110.548 210.25 111.722 208.205C112.897 206.159 113.484 203.242 113.484 199.455C113.484 196.936 113.214 194.791 112.674 193.02C112.144 191.249 111.377 189.9 110.373 188.972C109.379 188.044 108.181 187.58 106.779 187.58C104.677 187.58 103.034 188.616 101.85 190.69C100.666 192.755 100.075 195.676 100.075 199.455C100.075 201.973 100.34 204.114 100.87 205.875C101.4 207.636 102.163 208.976 103.157 209.895C104.161 210.813 105.368 211.273 106.779 211.273Z" fill="black"/>
<path d="M137.12 208.545V207.011C137.12 205.951 137.338 204.98 137.773 204.099C138.219 203.209 138.862 202.499 139.705 201.969C140.558 201.429 141.59 201.159 142.802 201.159C144.033 201.159 145.065 201.429 145.898 201.969C146.732 202.499 147.362 203.209 147.788 204.099C148.214 204.98 148.427 205.951 148.427 207.011V208.545C148.427 209.606 148.209 210.581 147.773 211.472C147.347 212.352 146.713 213.063 145.87 213.602C145.037 214.133 144.014 214.398 142.802 214.398C141.571 214.398 140.534 214.133 139.691 213.602C138.848 213.063 138.209 212.352 137.773 211.472C137.338 210.581 137.12 209.606 137.12 208.545ZM140.018 207.011V208.545C140.018 209.426 140.226 210.217 140.643 210.918C141.059 211.609 141.779 211.955 142.802 211.955C143.796 211.955 144.497 211.609 144.904 210.918C145.321 210.217 145.529 209.426 145.529 208.545V207.011C145.529 206.131 145.33 205.345 144.933 204.653C144.535 203.953 143.825 203.602 142.802 203.602C141.808 203.602 141.093 203.953 140.657 204.653C140.231 205.345 140.018 206.131 140.018 207.011ZM122.631 191.898V190.364C122.631 189.303 122.849 188.332 123.285 187.452C123.73 186.562 124.374 185.851 125.217 185.321C126.069 184.781 127.101 184.511 128.313 184.511C129.544 184.511 130.576 184.781 131.41 185.321C132.243 185.851 132.873 186.562 133.299 187.452C133.725 188.332 133.938 189.303 133.938 190.364V191.898C133.938 192.958 133.72 193.934 133.285 194.824C132.859 195.705 132.224 196.415 131.381 196.955C130.548 197.485 129.525 197.75 128.313 197.75C127.082 197.75 126.045 197.485 125.202 196.955C124.36 196.415 123.72 195.705 123.285 194.824C122.849 193.934 122.631 192.958 122.631 191.898ZM125.529 190.364V191.898C125.529 192.778 125.737 193.569 126.154 194.27C126.571 194.961 127.29 195.307 128.313 195.307C129.308 195.307 130.008 194.961 130.415 194.27C130.832 193.569 131.04 192.778 131.04 191.898V190.364C131.04 189.483 130.842 188.697 130.444 188.006C130.046 187.305 129.336 186.955 128.313 186.955C127.319 186.955 126.604 187.305 126.168 188.006C125.742 188.697 125.529 189.483 125.529 190.364ZM123.711 214L143.711 184.909H146.95L126.95 214H123.711Z" fill="black"/>
</svg>
